<svg width="44" height="44" viewBox="0 0 44 44" fill="none" xmlns="http://www.w3.org/2000/svg">
<g clip-path="url(#clip0)">
<path d="M23.3807 44H20.6192C18.3858 44 16.5687 42.1829 16.5687 39.9495V39.0153C15.6191 38.7119 14.6966 38.329 13.8103 37.8703L13.1483 38.5324C11.5448 40.1379 8.97617 40.0908 7.41924 38.5318L5.46752 36.5802C3.90784 35.0222 3.86298 32.4545 5.46803 30.8511L6.12958 30.1896C5.67093 29.3033 5.28808 28.3809 4.98463 27.4313H4.05049C1.81715 27.4313 0 25.6142 0 23.3808V20.6192C0 18.3858 1.81715 16.5688 4.05058 16.5688H4.98472C5.28816 15.6191 5.67102 14.6967 6.12966 13.8104L5.4676 13.1484C3.86349 11.546 3.90775 8.97806 5.46812 7.41941L7.42002 5.4676C8.98055 3.90491 11.5485 3.8659 13.149 5.46812L13.8104 6.12958C14.6967 5.67102 15.6192 5.28808 16.5688 4.98463V4.05049C16.5688 1.81706 18.3858 0 20.6193 0H23.3808C25.6142 0 27.4313 1.81706 27.4313 4.05049V4.98472C28.3808 5.28808 29.3033 5.67102 30.1896 6.12966L30.8516 5.4676C32.4552 3.86212 35.0237 3.90921 36.5807 5.4682L38.5324 7.41984C40.0921 8.9778 40.1369 11.5455 38.5319 13.1489L37.8703 13.8104C38.329 14.6967 38.7118 15.6191 39.0153 16.5688H39.9494C42.1829 16.5688 44 18.3858 44 20.6192V23.3808C44 25.6142 42.1829 27.4313 39.9494 27.4313H39.0153C38.7118 28.3809 38.329 29.3033 37.8703 30.1896L38.5324 30.8516C40.1365 32.454 40.0923 35.022 38.5319 36.5807L36.58 38.5325C35.0194 40.0952 32.4515 40.1342 30.851 38.532L30.1896 37.8705C29.3033 38.3291 28.3808 38.712 27.4313 39.0155V39.9497C27.4313 42.1829 25.6142 44 23.3807 44V44ZM14.2413 35.163C15.4725 35.8912 16.7977 36.4413 18.1799 36.798C18.7492 36.9449 19.1469 37.4583 19.1469 38.0462V39.9495C19.1469 40.7614 19.8075 41.4219 20.6193 41.4219H23.3808C24.1926 41.4219 24.8532 40.7614 24.8532 39.9495V38.0462C24.8532 37.4583 25.2509 36.9449 25.8202 36.798C27.2024 36.4413 28.5276 35.8912 29.7588 35.163C30.2654 34.8635 30.9103 34.9449 31.3265 35.3611L32.6747 36.7094C33.256 37.2914 34.1895 37.2779 34.7565 36.71L36.7096 34.757C37.2752 34.192 37.2941 33.2584 36.7101 32.6752L35.3613 31.3264C34.9452 30.9103 34.8637 30.2652 35.1632 29.7587C35.8914 28.5276 36.4414 27.2024 36.7981 25.8201C36.945 25.2508 37.4584 24.8532 38.0463 24.8532H39.9495C40.7614 24.8532 41.422 24.1927 41.422 23.3808V20.6193C41.422 19.8075 40.7614 19.147 39.9495 19.147H38.0463C37.4584 19.147 36.945 18.7492 36.7981 18.1801C36.4414 16.7978 35.8913 15.4726 35.1632 14.2415C34.8637 13.735 34.9452 13.0899 35.3613 12.6738L36.7096 11.3255C37.2924 10.7434 37.2772 9.81011 36.7101 9.2437L34.7572 7.29077C34.1911 6.72392 33.2575 6.70734 32.6753 7.29025L31.3266 8.63904C30.9105 9.05523 30.2653 9.1367 29.7589 8.83713C28.5276 8.10898 27.2025 7.55889 25.8203 7.20216C25.251 7.0553 24.8533 6.54191 24.8533 5.95401V4.05049C24.8533 3.23864 24.1927 2.57812 23.3808 2.57812H20.6194C19.8076 2.57812 19.147 3.23864 19.147 4.05049V5.95384C19.147 6.54173 18.7492 7.05513 18.18 7.20199C16.7978 7.55872 15.4726 8.1088 14.2414 8.83695C13.7347 9.13645 13.0897 9.05498 12.6736 8.63887L11.3254 7.29059C10.7442 6.70862 9.81063 6.72212 9.2437 7.28999L7.29059 9.24301C6.72495 9.80796 6.70605 10.7415 7.29008 11.3248L8.63887 12.6736C9.05498 13.0897 9.13645 13.7348 8.83695 14.2413C8.1088 15.4724 7.5588 16.7976 7.20208 18.1799C7.05512 18.7492 6.54173 19.1468 5.95392 19.1468H4.05058C3.23873 19.1469 2.57812 19.8074 2.57812 20.6192V23.3808C2.57812 24.1926 3.23873 24.8531 4.05058 24.8531H5.95384C6.54173 24.8531 7.05504 25.2508 7.20199 25.82C7.55872 27.2023 8.1088 28.5275 8.83687 29.7586C9.13636 30.2651 9.05489 30.9102 8.63878 31.3263L7.29051 32.6746C6.70768 33.2567 6.72289 34.19 7.28999 34.7564L9.24292 36.7093C9.80899 37.2762 10.7426 37.2928 11.3248 36.7098L12.6735 35.361C12.9801 35.0545 13.618 34.7944 14.2413 35.163V35.163Z" fill="white" fill-opacity="0.71"/>
<path d="M21.9997 31.5735C16.7208 31.5735 12.4263 27.2789 12.4263 22.0001C12.4263 16.7213 16.7208 12.4266 21.9997 12.4266C27.2786 12.4266 31.5731 16.7213 31.5731 22.0001C31.5731 27.2789 27.2786 31.5735 21.9997 31.5735V31.5735ZM21.9997 15.0048C18.1424 15.0048 15.0044 18.1429 15.0044 22.0001C15.0044 25.8573 18.1425 28.9954 21.9997 28.9954C25.8569 28.9954 28.995 25.8573 28.995 22.0001C28.995 18.1429 25.857 15.0048 21.9997 15.0048V15.0048Z" fill="white" fill-opacity="0.71"/>
</g>
<defs>
<clipPath id="clip0">
<rect width="44" height="44" fill="white"/>
</clipPath>
</defs>
</svg>
