<?xml version="1.0" encoding="UTF-8"?>
<svg xmlns="http://www.w3.org/2000/svg" xmlns:xlink="http://www.w3.org/1999/xlink" width="512pt" height="512pt" viewBox="0 0 512 512" version="1.1">
<g id="surface1">
<path style=" stroke:none;fill-rule:nonzero;fill:rgb(100%,100%,100%);fill-opacity:1;" d="M 379.175781 257.128906 L 532.386719 257.128906 L 532.386719 704.796875 L 379.175781 704.796875 Z M 379.175781 257.128906 "/>
<path style=" stroke:none;fill-rule:nonzero;fill:rgb(100%,100%,100%);fill-opacity:1;" d="M 426.269531 273.105469 L 907.335938 273.105469 L 907.335938 1089.132813 L 426.269531 1089.132813 Z M 426.269531 273.105469 "/>
<path style="fill:none;stroke-width:0.03;stroke-linecap:butt;stroke-linejoin:miter;stroke:rgb(100%,0%,100%);stroke-opacity:1;stroke-miterlimit:10;" d="M 0.162697 0.543205 L 0.458618 0.130203 L 0.761627 0.159935 Z M 0.162697 0.543205 " transform="matrix(512,0,0,512,0,0)"/>
<path style=" stroke:none;fill-rule:nonzero;fill:rgb(100%,100%,100%);fill-opacity:1;" d="M 470.878906 460.253906 L 32.746094 240.234375 L 27.207031 377.660156 Z M 470.878906 460.253906 "/>
<path style=" stroke:none;fill-rule:nonzero;fill:rgb(0%,0%,0%);fill-opacity:1;" d="M 217.398438 284 L 217.398438 212.417969 L 226.1875 212.417969 L 226.1875 284 Z M 275.308594 267.300781 L 284.390625 268.421875 C 282.953125 273.730469 280.300781 277.847656 276.429688 280.777344 C 272.554688 283.707031 267.605469 285.171875 261.585938 285.171875 C 254 285.171875 247.988281 282.835938 243.546875 278.164063 C 239.101563 273.492188 236.878906 266.941406 236.882813 258.511719 C 236.878906 249.789063 239.125 243.019531 243.621094 238.199219 C 248.109375 233.382813 253.9375 230.972656 261.101563 230.972656 C 268.03125 230.972656 273.695313 233.335938 278.089844 238.054688 C 282.484375 242.777344 284.679688 249.417969 284.683594 257.976563 C 284.679688 258.5 284.664063 259.28125 284.632813 260.320313 L 245.960938 260.320313 C 246.285156 266.019531 247.898438 270.378906 250.796875 273.40625 C 253.691406 276.433594 257.304688 277.949219 261.636719 277.945313 C 264.855469 277.949219 267.605469 277.101563 269.886719 275.40625 C 272.164063 273.714844 273.96875 271.011719 275.308594 267.300781 Z M 246.453125 253.09375 L 275.40625 253.09375 C 275.015625 248.730469 273.90625 245.457031 272.085938 243.277344 C 269.28125 239.894531 265.652344 238.203125 261.195313 238.199219 C 257.15625 238.203125 253.761719 239.554688 251.015625 242.253906 C 248.261719 244.957031 246.742188 248.570313 246.453125 253.09375 Z M 314.613281 276.140625 L 315.882813 283.902344 C 313.40625 284.421875 311.191406 284.679688 309.242188 284.683594 C 306.046875 284.679688 303.574219 284.179688 301.820313 283.171875 C 300.058594 282.164063 298.820313 280.835938 298.109375 279.191406 C 297.390625 277.550781 297.035156 274.089844 297.035156 268.8125 L 297.035156 238.980469 L 290.589844 238.980469 L 290.589844 232.144531 L 297.035156 232.144531 L 297.035156 219.304688 L 305.777344 214.03125 L 305.777344 232.144531 L 314.613281 232.144531 L 314.613281 238.980469 L 305.777344 238.980469 L 305.777344 269.304688 C 305.777344 271.8125 305.929688 273.425781 306.238281 274.136719 C 306.546875 274.855469 307.050781 275.425781 307.75 275.847656 C 308.449219 276.273438 309.449219 276.484375 310.753906 276.480469 C 311.730469 276.484375 313.019531 276.371094 314.613281 276.140625 Z M 357.046875 277.601563 C 353.789063 280.371094 350.65625 282.328125 347.648438 283.464844 C 344.636719 284.605469 341.402344 285.171875 337.953125 285.171875 C 332.253906 285.171875 327.878906 283.78125 324.820313 280.996094 C 321.757813 278.214844 320.226563 274.660156 320.230469 270.328125 C 320.226563 267.792969 320.804688 265.472656 321.960938 263.371094 C 323.117188 261.273438 324.628906 259.589844 326.503906 258.316406 C 328.371094 257.050781 330.480469 256.089844 332.828125 255.4375 C 334.550781 254.980469 337.15625 254.539063 340.640625 254.117188 C 347.734375 253.273438 352.957031 252.265625 356.3125 251.089844 C 356.34375 249.886719 356.359375 249.121094 356.363281 248.796875 C 356.359375 245.214844 355.53125 242.691406 353.875 241.226563 C 351.625 239.242188 348.289063 238.25 343.863281 238.25 C 339.730469 238.25 336.675781 238.976563 334.707031 240.421875 C 332.734375 241.875 331.277344 244.4375 330.335938 248.109375 L 321.742188 246.9375 C 322.519531 243.265625 323.804688 240.292969 325.601563 238.027344 C 327.390625 235.765625 329.980469 234.027344 333.367188 232.804688 C 336.75 231.585938 340.671875 230.972656 345.132813 230.972656 C 349.558594 230.972656 353.15625 231.496094 355.921875 232.535156 C 358.6875 233.582031 360.722656 234.890625 362.027344 236.46875 C 363.328125 238.046875 364.238281 240.039063 364.761719 242.445313 C 365.054688 243.945313 365.203125 246.648438 365.203125 250.554688 L 365.203125 262.273438 C 365.203125 270.445313 365.386719 275.613281 365.761719 277.777344 C 366.132813 279.941406 366.875 282.015625 367.984375 284 L 358.804688 284 C 357.890625 282.179688 357.304688 280.046875 357.046875 277.601563 Z M 356.3125 257.976563 C 353.121094 259.28125 348.335938 260.386719 341.960938 261.296875 C 338.34375 261.820313 335.789063 262.40625 334.292969 263.054688 C 332.792969 263.707031 331.636719 264.660156 330.824219 265.910156 C 330.007813 267.167969 329.601563 268.558594 329.605469 270.085938 C 329.601563 272.433594 330.488281 274.386719 332.265625 275.945313 C 334.039063 277.511719 336.636719 278.292969 340.054688 278.289063 C 343.4375 278.292969 346.445313 277.550781 349.085938 276.066406 C 351.71875 274.585938 353.65625 272.558594 354.898438 269.984375 C 355.835938 268 356.308594 265.070313 356.3125 261.195313 Z M 414.320313 267.300781 L 423.402344 268.421875 C 421.964844 273.730469 419.3125 277.847656 415.441406 280.777344 C 411.566406 283.707031 406.617188 285.171875 400.597656 285.171875 C 393.011719 285.171875 387 282.835938 382.558594 278.164063 C 378.113281 273.492188 375.890625 266.941406 375.894531 258.511719 C 375.890625 249.789063 378.136719 243.019531 382.632813 238.199219 C 387.121094 233.382813 392.949219 230.972656 400.113281 230.972656 C 407.042969 230.972656 412.707031 233.335938 417.101563 238.054688 C 421.496094 242.777344 423.691406 249.417969 423.695313 257.976563 C 423.691406 258.5 423.675781 259.28125 423.644531 260.320313 L 384.972656 260.320313 C 385.296875 266.019531 386.910156 270.378906 389.808594 273.40625 C 392.703125 276.433594 396.316406 277.949219 400.648438 277.945313 C 403.867188 277.949219 406.617188 277.101563 408.898438 275.40625 C 411.175781 273.714844 412.980469 271.011719 414.320313 267.300781 Z M 385.464844 253.09375 L 414.417969 253.09375 C 414.027344 248.730469 412.917969 245.457031 411.097656 243.277344 C 408.292969 239.894531 404.664063 238.203125 400.207031 238.199219 C 396.167969 238.203125 392.773438 239.554688 390.027344 242.253906 C 387.273438 244.957031 385.753906 248.570313 385.464844 253.09375 Z M 434.4375 284 L 434.4375 232.144531 L 442.296875 232.144531 L 442.296875 239.421875 C 443.921875 236.882813 446.085938 234.839844 448.789063 233.292969 C 451.488281 231.746094 454.566406 230.972656 458.019531 230.972656 C 461.859375 230.972656 465.007813 231.773438 467.46875 233.367188 C 469.925781 234.964844 471.660156 237.191406 472.667969 240.054688 C 476.769531 234 482.105469 230.972656 488.683594 230.972656 C 493.824219 230.972656 497.78125 232.398438 500.546875 235.246094 C 503.3125 238.09375 504.695313 242.480469 504.699219 248.40625 L 504.699219 284 L 495.960938 284 L 495.960938 251.335938 C 495.957031 247.824219 495.671875 245.292969 495.105469 243.742188 C 494.53125 242.199219 493.5 240.953125 492.003906 240.007813 C 490.503906 239.0625 488.746094 238.589844 486.730469 238.589844 C 483.082031 238.589844 480.054688 239.804688 477.648438 242.230469 C 475.238281 244.65625 474.03125 248.539063 474.035156 253.875 L 474.035156 284 L 465.246094 284 L 465.246094 250.308594 C 465.242188 246.402344 464.527344 243.472656 463.097656 241.519531 C 461.664063 239.566406 459.320313 238.589844 456.066406 238.589844 C 453.589844 238.589844 451.300781 239.242188 449.203125 240.542969 C 447.101563 241.847656 445.582031 243.753906 444.640625 246.257813 C 443.695313 248.765625 443.222656 252.375 443.226563 257.09375 L 443.226563 284 Z M 511.148438 284 "/>
</g>
</svg>
