<?xml version="1.0" standalone="no"?>
<!DOCTYPE svg PUBLIC "-//W3C//DTD SVG 1.1//EN"
 "http://www.w3.org/Graphics/SVG/1.1/DTD/svg11.dtd">
<!-- Created with svg_stack (http://github.com/astraw/svg_stack) -->
<svg xmlns="http://www.w3.org/2000/svg" xmlns:sodipodi="http://sodipodi.sourceforge.net/DTD/sodipodi-0.dtd" xmlns:xlink="http://www.w3.org/1999/xlink" version="1.1" width="640.0" height="640.0">
  <defs/>
  <g id="id0:id0" transform="matrix(1.25,0,0,1.25,0.0,0.0)"><g id="id0:surface1">
<path style=" stroke:none;fill-rule:nonzero;fill:rgb(100%,100%,100%);fill-opacity:1;" d="M 386.3125 188.445313 L 596.472656 188.445313 L 596.472656 841.511719 L 386.3125 841.511719 Z M 386.3125 188.445313 "/>
<path style=" stroke:none;fill-rule:nonzero;fill:rgb(100%,100%,100%);fill-opacity:1;" d="M 213.277344 206.355469 L 366.398438 206.355469 L 366.398438 574.5625 L 213.277344 574.5625 Z M 213.277344 206.355469 "/>
<path style="fill:none;stroke-width:0.02;stroke-linecap:butt;stroke-linejoin:miter;stroke:rgb(100%,100%,100%);stroke-opacity:1;stroke-miterlimit:10;" d="M 0.0726624 0.568428 L 0.209862 0.818398 L 0.300484 0.209953 Z M 0.0726624 0.568428 " transform="matrix(512,0,0,512,0,0)"/>
<path style=" stroke:none;fill-rule:nonzero;fill:rgb(100%,100%,100%);fill-opacity:1;" d="M 69.53125 32.625 L 284.105469 121.191406 L 447.261719 341.78125 Z M 69.53125 32.625 "/>
<path style=" stroke:none;fill-rule:nonzero;fill:rgb(0%,0%,0%);fill-opacity:1;" d="M 156.199219 221.101563 C 155.597656 220.4375 155.296875 219.671875 155.300781 218.800781 C 156.296875 189.003906 157.230469 167.304688 158.101563 153.699219 C 158.164063 152.902344 158.511719 152.21875 159.148438 151.652344 C 159.78125 151.085938 160.5 150.835938 161.300781 150.902344 C 162.097656 150.96875 162.78125 151.316406 163.347656 151.949219 C 163.914063 152.582031 164.164063 153.300781 164.101563 154.101563 C 163.230469 167.703125 162.328125 188.4375 161.398438 216.300781 C 164.261719 216.636719 166.597656 216.800781 168.398438 216.800781 C 169.199219 216.800781 169.898438 217.101563 170.5 217.703125 C 171.097656 218.304688 171.398438 219.003906 171.398438 219.800781 C 171.398438 220.601563 171.097656 221.304688 170.5 221.902344 C 169.898438 222.503906 169.199219 222.800781 168.398438 222.800781 C 166.265625 222.800781 162.832031 222.535156 158.101563 222 C 157.363281 221.933594 156.730469 221.632813 156.199219 221.101563 Z M 180.300781 188.898438 C 182.03125 188.566406 183.597656 188.035156 185 187.300781 C 185.664063 186.902344 186.628906 186.101563 187.898438 184.902344 C 189.164063 183.703125 190.265625 182.402344 191.199219 181 C 192.265625 179.46875 192.898438 178.171875 193.101563 177.101563 C 193.230469 176.4375 193.164063 175.9375 192.898438 175.601563 C 192.097656 174.804688 190.597656 175.136719 188.398438 176.601563 C 187.265625 177.402344 186.214844 178.335938 185.25 179.402344 C 184.28125 180.46875 183.632813 181.335938 183.300781 182 C 182.097656 184.269531 181.097656 186.566406 180.300781 188.898438 Z M 173.800781 189.5 C 174.796875 185.96875 176.164063 182.535156 177.898438 179.199219 C 178.5 178.070313 179.464844 176.785156 180.800781 175.351563 C 182.128906 173.917969 183.5625 172.703125 185.101563 171.699219 C 189.898438 168.371094 193.898438 168.269531 197.101563 171.398438 C 198.960938 173.136719 199.59375 175.4375 199 178.300781 C 198.59375 180.171875 197.660156 182.203125 196.199219 184.398438 C 194.996094 186.132813 193.597656 187.769531 192 189.300781 C 190.398438 190.839844 189 191.90625 187.800781 192.5 C 185.199219 193.96875 182.164063 194.867188 178.699219 195.199219 C 177.363281 202.867188 178.664063 208.933594 182.601563 213.398438 C 184.933594 216.066406 187.5 217.433594 190.300781 217.5 C 192.832031 217.570313 195.433594 216.570313 198.101563 214.5 C 200.765625 212.433594 202.898438 209.75 204.5 206.449219 C 206.097656 203.152344 206.796875 200.003906 206.601563 197 C 206.53125 196.203125 206.78125 195.484375 207.347656 194.851563 C 207.914063 194.21875 208.597656 193.871094 209.398438 193.800781 C 210.199219 193.738281 210.914063 193.988281 211.550781 194.550781 C 212.179688 195.121094 212.53125 195.804688 212.601563 196.601563 C 212.863281 200.738281 211.960938 204.871094 209.898438 209 C 207.828125 213.203125 205.128906 216.601563 201.800781 219.199219 C 198.0625 222.132813 194.195313 223.5625 190.199219 223.5 C 185.597656 223.429688 181.53125 221.398438 178 217.398438 C 172.929688 211.601563 171.164063 204.035156 172.699219 194.699219 C 171.964844 194.101563 171.597656 193.335938 171.601563 192.398438 C 171.597656 191.734375 171.816406 191.136719 172.25 190.601563 C 172.679688 190.070313 173.195313 189.703125 173.800781 189.5 Z M 212.097656 196.699219 C 214.367188 196.769531 216.765625 196.769531 219.300781 196.699219 C 219.363281 190.367188 219.363281 186.132813 219.300781 184 C 219.296875 182 219.097656 178.769531 218.699219 174.300781 C 218.363281 169.972656 218.195313 166.605469 218.199219 164.199219 C 218.195313 163.402344 218.496094 162.703125 219.097656 162.101563 C 219.699219 161.503906 220.398438 161.203125 221.199219 161.199219 C 221.996094 161.203125 222.695313 161.503906 223.296875 162.101563 C 223.894531 162.703125 224.195313 163.402344 224.199219 164.199219 C 224.195313 166.070313 224.363281 169.304688 224.699219 173.902344 C 225.03125 178.503906 225.230469 181.867188 225.300781 184 C 225.363281 186.402344 225.363281 190.570313 225.300781 196.5 C 227.097656 196.433594 229.695313 196.300781 233.097656 196.101563 C 236.496094 195.902344 238.964844 195.769531 240.5 195.699219 C 241.296875 195.636719 241.996094 195.886719 242.597656 196.453125 C 243.195313 197.019531 243.527344 197.71875 243.597656 198.550781 C 243.660156 199.386719 243.410156 200.105469 242.847656 200.703125 C 242.277344 201.304688 241.5625 201.636719 240.699219 201.699219 C 239.296875 201.769531 236.847656 201.902344 233.347656 202.101563 C 229.847656 202.300781 227.164063 202.433594 225.300781 202.5 C 225.296875 210.371094 225.730469 217.136719 226.597656 222.800781 C 226.730469 223.667969 226.546875 224.433594 226.050781 225.101563 C 225.546875 225.765625 224.878906 226.164063 224.050781 226.300781 C 223.214844 226.429688 222.464844 226.246094 221.800781 225.75 C 221.128906 225.246094 220.730469 224.597656 220.597656 223.800781 C 219.730469 218.132813 219.296875 211.101563 219.300781 202.699219 C 216.695313 202.769531 214.230469 202.769531 211.898438 202.699219 C 211.101563 202.703125 210.417969 202.402344 209.851563 201.800781 C 209.285156 201.199219 209.003906 200.484375 209 199.648438 C 209.003906 198.820313 209.304688 198.121094 209.902344 197.550781 C 210.503906 196.988281 211.234375 196.703125 212.097656 196.699219 Z M 271 181.398438 C 261.394531 187 255.996094 196.101563 254.800781 208.699219 C 254.53125 211.4375 254.695313 213.804688 255.296875 215.800781 C 255.894531 217.804688 256.828125 218.835938 258.097656 218.898438 C 258.960938 218.96875 260.03125 218.105469 261.300781 216.300781 C 262.832031 214.238281 264.296875 211.304688 265.699219 207.5 C 266.960938 204.304688 268.027344 200.953125 268.898438 197.449219 C 269.761719 193.953125 270.296875 191.304688 270.5 189.5 C 270.632813 188.4375 270.796875 185.734375 271 181.398438 Z M 273.800781 202.398438 C 273.0625 204.867188 272.230469 207.300781 271.300781 209.699219 C 269.695313 214.035156 267.996094 217.402344 266.199219 219.800781 C 263.597656 223.332031 260.761719 225.03125 257.699219 224.898438 C 253.628906 224.699219 250.898438 222.234375 249.5 217.5 C 248.699219 214.769531 248.464844 211.636719 248.800781 208.101563 C 250.265625 192.371094 257.632813 181.203125 270.898438 174.601563 C 271.695313 174.203125 272.496094 174.171875 273.300781 174.5 C 273.363281 174.503906 273.429688 174.46875 273.5 174.398438 C 274.699219 174.203125 275.699219 174.605469 276.5 175.601563 C 276.699219 175.804688 276.832031 176.070313 276.898438 176.398438 L 277.097656 177.199219 L 277.097656 177.5 C 277.566406 189.90625 279.933594 205.234375 284.199219 223.5 C 284.398438 224.296875 284.28125 225.046875 283.847656 225.75 C 283.414063 226.445313 282.796875 226.894531 282 227.097656 C 281.199219 227.292969 280.449219 227.179688 279.75 226.75 C 279.046875 226.316406 278.597656 225.699219 278.398438 224.898438 C 276.398438 216.433594 274.863281 208.933594 273.800781 202.398438 Z M 293.199219 188.898438 C 294.929688 188.566406 296.496094 188.035156 297.898438 187.300781 C 298.5625 186.902344 299.527344 186.101563 300.796875 184.902344 C 302.0625 183.703125 303.164063 182.402344 304.097656 181 C 305.164063 179.46875 305.796875 178.171875 306 177.101563 C 306.128906 176.4375 306.0625 175.9375 305.796875 175.601563 C 304.996094 174.804688 303.496094 175.136719 301.296875 176.601563 C 300.164063 177.402344 299.113281 178.335938 298.148438 179.402344 C 297.179688 180.46875 296.53125 181.335938 296.199219 182 C 294.996094 184.269531 293.996094 186.566406 293.199219 188.898438 Z M 286.699219 189.5 C 287.695313 185.96875 289.0625 182.535156 290.796875 179.199219 C 291.398438 178.070313 292.363281 176.785156 293.699219 175.351563 C 295.027344 173.917969 296.460938 172.703125 298 171.699219 C 302.796875 168.371094 306.796875 168.269531 310 171.398438 C 311.859375 173.136719 312.492188 175.4375 311.898438 178.300781 C 311.492188 180.171875 310.558594 182.203125 309.097656 184.398438 C 307.894531 186.132813 306.496094 187.769531 304.898438 189.300781 C 303.296875 190.839844 301.898438 191.90625 300.699219 192.5 C 298.097656 193.96875 295.0625 194.867188 291.597656 195.199219 C 290.261719 202.867188 291.5625 208.933594 295.5 213.398438 C 297.832031 216.066406 300.398438 217.433594 303.199219 217.5 C 305.730469 217.570313 308.332031 216.570313 311 214.5 C 313.664063 212.433594 315.796875 209.75 317.398438 206.449219 C 318.996094 203.152344 319.695313 200.003906 319.5 197 C 319.429688 196.203125 319.679688 195.484375 320.246094 194.851563 C 320.8125 194.21875 321.496094 193.871094 322.296875 193.800781 C 323.097656 193.738281 323.8125 193.988281 324.449219 194.550781 C 325.078125 195.121094 325.429688 195.804688 325.5 196.601563 C 325.761719 200.738281 324.859375 204.871094 322.796875 209 C 320.726563 213.203125 318.027344 216.601563 314.699219 219.199219 C 310.960938 222.132813 307.09375 223.5625 303.097656 223.5 C 298.496094 223.429688 294.429688 221.398438 290.898438 217.398438 C 285.828125 211.601563 284.0625 204.035156 285.597656 194.699219 C 284.863281 194.101563 284.496094 193.335938 284.5 192.398438 C 284.496094 191.734375 284.714844 191.136719 285.148438 190.601563 C 285.578125 190.070313 286.09375 189.703125 286.699219 189.5 Z M 362.101563 172.199219 L 360.902344 172.199219 C 359.101563 172.199219 357.703125 172.835938 356.703125 174.101563 C 355.703125 175.371094 354.667969 177.46875 353.601563 180.398438 C 352.667969 183.136719 351.867188 185.96875 351.203125 188.898438 C 351.199219 191.566406 350.898438 196.902344 350.300781 204.898438 C 350.230469 206.171875 350.164063 207.972656 350.101563 210.300781 C 350.097656 212.972656 350.066406 214.90625 350 216.101563 L 350 218.699219 C 350 219.433594 349.964844 220.035156 349.902344 220.5 C 349.832031 220.902344 349.667969 221.234375 349.402344 221.5 C 348.734375 222.566406 347.765625 223.035156 346.5 222.898438 C 345.699219 222.769531 345.03125 222.402344 344.5 221.800781 C 344.296875 221.535156 344.132813 221.269531 344 221 C 343.46875 220.003906 343.234375 218.734375 343.300781 217.199219 C 343.296875 217.136719 343.332031 216.671875 343.402344 215.800781 L 343.402344 214.898438 C 342.867188 205.234375 343.464844 196.335938 345.203125 188.199219 C 345.199219 181.472656 344.464844 176.703125 343 173.898438 C 342.195313 172.5 341.5625 171.769531 341.101563 171.699219 C 340.5 171.769531 339.703125 172.402344 338.703125 173.601563 C 337.632813 174.9375 336.664063 176.554688 335.800781 178.453125 C 334.929688 180.355469 334.328125 182.003906 334 183.398438 C 334.0625 189.203125 334.03125 193.769531 333.902344 197.101563 C 333.832031 198.234375 333.746094 200.167969 333.648438 202.902344 C 333.546875 205.636719 333.480469 207.753906 333.449219 209.25 C 333.414063 210.753906 333.398438 212.621094 333.402344 214.851563 C 333.398438 217.085938 333.464844 219.136719 333.601563 221 C 333.664063 221.804688 333.414063 222.515625 332.851563 223.148438 C 332.28125 223.78125 331.597656 224.132813 330.800781 224.199219 C 329.996094 224.265625 329.28125 224.015625 328.652344 223.449219 C 328.015625 222.882813 327.664063 222.203125 327.601563 221.398438 C 327.464844 219.539063 327.398438 217.4375 327.402344 215.101563 C 327.398438 212.769531 327.414063 210.871094 327.449219 209.402344 C 327.480469 207.9375 327.566406 205.738281 327.699219 202.800781 C 327.832031 199.871094 327.898438 197.902344 327.902344 196.898438 C 328.03125 193.703125 328.0625 189.535156 328 184.398438 C 327.863281 184 327.832031 183.570313 327.902344 183.101563 C 327.964844 183.039063 327.996094 182.9375 328 182.800781 C 327.929688 175.734375 327.929688 170.699219 328 167.699219 C 327.996094 166.902344 328.296875 166.222656 328.898438 165.652344 C 329.496094 165.089844 330.214844 164.804688 331.050781 164.800781 C 331.882813 164.804688 332.582031 165.105469 333.148438 165.703125 C 333.714844 166.304688 333.996094 167.035156 334 167.898438 L 334 169.800781 C 336.195313 167.203125 338.464844 165.867188 340.800781 165.800781 C 343.800781 165.601563 346.265625 167.371094 348.203125 171.101563 C 348.730469 172.039063 349.199219 173.105469 349.601563 174.300781 C 352.132813 168.839844 355.898438 166.136719 360.902344 166.199219 C 363.101563 166.269531 364.734375 166.671875 365.800781 167.398438 C 368.332031 169.402344 370.097656 173.433594 371.101563 179.5 C 371.832031 183.96875 372.199219 189.703125 372.203125 196.699219 C 372.199219 201.5 372 207.632813 371.601563 215.101563 C 371.199219 222.566406 371 226.53125 371 227 C 371 227.796875 370.699219 228.480469 370.101563 229.046875 C 369.5 229.613281 368.785156 229.894531 367.953125 229.898438 C 367.117188 229.894531 366.414063 229.597656 365.851563 229 C 365.28125 228.398438 365 227.664063 365 226.800781 C 365 226.398438 365.199219 222.484375 365.601563 215.050781 C 366 207.617188 366.199219 201.5 366.203125 196.699219 C 366.199219 190.035156 365.832031 184.636719 365.101563 180.5 C 364.429688 176.101563 363.429688 173.332031 362.101563 172.199219 Z M 372.199219 223 "/>
</g>
</g>
  <g id="id1:id1" transform="matrix(1.0,0,0,1.0,128.0,64.0)"><path d="M211.488 86.7863L369.733 274.242L439.924 91.4728L211.488 86.7863Z" fill="white" fill-opacity="0.01" stroke="black" stroke-width="4"/>
</g>
</svg>
