<?xml version="1.0" standalone="no"?>
<!DOCTYPE svg PUBLIC "-//W3C//DTD SVG 1.1//EN"
 "http://www.w3.org/Graphics/SVG/1.1/DTD/svg11.dtd">
<!-- Created with svg_stack (http://github.com/astraw/svg_stack) -->
<svg xmlns="http://www.w3.org/2000/svg" xmlns:sodipodi="http://sodipodi.sourceforge.net/DTD/sodipodi-0.dtd" xmlns:xlink="http://www.w3.org/1999/xlink" version="1.1" width="640.0" height="640.0">
  <defs/>
  <g id="id0:id0" transform="matrix(1.25,0,0,1.25,0.0,0.0)"><g id="id0:surface6">
<path style=" stroke:none;fill-rule:nonzero;fill:rgb(16.862745%,20.392157%,25.882353%);fill-opacity:1;" d="M 438.773438 159.078125 L 727.351563 159.078125 L 727.351563 681.953125 L 438.773438 681.953125 Z M 438.773438 159.078125 "/>
<path style=" stroke:none;fill-rule:nonzero;fill:rgb(27.058824%,44.313725%,45.098039%);fill-opacity:1;" d="M 210.863281 455.320313 L 226.175781 455.320313 L 226.175781 1560.933594 L 210.863281 1560.933594 Z M 210.863281 455.320313 "/>
<path style="fill:none;stroke-width:0.09;stroke-linecap:butt;stroke-linejoin:miter;stroke:rgb(66.27451%,87.843137%,76.862745%);stroke-opacity:1;stroke-miterlimit:10;" d="M 0.0336075 0.160614 L 0.964462 0.711258 L 0.0813217 0.496834 L 0.42347 0.232826 Z M 0.0336075 0.160614 " transform="matrix(512,0,0,512,0,0)"/>
<path style=" stroke:none;fill-rule:nonzero;fill:rgb(0%,0%,0%);fill-opacity:1;" d="M 296.199219 251.101563 C 295.597656 250.4375 295.296875 249.671875 295.300781 248.800781 C 296.296875 219.003906 297.230469 197.304688 298.101563 183.699219 C 298.164063 182.902344 298.511719 182.21875 299.148438 181.652344 C 299.78125 181.085938 300.5 180.835938 301.300781 180.902344 C 302.097656 180.96875 302.78125 181.316406 303.347656 181.949219 C 303.914063 182.582031 304.164063 183.300781 304.101563 184.101563 C 303.230469 197.703125 302.328125 218.4375 301.398438 246.300781 C 304.261719 246.636719 306.597656 246.800781 308.398438 246.800781 C 309.199219 246.800781 309.898438 247.101563 310.5 247.703125 C 311.097656 248.304688 311.398438 249.003906 311.398438 249.800781 C 311.398438 250.601563 311.097656 251.304688 310.5 251.902344 C 309.898438 252.503906 309.199219 252.800781 308.398438 252.800781 C 306.265625 252.800781 302.832031 252.535156 298.101563 252 C 297.363281 251.933594 296.730469 251.632813 296.199219 251.101563 Z M 320.300781 218.898438 C 322.03125 218.566406 323.597656 218.035156 325 217.300781 C 325.664063 216.902344 326.628906 216.101563 327.898438 214.902344 C 329.164063 213.703125 330.265625 212.402344 331.199219 211 C 332.265625 209.46875 332.898438 208.171875 333.101563 207.101563 C 333.230469 206.4375 333.164063 205.9375 332.898438 205.601563 C 332.097656 204.804688 330.597656 205.136719 328.398438 206.601563 C 327.265625 207.402344 326.214844 208.335938 325.25 209.402344 C 324.28125 210.46875 323.632813 211.335938 323.300781 212 C 322.097656 214.269531 321.097656 216.566406 320.300781 218.898438 Z M 313.800781 219.5 C 314.796875 215.96875 316.164063 212.535156 317.898438 209.199219 C 318.5 208.070313 319.464844 206.785156 320.800781 205.351563 C 322.128906 203.917969 323.5625 202.703125 325.101563 201.699219 C 329.898438 198.371094 333.898438 198.269531 337.101563 201.398438 C 338.960938 203.136719 339.59375 205.4375 339 208.300781 C 338.59375 210.171875 337.660156 212.203125 336.199219 214.398438 C 334.996094 216.132813 333.597656 217.769531 332 219.300781 C 330.398438 220.839844 329 221.90625 327.800781 222.5 C 325.199219 223.96875 322.164063 224.867188 318.699219 225.199219 C 317.363281 232.867188 318.664063 238.933594 322.601563 243.398438 C 324.933594 246.066406 327.5 247.433594 330.300781 247.5 C 332.832031 247.570313 335.433594 246.570313 338.101563 244.5 C 340.765625 242.433594 342.898438 239.75 344.5 236.449219 C 346.097656 233.152344 346.796875 230.003906 346.601563 227 C 346.53125 226.203125 346.78125 225.484375 347.347656 224.851563 C 347.914063 224.21875 348.597656 223.871094 349.398438 223.800781 C 350.199219 223.738281 350.914063 223.988281 351.550781 224.550781 C 352.179688 225.121094 352.53125 225.804688 352.601563 226.601563 C 352.863281 230.738281 351.960938 234.871094 349.898438 239 C 347.828125 243.203125 345.128906 246.601563 341.800781 249.199219 C 338.0625 252.132813 334.195313 253.5625 330.199219 253.5 C 325.597656 253.429688 321.53125 251.398438 318 247.398438 C 312.929688 241.601563 311.164063 234.035156 312.699219 224.699219 C 311.964844 224.101563 311.597656 223.335938 311.601563 222.398438 C 311.597656 221.734375 311.816406 221.136719 312.25 220.601563 C 312.679688 220.070313 313.195313 219.703125 313.800781 219.5 Z M 352.097656 226.699219 C 354.367188 226.769531 356.765625 226.769531 359.300781 226.699219 C 359.363281 220.367188 359.363281 216.132813 359.300781 214 C 359.296875 212 359.097656 208.769531 358.699219 204.300781 C 358.363281 199.972656 358.195313 196.605469 358.199219 194.199219 C 358.195313 193.402344 358.496094 192.703125 359.097656 192.101563 C 359.699219 191.503906 360.398438 191.203125 361.199219 191.199219 C 361.996094 191.203125 362.695313 191.503906 363.296875 192.101563 C 363.894531 192.703125 364.195313 193.402344 364.199219 194.199219 C 364.195313 196.070313 364.363281 199.304688 364.699219 203.902344 C 365.03125 208.503906 365.230469 211.867188 365.300781 214 C 365.363281 216.402344 365.363281 220.570313 365.300781 226.5 C 367.097656 226.433594 369.695313 226.300781 373.097656 226.101563 C 376.496094 225.902344 378.964844 225.769531 380.5 225.699219 C 381.296875 225.636719 381.996094 225.886719 382.597656 226.453125 C 383.195313 227.019531 383.527344 227.71875 383.597656 228.550781 C 383.660156 229.386719 383.410156 230.105469 382.847656 230.703125 C 382.277344 231.304688 381.5625 231.636719 380.699219 231.699219 C 379.296875 231.769531 376.847656 231.902344 373.347656 232.101563 C 369.847656 232.300781 367.164063 232.433594 365.300781 232.5 C 365.296875 240.371094 365.730469 247.136719 366.597656 252.800781 C 366.730469 253.667969 366.546875 254.433594 366.050781 255.101563 C 365.546875 255.765625 364.878906 256.164063 364.050781 256.300781 C 363.214844 256.429688 362.464844 256.246094 361.800781 255.75 C 361.128906 255.246094 360.730469 254.597656 360.597656 253.800781 C 359.730469 248.132813 359.296875 241.101563 359.300781 232.699219 C 356.695313 232.769531 354.230469 232.769531 351.898438 232.699219 C 351.101563 232.703125 350.417969 232.402344 349.851563 231.800781 C 349.285156 231.199219 349.003906 230.484375 349 229.648438 C 349.003906 228.820313 349.304688 228.121094 349.902344 227.550781 C 350.503906 226.988281 351.234375 226.703125 352.097656 226.699219 Z M 411 211.398438 C 401.394531 217 395.996094 226.101563 394.800781 238.699219 C 394.53125 241.4375 394.695313 243.804688 395.296875 245.800781 C 395.894531 247.804688 396.828125 248.835938 398.097656 248.898438 C 398.960938 248.96875 400.03125 248.105469 401.300781 246.300781 C 402.832031 244.238281 404.296875 241.304688 405.699219 237.5 C 406.960938 234.304688 408.027344 230.953125 408.898438 227.449219 C 409.761719 223.953125 410.296875 221.304688 410.5 219.5 C 410.632813 218.4375 410.796875 215.734375 411 211.398438 Z M 413.800781 232.398438 C 413.0625 234.867188 412.230469 237.300781 411.300781 239.699219 C 409.695313 244.035156 407.996094 247.402344 406.199219 249.800781 C 403.597656 253.332031 400.761719 255.03125 397.699219 254.898438 C 393.628906 254.699219 390.898438 252.234375 389.5 247.5 C 388.699219 244.769531 388.464844 241.636719 388.800781 238.101563 C 390.265625 222.371094 397.632813 211.203125 410.898438 204.601563 C 411.695313 204.203125 412.496094 204.171875 413.300781 204.5 C 413.363281 204.503906 413.429688 204.46875 413.5 204.398438 C 414.699219 204.203125 415.699219 204.605469 416.5 205.601563 C 416.699219 205.804688 416.832031 206.070313 416.898438 206.398438 L 417.097656 207.199219 L 417.097656 207.5 C 417.566406 219.90625 419.933594 235.234375 424.199219 253.5 C 424.398438 254.296875 424.28125 255.046875 423.847656 255.75 C 423.414063 256.445313 422.796875 256.894531 422 257.097656 C 421.199219 257.292969 420.449219 257.179688 419.75 256.75 C 419.046875 256.316406 418.597656 255.699219 418.398438 254.898438 C 416.398438 246.433594 414.863281 238.933594 413.800781 232.398438 Z M 433.199219 218.898438 C 434.929688 218.566406 436.496094 218.035156 437.898438 217.300781 C 438.5625 216.902344 439.527344 216.101563 440.796875 214.902344 C 442.0625 213.703125 443.164063 212.402344 444.097656 211 C 445.164063 209.46875 445.796875 208.171875 446 207.101563 C 446.128906 206.4375 446.0625 205.9375 445.796875 205.601563 C 444.996094 204.804688 443.496094 205.136719 441.296875 206.601563 C 440.164063 207.402344 439.113281 208.335938 438.148438 209.402344 C 437.179688 210.46875 436.53125 211.335938 436.199219 212 C 434.996094 214.269531 433.996094 216.566406 433.199219 218.898438 Z M 426.699219 219.5 C 427.695313 215.96875 429.0625 212.535156 430.796875 209.199219 C 431.398438 208.070313 432.363281 206.785156 433.699219 205.351563 C 435.027344 203.917969 436.460938 202.703125 438 201.699219 C 442.796875 198.371094 446.796875 198.269531 450 201.398438 C 451.859375 203.136719 452.492188 205.4375 451.898438 208.300781 C 451.492188 210.171875 450.558594 212.203125 449.097656 214.398438 C 447.894531 216.132813 446.496094 217.769531 444.898438 219.300781 C 443.296875 220.839844 441.898438 221.90625 440.699219 222.5 C 438.097656 223.96875 435.0625 224.867188 431.597656 225.199219 C 430.261719 232.867188 431.5625 238.933594 435.5 243.398438 C 437.832031 246.066406 440.398438 247.433594 443.199219 247.5 C 445.730469 247.570313 448.332031 246.570313 451 244.5 C 453.664063 242.433594 455.796875 239.75 457.398438 236.449219 C 458.996094 233.152344 459.695313 230.003906 459.5 227 C 459.429688 226.203125 459.679688 225.484375 460.246094 224.851563 C 460.8125 224.21875 461.496094 223.871094 462.296875 223.800781 C 463.097656 223.738281 463.8125 223.988281 464.449219 224.550781 C 465.078125 225.121094 465.429688 225.804688 465.5 226.601563 C 465.761719 230.738281 464.859375 234.871094 462.796875 239 C 460.726563 243.203125 458.027344 246.601563 454.699219 249.199219 C 450.960938 252.132813 447.09375 253.5625 443.097656 253.5 C 438.496094 253.429688 434.429688 251.398438 430.898438 247.398438 C 425.828125 241.601563 424.0625 234.035156 425.597656 224.699219 C 424.863281 224.101563 424.496094 223.335938 424.5 222.398438 C 424.496094 221.734375 424.714844 221.136719 425.148438 220.601563 C 425.578125 220.070313 426.09375 219.703125 426.699219 219.5 Z M 502.101563 202.199219 L 500.902344 202.199219 C 499.101563 202.199219 497.703125 202.835938 496.703125 204.101563 C 495.703125 205.371094 494.667969 207.46875 493.601563 210.398438 C 492.667969 213.136719 491.867188 215.96875 491.203125 218.898438 C 491.199219 221.566406 490.898438 226.902344 490.300781 234.898438 C 490.230469 236.171875 490.164063 237.972656 490.101563 240.300781 C 490.097656 242.972656 490.066406 244.90625 490 246.101563 L 490 248.699219 C 490 249.433594 489.964844 250.035156 489.902344 250.5 C 489.832031 250.902344 489.667969 251.234375 489.402344 251.5 C 488.734375 252.566406 487.765625 253.035156 486.5 252.898438 C 485.699219 252.769531 485.03125 252.402344 484.5 251.800781 C 484.296875 251.535156 484.132813 251.269531 484 251 C 483.46875 250.003906 483.234375 248.734375 483.300781 247.199219 C 483.296875 247.136719 483.332031 246.671875 483.402344 245.800781 L 483.402344 244.898438 C 482.867188 235.234375 483.464844 226.335938 485.203125 218.199219 C 485.199219 211.472656 484.464844 206.703125 483 203.898438 C 482.195313 202.5 481.5625 201.769531 481.101563 201.699219 C 480.5 201.769531 479.703125 202.402344 478.703125 203.601563 C 477.632813 204.9375 476.664063 206.554688 475.800781 208.453125 C 474.929688 210.355469 474.328125 212.003906 474 213.398438 C 474.0625 219.203125 474.03125 223.769531 473.902344 227.101563 C 473.832031 228.234375 473.746094 230.167969 473.648438 232.902344 C 473.546875 235.636719 473.480469 237.753906 473.449219 239.25 C 473.414063 240.753906 473.398438 242.621094 473.402344 244.851563 C 473.398438 247.085938 473.464844 249.136719 473.601563 251 C 473.664063 251.804688 473.414063 252.515625 472.851563 253.148438 C 472.28125 253.78125 471.597656 254.132813 470.800781 254.199219 C 469.996094 254.265625 469.28125 254.015625 468.652344 253.449219 C 468.015625 252.882813 467.664063 252.203125 467.601563 251.398438 C 467.464844 249.539063 467.398438 247.4375 467.402344 245.101563 C 467.398438 242.769531 467.414063 240.871094 467.449219 239.402344 C 467.480469 237.9375 467.566406 235.738281 467.699219 232.800781 C 467.832031 229.871094 467.898438 227.902344 467.902344 226.898438 C 468.03125 223.703125 468.0625 219.535156 468 214.398438 C 467.863281 214 467.832031 213.570313 467.902344 213.101563 C 467.964844 213.039063 467.996094 212.9375 468 212.800781 C 467.929688 205.734375 467.929688 200.699219 468 197.699219 C 467.996094 196.902344 468.296875 196.222656 468.898438 195.652344 C 469.496094 195.089844 470.214844 194.804688 471.050781 194.800781 C 471.882813 194.804688 472.582031 195.105469 473.148438 195.703125 C 473.714844 196.304688 473.996094 197.035156 474 197.898438 L 474 199.800781 C 476.195313 197.203125 478.464844 195.867188 480.800781 195.800781 C 483.800781 195.601563 486.265625 197.371094 488.203125 201.101563 C 488.730469 202.039063 489.199219 203.105469 489.601563 204.300781 C 492.132813 198.839844 495.898438 196.136719 500.902344 196.199219 C 503.101563 196.269531 504.734375 196.671875 505.800781 197.398438 C 508.332031 199.402344 510.097656 203.433594 511.101563 209.5 C 511.832031 213.96875 512.199219 219.703125 512.203125 226.699219 C 512.199219 231.5 512 237.632813 511.601563 245.101563 C 511.199219 252.566406 511 256.53125 511 257 C 511 257.796875 510.699219 258.480469 510.101563 259.046875 C 509.5 259.613281 508.785156 259.894531 507.953125 259.898438 C 507.117188 259.894531 506.414063 259.597656 505.851563 259 C 505.28125 258.398438 505 257.664063 505 256.800781 C 505 256.398438 505.199219 252.484375 505.601563 245.050781 C 506 237.617188 506.199219 231.5 506.203125 226.699219 C 506.199219 220.035156 505.832031 214.636719 505.101563 210.5 C 504.429688 206.101563 503.429688 203.332031 502.101563 202.199219 Z M 512.199219 253 "/>
</g>
</g>
  <g id="id1:id1" transform="matrix(1.0,0,0,1.0,128.0,64.0)"><path d="M468.752 199.264C458.231 206.706 441.992 204.943 423.67 194.862C405.481 184.854 385.876 166.95 369.268 143.47C352.66 119.991 342.307 95.5424 338.928 75.0588C335.525 54.4252 339.271 38.5262 349.792 31.0842C360.313 23.6423 376.552 25.4049 394.874 35.486C413.063 45.4937 432.668 63.398 449.276 86.8775C465.884 110.357 476.237 134.806 479.616 155.289C483.02 175.923 479.273 191.822 468.752 199.264Z" fill="white" fill-opacity="0.01" stroke="black" stroke-width="4"/>
</g>
</svg>
