<?xml version="1.0" encoding="UTF-8"?>
<svg xmlns="http://www.w3.org/2000/svg" xmlns:xlink="http://www.w3.org/1999/xlink" width="512pt" height="512pt" viewBox="0 0 512 512" version="1.1">
<defs>
<linearGradient id="linear0" gradientUnits="userSpaceOnUse" x1="295" y1="205" x2="500" y2="500" >
<stop offset="0" style="stop-color:rgb(92.54902%,6.666667%,100%);stop-opacity:1;"/>
<stop offset="0.5" style="stop-color:rgb(1.960784%,0%,100%);stop-opacity:1;"/>
</linearGradient>
</defs>
<g id="surface6">
<path style=" stroke:none;fill-rule:nonzero;fill:rgb(95.294118%,0%,0.392157%);fill-opacity:1;" d="M 176.328125 110.640625 L 448.65625 110.640625 L 448.65625 777.367188 L 176.328125 777.367188 Z M 176.328125 110.640625 "/>
<path style=" stroke:none;fill-rule:nonzero;fill:rgb(96.078431%,91.372549%,0.392157%);fill-opacity:1;" d="M 468.957031 186.308594 L 1020.851563 186.308594 L 1020.851563 562.546875 L 468.957031 562.546875 Z M 468.957031 186.308594 "/>
<path style=" stroke:none;fill-rule:nonzero;fill:rgb(3.137255%,0.392157%,94.509804%);fill-opacity:1;" d="M 323.449219 27.984375 C 323.449219 27.984375 298.75 59.398438 271.015625 346.800781 Z M 323.449219 27.984375 "/>
<path style=" stroke:none;fill-rule:nonzero;fill:url(#linear0);" d="M 306.101563 138.601563 C 306.085938 137.890625 305.859375 137.3125 305.425781 136.863281 C 304.984375 136.417969 304.410156 136.164063 303.699219 136.101563 C 302.976563 136.113281 302.363281 136.335938 301.859375 136.773438 C 301.351563 137.210938 301.066406 137.789063 301 138.5 L 300.601563 153.300781 L 300.398438 163.199219 L 300.199219 177.699219 C 300.183594 183.058594 300.429688 187.421875 300.9375 190.789063 C 301.4375 194.160156 302.257813 196.796875 303.398438 198.699219 C 304.664063 201.042969 306.480469 202.917969 308.847656 204.328125 C 311.210938 205.738281 313.730469 206.460938 316.398438 206.5 C 319.6875 206.46875 322.527344 205.53125 324.921875 203.6875 C 327.3125 201.84375 329.003906 199.28125 330 196 L 330.101563 196 C 330.097656 195.960938 330.097656 195.894531 330.101563 195.800781 C 330.097656 195.710938 330.097656 195.546875 330.101563 195.300781 C 330.089844 194.742188 329.929688 194.242188 329.625 193.800781 C 329.3125 193.367188 328.90625 193.066406 328.398438 192.898438 C 327.6875 192.757813 327.058594 192.847656 326.511719 193.175781 C 325.964844 193.503906 325.558594 194.046875 325.300781 194.800781 C 324.65625 196.878906 323.535156 198.523438 321.9375 199.738281 C 320.332031 200.953125 318.488281 201.574219 316.398438 201.601563 C 314.695313 201.570313 313.027344 201.054688 311.398438 200.050781 C 309.769531 199.046875 308.503906 197.730469 307.601563 196.101563 C 306.714844 194.585938 306.082031 192.320313 305.699219 189.300781 C 305.546875 187.152344 305.425781 184.933594 305.335938 182.652344 C 305.246094 180.371094 305.199219 178.054688 305.199219 175.699219 C 305.496094 157.785156 305.796875 145.417969 306.101563 138.601563 Z M 346.800781 194 C 344.894531 191.820313 343.796875 189.085938 343.5 185.800781 L 343.300781 182.5 C 343.359375 177.480469 344.761719 173.222656 347.511719 169.726563 C 350.257813 166.230469 353.988281 163.921875 358.699219 162.800781 C 360.316406 162.316406 362.183594 162.085938 364.300781 162.101563 C 367.894531 162.132813 371.027344 162.953125 373.699219 164.5625 C 376.371094 166.179688 378.304688 168.425781 379.5 171.300781 L 363.5 182.5 C 363.296875 182.585938 363.097656 182.71875 362.902344 182.898438 C 357.480469 186.800781 352.113281 190.503906 346.800781 194 Z M 378.699219 177.898438 L 383.699219 174.5 C 384.5 173.886719 384.902344 173.117188 384.902344 172.199219 C 384.902344 171.957031 384.894531 171.777344 384.886719 171.652344 C 384.871094 171.535156 384.84375 171.449219 384.800781 171.398438 C 383.378906 166.957031 380.839844 163.472656 377.1875 160.949219 C 373.527344 158.429688 369.167969 157.148438 364.101563 157.101563 C 362.398438 157.121094 360.195313 157.386719 357.5 157.898438 C 351.621094 159.386719 346.972656 162.320313 343.550781 166.699219 C 340.125 171.085938 338.375 176.417969 338.300781 182.699219 L 338.5 186.398438 C 339.074219 190.410156 340.449219 193.839844 342.625 196.6875 C 344.796875 199.539063 347.621094 201.742188 351.101563 203.300781 C 354.578125 204.898438 358.3125 205.695313 362.300781 205.699219 C 366.542969 205.675781 370.425781 204.867188 373.949219 203.261719 C 377.46875 201.65625 380.351563 199.367188 382.601563 196.398438 C 383.695313 194.945313 384.570313 193.332031 385.222656 191.550781 C 385.871094 189.777344 386.296875 187.859375 386.5 185.800781 C 386.535156 185.125 386.335938 184.53125 385.902344 184.015625 C 385.460938 183.503906 384.859375 183.230469 384.101563 183.199219 C 383.425781 183.21875 382.84375 183.4375 382.347656 183.851563 C 381.851563 184.273438 381.566406 184.789063 381.5 185.398438 C 380.953125 190.113281 378.945313 193.84375 375.476563 196.589844 C 372 199.339844 367.644531 200.742188 362.402344 200.800781 C 360.246094 200.804688 358.175781 200.53125 356.199219 199.976563 C 354.214844 199.429688 352.351563 198.601563 350.601563 197.5 L 365.800781 186.898438 L 366.402344 186.398438 C 368.546875 184.847656 370.644531 183.355469 372.699219 181.925781 C 374.746094 180.496094 376.746094 179.15625 378.699219 177.898438 Z M 403.601563 156.5 L 396 156.5 C 395.238281 156.519531 394.632813 156.765625 394.1875 157.238281 C 393.734375 157.71875 393.507813 158.339844 393.5 159.101563 C 393.523438 159.78125 393.777344 160.375 394.261719 160.890625 C 394.746094 161.40625 395.324219 161.675781 396 161.699219 L 405.101563 161.699219 L 405 171.601563 C 404.980469 180.320313 405.3125 186.488281 406 190.101563 C 406.585938 193.851563 407.609375 196.832031 409.0625 199.039063 C 410.515625 201.25 412.460938 203.003906 414.898438 204.300781 C 416.144531 204.953125 417.402344 205.445313 418.675781 205.785156 C 419.945313 206.125 421.253906 206.296875 422.601563 206.300781 C 426.046875 206.273438 429.046875 205.375 431.597656 203.601563 C 434.148438 201.828125 435.949219 199.328125 437 196.101563 L 437.199219 195.199219 C 437.191406 194.640625 437.027344 194.140625 436.710938 193.699219 C 436.390625 193.265625 435.953125 192.964844 435.398438 192.800781 L 434.601563 192.601563 C 434.128906 192.609375 433.667969 192.773438 433.222656 193.089844 C 432.773438 193.410156 432.46875 193.847656 432.300781 194.398438 C 431.511719 196.570313 430.253906 198.242188 428.535156 199.414063 C 426.808594 200.59375 424.832031 201.1875 422.601563 201.199219 C 420.746094 201.167969 418.949219 200.660156 417.210938 199.675781 C 415.46875 198.695313 414.097656 197.4375 413.101563 195.898438 C 412.640625 195.15625 412.222656 194.226563 411.847656 193.113281 C 411.464844 192.003906 411.148438 190.699219 410.898438 189.199219 C 410.378906 185.304688 410.113281 179.003906 410.101563 170.300781 L 410.101563 161.800781 C 411.515625 161.886719 414.984375 161.917969 420.5 161.898438 C 421.265625 161.886719 421.886719 161.644531 422.363281 161.164063 C 422.839844 160.6875 423.085938 160.066406 423.101563 159.300781 C 423.078125 158.628906 422.820313 158.03125 422.335938 157.515625 C 421.847656 157 421.269531 156.730469 420.601563 156.699219 C 414.996094 156.722656 411.496094 156.6875 410.101563 156.601563 L 410.101563 153 C 410.179688 151.503906 410.214844 147.402344 410.199219 140.699219 C 410.179688 139.9375 409.941406 139.320313 409.488281 138.839844 C 409.03125 138.363281 408.46875 138.117188 407.800781 138.101563 C 407.03125 138.113281 406.410156 138.34375 405.9375 138.800781 C 405.457031 139.261719 405.210938 139.894531 405.199219 140.699219 C 405.214844 147.402344 405.183594 151.503906 405.101563 153 L 405.101563 156.5 Z M 454 158.898438 C 453.976563 158.222656 453.742188 157.628906 453.296875 157.113281 C 452.847656 156.601563 452.316406 156.332031 451.699219 156.300781 C 450.9375 156.332031 450.332031 156.601563 449.886719 157.113281 C 449.433594 157.628906 449.207031 158.222656 449.199219 158.898438 C 449.195313 159.554688 449.199219 160.097656 449.210938 160.527344 C 449.21875 160.957031 449.246094 161.25 449.300781 161.398438 L 449.300781 163.800781 L 449.097656 167.898438 L 449.097656 168.398438 C 449.097656 168.65625 449.144531 168.898438 449.234375 169.125 C 449.324219 169.355469 449.445313 169.546875 449.597656 169.699219 C 449.996094 170.386719 450.59375 170.71875 451.398438 170.699219 C 451.957031 170.691406 452.457031 170.515625 452.898438 170.164063 C 453.332031 169.820313 453.632813 169.363281 453.800781 168.800781 C 453.910156 168.300781 453.976563 167.5 454 166.398438 L 454.300781 166.398438 C 457.796875 165.054688 460.925781 164.046875 463.6875 163.375 C 466.445313 162.703125 468.847656 162.347656 470.898438 162.300781 C 474.820313 162.277344 477.777344 163.28125 479.761719 165.3125 C 481.746094 167.351563 482.925781 170.578125 483.300781 175 C 481.800781 173.800781 480.597656 173.003906 479.699219 172.601563 C 478.25 171.90625 476.691406 171.378906 475.023438 171.027344 C 473.351563 170.675781 471.542969 170.5 469.597656 170.5 C 464.800781 170.53125 460.566406 171.394531 456.886719 173.089844 C 453.203125 174.785156 450.339844 177.125 448.300781 180.101563 C 447.25 181.558594 446.46875 183.097656 445.960938 184.726563 C 445.445313 186.355469 445.191406 188.046875 445.199219 189.800781 C 445.210938 192.785156 446.007813 195.519531 447.585938 198 C 449.160156 200.488281 451.429688 202.523438 454.398438 204.101563 C 457.296875 205.703125 460.597656 206.5 464.300781 206.5 C 467.214844 206.503906 470.007813 206.113281 472.675781 205.335938 C 475.339844 204.554688 478.082031 203.347656 480.898438 201.699219 C 480.953125 201.660156 481.292969 201.476563 481.921875 201.152344 C 482.550781 200.832031 483.441406 200.347656 484.597656 199.699219 C 485.550781 200.964844 487.058594 202.117188 489.121094 203.152344 C 491.175781 204.191406 493.136719 204.738281 495 204.800781 C 495.660156 204.785156 496.207031 204.539063 496.636719 204.0625 C 497.0625 203.585938 497.28125 202.964844 497.300781 202.199219 C 497.28125 201.632813 497.0625 201.148438 496.636719 200.738281 C 496.207031 200.335938 495.660156 200.121094 495 200.101563 C 493.71875 200.023438 492.300781 199.554688 490.75 198.6875 C 489.191406 197.828125 488.277344 197.03125 488 196.300781 C 487.996094 196.054688 487.972656 195.796875 487.9375 195.523438 C 487.894531 195.257813 487.851563 194.949219 487.800781 194.601563 C 487.714844 194.488281 487.679688 193.722656 487.699219 192.300781 C 487.710938 190.105469 487.878906 185.902344 488.199219 179.699219 C 488.242188 174.945313 487.777344 171.035156 486.8125 167.964844 C 485.839844 164.898438 484.101563 162.410156 481.597656 160.5 C 479.078125 158.585938 475.714844 157.621094 471.5 157.601563 C 467 157.621094 461.199219 158.886719 454.097656 161.398438 L 454.097656 161.300781 C 454.011719 161.003906 453.976563 160.203125 454 158.898438 Z M 483.199219 185.800781 C 482.996094 189.019531 482.894531 191.1875 482.898438 192.300781 C 482.878906 193.703125 482.914063 194.5 483 194.699219 L 481.898438 195.601563 C 481.148438 196.054688 480.496094 196.449219 479.9375 196.777344 C 479.375 197.109375 478.894531 197.347656 478.5 197.5 C 473.980469 200.21875 469.214844 201.585938 464.199219 201.601563 C 459.933594 201.546875 456.53125 200.460938 453.996094 198.339844 C 451.457031 196.222656 450.15625 193.410156 450.097656 189.898438 C 450.105469 187.226563 450.910156 184.800781 452.511719 182.625 C 454.105469 180.453125 456.4375 178.679688 459.5 177.300781 C 462.5 175.988281 466 175.320313 470 175.300781 C 478.296875 175.304688 482.695313 178.804688 483.199219 185.800781 Z M 512.800781 194 C 510.894531 191.820313 509.796875 189.085938 509.5 185.800781 L 509.300781 182.5 C 509.359375 177.480469 510.761719 173.222656 513.511719 169.726563 C 516.257813 166.230469 519.988281 163.921875 524.699219 162.800781 C 526.316406 162.316406 528.183594 162.085938 530.300781 162.101563 C 533.894531 162.132813 537.027344 162.953125 539.699219 164.5625 C 542.371094 166.179688 544.304688 168.425781 545.5 171.300781 L 529.5 182.5 C 529.296875 182.585938 529.097656 182.71875 528.902344 182.898438 C 523.480469 186.800781 518.113281 190.503906 512.800781 194 Z M 544.699219 177.898438 L 549.699219 174.5 C 550.5 173.886719 550.902344 173.117188 550.902344 172.199219 C 550.902344 171.957031 550.894531 171.777344 550.886719 171.652344 C 550.871094 171.535156 550.84375 171.449219 550.800781 171.398438 C 549.378906 166.957031 546.839844 163.472656 543.1875 160.949219 C 539.527344 158.429688 535.167969 157.148438 530.101563 157.101563 C 528.398438 157.121094 526.195313 157.386719 523.5 157.898438 C 517.621094 159.386719 512.972656 162.320313 509.550781 166.699219 C 506.125 171.085938 504.375 176.417969 504.300781 182.699219 L 504.5 186.398438 C 505.074219 190.410156 506.449219 193.839844 508.625 196.6875 C 510.796875 199.539063 513.621094 201.742188 517.101563 203.300781 C 520.578125 204.898438 524.3125 205.695313 528.300781 205.699219 C 532.542969 205.675781 536.425781 204.867188 539.949219 203.261719 C 543.46875 201.65625 546.351563 199.367188 548.601563 196.398438 C 549.695313 194.945313 550.570313 193.332031 551.222656 191.550781 C 551.871094 189.777344 552.296875 187.859375 552.5 185.800781 C 552.535156 185.125 552.335938 184.53125 551.902344 184.015625 C 551.460938 183.503906 550.859375 183.230469 550.101563 183.199219 C 549.425781 183.21875 548.84375 183.4375 548.347656 183.851563 C 547.851563 184.273438 547.566406 184.789063 547.5 185.398438 C 546.953125 190.113281 544.945313 193.84375 541.476563 196.589844 C 538 199.339844 533.644531 200.742188 528.402344 200.800781 C 526.246094 200.804688 524.175781 200.53125 522.199219 199.976563 C 520.214844 199.429688 518.351563 198.601563 516.601563 197.5 L 531.800781 186.898438 L 532.402344 186.398438 C 534.546875 184.847656 536.644531 183.355469 538.699219 181.925781 C 540.746094 180.496094 542.746094 179.15625 544.699219 177.898438 Z M 562.898438 156 C 562.226563 156.027344 561.644531 156.28125 561.160156 156.765625 C 560.671875 157.25 560.417969 157.828125 560.398438 158.5 C 560.417969 159.171875 560.671875 159.753906 561.160156 160.238281 C 561.644531 160.726563 562.226563 160.980469 562.898438 161 L 566.101563 161 C 566.097656 165.804688 565.996094 172.304688 565.800781 180.5 L 565.601563 199.800781 L 562.5 199.800781 C 561.738281 199.828125 561.132813 200.082031 560.6875 200.5625 C 560.238281 201.050781 560.007813 201.628906 560 202.300781 C 560.007813 202.976563 560.238281 203.554688 560.6875 204.039063 C 561.132813 204.523438 561.738281 204.777344 562.5 204.800781 C 565.617188 204.785156 567.582031 204.820313 568.398438 204.898438 L 574.398438 204.898438 C 575.070313 204.882813 575.648438 204.628906 576.136719 204.140625 C 576.621094 203.65625 576.875 203.074219 576.898438 202.398438 C 576.875 201.726563 576.621094 201.148438 576.136719 200.664063 C 575.648438 200.179688 575.070313 199.925781 574.398438 199.898438 L 570.601563 199.898438 L 570.699219 186.601563 C 570.746094 186.445313 570.777344 186.054688 570.789063 185.425781 C 570.796875 184.796875 570.800781 183.953125 570.800781 182.898438 C 572.1875 180.097656 574.207031 177.128906 576.859375 173.984375 C 579.511719 170.847656 582.460938 168.15625 585.703125 165.914063 C 588.945313 163.675781 592.144531 162.503906 595.300781 162.398438 C 598.214844 162.386719 600.480469 163.71875 602.101563 166.398438 C 604.613281 170.917969 605.878906 178.1875 605.898438 188.199219 L 605.699219 196 L 605.601563 200.300781 L 601.199219 200.300781 C 600.523438 200.324219 599.945313 200.578125 599.460938 201.0625 C 598.976563 201.546875 598.722656 202.128906 598.699219 202.800781 C 598.722656 203.476563 598.976563 204.054688 599.460938 204.539063 C 599.945313 205.023438 600.523438 205.273438 601.199219 205.300781 L 613.601563 205.300781 C 614.359375 205.273438 614.964844 205.023438 615.414063 204.539063 C 615.859375 204.054688 616.089844 203.476563 616.101563 202.800781 C 616.089844 202.128906 615.859375 201.546875 615.414063 201.0625 C 614.964844 200.578125 614.359375 200.324219 613.601563 200.300781 L 610.601563 200.300781 L 610.699219 196.101563 L 610.898438 188.398438 L 610.699219 182.300781 C 612.984375 178.257813 615.6875 174.695313 618.8125 171.613281 C 621.933594 168.535156 624.960938 166.199219 627.898438 164.601563 C 630.679688 163.085938 633.214844 162.320313 635.5 162.300781 C 640.714844 162.320313 644.082031 166.683594 645.601563 175.398438 C 645.847656 177.453125 646.042969 179.546875 646.1875 181.675781 C 646.324219 183.804688 646.394531 185.945313 646.398438 188.101563 L 646.199219 195.800781 L 646.101563 199.898438 C 645.617188 199.816406 644.183594 199.785156 641.800781 199.800781 C 641.039063 199.816406 640.433594 200.042969 639.988281 200.488281 C 639.539063 200.9375 639.308594 201.542969 639.300781 202.300781 C 639.308594 203.066406 639.539063 203.6875 639.988281 204.164063 C 640.433594 204.644531 641.039063 204.890625 641.800781 204.898438 L 653.699219 205 C 654.371094 204.976563 654.949219 204.707031 655.4375 204.1875 C 655.917969 203.675781 656.171875 203.078125 656.199219 202.398438 C 656.171875 201.734375 655.917969 201.175781 655.4375 200.714844 C 654.949219 200.261719 654.371094 200.023438 653.699219 200 C 652.953125 200.007813 652.371094 200.003906 651.949219 199.988281 C 651.527344 199.980469 651.242188 199.949219 651.101563 199.898438 L 651.199219 196 L 651.398438 187.898438 L 651.199219 181.5 C 649.980469 165.300781 644.914063 157.199219 636 157.199219 C 634.214844 157.183594 632.582031 157.417969 631.101563 157.898438 C 627.351563 158.957031 623.699219 160.875 620.148438 163.652344 C 616.597656 166.433594 613.148438 170.050781 609.800781 174.5 C 607.914063 163.019531 603.179688 157.285156 595.601563 157.300781 C 592.578125 157.375 589.496094 158.203125 586.351563 159.789063 C 583.203125 161.375 580.417969 163.28125 578 165.5 C 575.613281 167.703125 573.28125 170.300781 571 173.300781 C 571.042969 172.65625 571.070313 171.324219 571.085938 169.300781 C 571.09375 167.28125 571.101563 164.546875 571.101563 161.101563 L 574.101563 161.101563 C 574.859375 161.078125 575.460938 160.824219 575.914063 160.339844 C 576.359375 159.855469 576.589844 159.277344 576.601563 158.601563 C 576.589844 157.929688 576.359375 157.351563 575.914063 156.863281 C 575.460938 156.378906 574.859375 156.125 574.101563 156.101563 L 568.5 156.101563 C 567.78125 156.023438 565.914063 155.988281 562.898438 156 Z M 659.699219 205 "/>
</g>
</svg>
