<?xml version="1.0" standalone="no"?>
<!DOCTYPE svg PUBLIC "-//W3C//DTD SVG 1.1//EN"
 "http://www.w3.org/Graphics/SVG/1.1/DTD/svg11.dtd">
<!-- Created with svg_stack (http://github.com/astraw/svg_stack) -->
<svg xmlns="http://www.w3.org/2000/svg" xmlns:sodipodi="http://sodipodi.sourceforge.net/DTD/sodipodi-0.dtd" xmlns:xlink="http://www.w3.org/1999/xlink" version="1.1" width="640.0" height="640.0">
  <defs/>
  <g id="id0:id0" transform="matrix(1.25,0,0,1.25,0.0,0.0)"><g id="id0:surface11">
<path style=" stroke:none;fill-rule:nonzero;fill:rgb(80%,26.666667%,12.156863%);fill-opacity:1;" d="M 252.28125 474.238281 L 263.351563 474.238281 L 263.351563 1253.777344 L 252.28125 1253.777344 Z M 252.28125 474.238281 "/>
<path style=" stroke:none;fill-rule:nonzero;fill:rgb(40.784314%,3.921569%,8.627451%);fill-opacity:1;" d="M 217.734375 432.984375 L 579.46875 432.984375 L 579.46875 1227.296875 L 217.734375 1227.296875 Z M 217.734375 432.984375 "/>
<path style="fill:none;stroke-width:0.08;stroke-linecap:butt;stroke-linejoin:miter;stroke:rgb(14.117647%,17.254902%,18.823529%);stroke-opacity:1;stroke-miterlimit:10;" d="M 0.0548477 0.642784 C 0.0548477 0.642784 0.330658 0.809036 0.267632 0.17498 Z M 0.0548477 0.642784 " transform="matrix(512,0,0,512,0,0)"/>
<path style=" stroke:none;fill-rule:nonzero;fill:rgb(54.117647%,50.196078%,31.372549%);fill-opacity:1;" d="M 244.792969 408.128906 L 489.203125 372.480469 L 239.242188 96.648438 Z M 244.792969 408.128906 "/>
<path style=" stroke:none;fill-rule:nonzero;fill:rgb(0%,0%,0%);fill-opacity:1;" d="M 200.5 139.5 L 212.699219 139.5 L 212.699219 154.300781 L 212.5 161.199219 L 212.5 167.800781 L 212.398438 174.5 L 212.398438 202.800781 L 212.199219 209.898438 L 200 209.5 L 200.199219 202.601563 L 200.199219 174.5 L 200.300781 167.800781 L 200.300781 161 L 200.5 154.101563 Z M 226.699219 177.101563 L 232.800781 177.601563 L 239.800781 177.398438 L 245.597656 176.800781 L 249 176.300781 L 249.398438 173.5 L 248 169.398438 L 245.097656 165.398438 L 241.300781 163.800781 L 236.398438 163.199219 L 232.199219 164.699219 L 229.5 167.601563 L 227.199219 172.101563 Z M 226.699219 189.398438 L 226.898438 191.699219 L 228.300781 195.898438 L 230.800781 198.898438 L 236 200.300781 L 240.699219 200.699219 L 245.597656 199.199219 L 249.097656 196.601563 L 252.097656 191.601563 L 262.5 198 L 258.097656 204.800781 L 251.199219 210 L 242.097656 212.898438 L 233.597656 212.300781 L 224.199219 209.101563 L 217.699219 202.101563 L 214.898438 194.101563 L 214.199219 185.300781 L 214.398438 177.199219 L 215.597656 168.699219 L 219.5 160.601563 L 225.597656 154.5 L 234.800781 151 L 244.699219 152 L 252.699219 156 L 258.800781 163.800781 L 261.597656 173.5 L 257.800781 184.699219 L 248.199219 188.601563 L 240.597656 189.601563 L 232.597656 189.800781 Z M 262.5 178.800781 L 262.699219 166.601563 L 269.796875 166.699219 L 270.097656 166.699219 L 270.097656 160.101563 L 270.296875 153.5 L 270.097656 146.898438 L 282.296875 146.5 L 282.5 153.5 L 282.296875 160.300781 L 282.296875 166.898438 L 283.796875 167 L 290.398438 167 L 290.398438 179.199219 L 283.597656 179.199219 L 282 179.101563 L 282 194.898438 L 282.097656 201.199219 L 282.296875 207.300781 L 270.097656 207.699219 L 269.898438 201.398438 L 269.796875 194.898438 L 269.796875 178.898438 Z M 329 176 L 328.898438 176.101563 L 325.796875 171.898438 L 321.898438 169.601563 L 317 168.398438 L 312 168.5 L 308.296875 170.699219 L 304.597656 174.601563 L 302.398438 178.800781 L 302.296875 183 L 303.097656 187.398438 L 305.296875 191.101563 L 308.097656 194 L 311.597656 195.699219 L 316.597656 196.699219 L 320.898438 196.398438 L 325 194.699219 L 328.398438 192.398438 L 328.5 188.5 L 329 181.101563 Z M 329.097656 152.5 L 341.296875 152.699219 L 341.199219 159.601563 L 341.199219 181.5 L 340.699219 189.101563 L 340.398438 197.601563 L 340.296875 205.601563 L 340.296875 213.300781 L 328.097656 213.300781 L 328.097656 206.5 L 323.699219 208.199219 L 316 208.898438 L 307.796875 207.300781 L 300.898438 204 L 295.5 198.5 L 291.699219 191.601563 L 290.097656 183.800781 L 290.597656 175.601563 L 294.597656 167.601563 L 300.699219 161.101563 L 308.597656 156.699219 L 318.398438 156.199219 L 326.5 158.398438 L 329 159.800781 L 329 159.601563 Z M 355.199219 177.101563 L 361.300781 177.601563 L 368.300781 177.398438 L 374.097656 176.800781 L 377.5 176.300781 L 377.898438 173.5 L 376.5 169.398438 L 373.597656 165.398438 L 369.800781 163.800781 L 364.898438 163.199219 L 360.699219 164.699219 L 358 167.601563 L 355.699219 172.101563 Z M 355.199219 189.398438 L 355.398438 191.699219 L 356.800781 195.898438 L 359.300781 198.898438 L 364.5 200.300781 L 369.199219 200.699219 L 374.097656 199.199219 L 377.597656 196.601563 L 380.597656 191.601563 L 391 198 L 386.597656 204.800781 L 379.699219 210 L 370.597656 212.898438 L 362.097656 212.300781 L 352.699219 209.101563 L 346.199219 202.101563 L 343.398438 194.101563 L 342.699219 185.300781 L 342.898438 177.199219 L 344.097656 168.699219 L 348 160.601563 L 354.097656 154.5 L 363.300781 151 L 373.199219 152 L 381.199219 156 L 387.300781 163.800781 L 390.097656 173.5 L 386.300781 184.699219 L 376.699219 188.601563 L 369.097656 189.601563 L 361.097656 189.800781 Z M 391.5 159.398438 L 403.699219 160.398438 L 403.398438 164.398438 L 404.199219 163.601563 L 411.796875 159.101563 L 422.796875 159 L 429.296875 165.898438 L 435.199219 161.300781 L 444.097656 158.199219 L 454.796875 161.5 L 460.398438 171.398438 L 461.699219 179.800781 L 462.296875 188 L 462.296875 195.898438 L 461.5 203.800781 L 460.898438 211.199219 L 448.699219 210.199219 L 449.296875 202.601563 L 450.097656 195.300781 L 450.097656 188.398438 L 449.5 181.199219 L 448.796875 175.199219 L 447 170.898438 L 444.5 170.398438 L 441.199219 171.898438 L 436.898438 175.398438 L 432.796875 180.398438 L 432.699219 180.199219 L 432.796875 184.601563 L 432.597656 191.101563 L 432.296875 197.800781 L 431.796875 204.300781 L 419.597656 203.300781 L 420.097656 197 L 420.398438 190.699219 L 420.597656 184.601563 L 420.398438 177.398438 L 419.796875 172.800781 L 418 170.199219 L 415.398438 170.699219 L 411.597656 173.199219 L 407.296875 177.398438 L 403.199219 183.398438 L 402.898438 183.101563 L 402.898438 197 L 403.097656 203.300781 L 403.097656 209.601563 L 390.898438 209.601563 L 390.898438 203.5 L 390.699219 197.199219 L 390.699219 182.300781 L 390.898438 174.800781 L 390.898438 167.101563 Z M 461.199219 211 "/>
</g>
</g>
  <g id="id1:id1" transform="matrix(1.0,0,0,1.0,128.0,64.0)"><path d="M278 119C278 131.887 267.183 144.127 248.372 153.263C229.698 162.334 203.76 168 175 168C146.24 168 120.302 162.334 101.628 153.263C82.8167 144.127 72 131.887 72 119C72 106.113 82.8167 93.8733 101.628 84.7366C120.302 75.6663 146.24 70 175 70C203.76 70 229.698 75.6663 248.372 84.7366C267.183 93.8733 278 106.113 278 119Z" fill="white" fill-opacity="0.01" stroke="black" stroke-width="4"/>
</g>
</svg>
