<?xml version="1.0" encoding="UTF-8"?>
<svg xmlns="http://www.w3.org/2000/svg" xmlns:xlink="http://www.w3.org/1999/xlink" width="512pt" height="512pt" viewBox="0 0 512 512" version="1.1">
<g id="surface11">
<path style=" stroke:none;fill-rule:nonzero;fill:rgb(19.215686%,19.215686%,24.705882%);fill-opacity:1;" d="M 68.738281 96.210938 L -2.660156 96.210938 L -2.660156 425.582031 L 68.738281 425.582031 Z M 68.738281 96.210938 "/>
<path style=" stroke:none;fill-rule:nonzero;fill:rgb(95.686275%,95.686275%,95.686275%);fill-opacity:1;" d="M 260.386719 108.730469 L 496.195313 108.730469 L 496.195313 699.171875 L 260.386719 699.171875 Z M 260.386719 108.730469 "/>
<path style="fill:none;stroke-width:0.04;stroke-linecap:butt;stroke-linejoin:miter;stroke:rgb(0.392157%,57.647059%,26.27451%);stroke-opacity:1;stroke-miterlimit:10;" d="M 0.393326 0.528358 L 0.000854492 0.216782 L 0.70015 0.911758 L 0.727631 0.768639 Z M 0.393326 0.528358 " transform="matrix(512,0,0,512,0,0)"/>
<path style=" stroke:none;fill-rule:nonzero;fill:rgb(19.215686%,19.215686%,24.705882%);fill-opacity:1;" d="M 147.238281 397.828125 C 147.238281 397.828125 188.25 326.613281 411.867188 198.789063 Z M 147.238281 397.828125 "/>
<path style=" stroke:none;fill-rule:nonzero;fill:rgb(0%,0%,0%);fill-opacity:1;" d="M 301.398438 288 L 301.398438 216.417969 L 310.1875 216.417969 L 310.1875 288 Z M 359.308594 271.300781 L 368.390625 272.421875 C 366.953125 277.730469 364.300781 281.847656 360.429688 284.777344 C 356.554688 287.707031 351.605469 289.171875 345.585938 289.171875 C 338 289.171875 331.988281 286.835938 327.546875 282.164063 C 323.101563 277.492188 320.878906 270.941406 320.882813 262.511719 C 320.878906 253.789063 323.125 247.019531 327.621094 242.199219 C 332.109375 237.382813 337.9375 234.972656 345.101563 234.972656 C 352.03125 234.972656 357.695313 237.335938 362.089844 242.054688 C 366.484375 246.777344 368.679688 253.417969 368.683594 261.976563 C 368.679688 262.5 368.664063 263.28125 368.632813 264.320313 L 329.960938 264.320313 C 330.285156 270.019531 331.898438 274.378906 334.796875 277.40625 C 337.691406 280.433594 341.304688 281.949219 345.636719 281.945313 C 348.855469 281.949219 351.605469 281.101563 353.886719 279.40625 C 356.164063 277.714844 357.96875 275.011719 359.308594 271.300781 Z M 330.453125 257.09375 L 359.40625 257.09375 C 359.015625 252.730469 357.90625 249.457031 356.085938 247.277344 C 353.28125 243.894531 349.652344 242.203125 345.195313 242.199219 C 341.15625 242.203125 337.761719 243.554688 335.015625 246.253906 C 332.261719 248.957031 330.742188 252.570313 330.453125 257.09375 Z M 398.613281 280.140625 L 399.882813 287.902344 C 397.40625 288.421875 395.191406 288.679688 393.242188 288.683594 C 390.046875 288.679688 387.574219 288.179688 385.820313 287.171875 C 384.058594 286.164063 382.820313 284.835938 382.109375 283.191406 C 381.390625 281.550781 381.035156 278.089844 381.035156 272.8125 L 381.035156 242.980469 L 374.589844 242.980469 L 374.589844 236.144531 L 381.035156 236.144531 L 381.035156 223.304688 L 389.777344 218.03125 L 389.777344 236.144531 L 398.613281 236.144531 L 398.613281 242.980469 L 389.777344 242.980469 L 389.777344 273.304688 C 389.777344 275.8125 389.929688 277.425781 390.238281 278.136719 C 390.546875 278.855469 391.050781 279.425781 391.75 279.847656 C 392.449219 280.273438 393.449219 280.484375 394.753906 280.480469 C 395.730469 280.484375 397.019531 280.371094 398.613281 280.140625 Z M 441.046875 281.601563 C 437.789063 284.371094 434.65625 286.328125 431.648438 287.464844 C 428.636719 288.605469 425.402344 289.171875 421.953125 289.171875 C 416.253906 289.171875 411.878906 287.78125 408.820313 284.996094 C 405.757813 282.214844 404.226563 278.660156 404.230469 274.328125 C 404.226563 271.792969 404.804688 269.472656 405.960938 267.371094 C 407.117188 265.273438 408.628906 263.589844 410.503906 262.316406 C 412.371094 261.050781 414.480469 260.089844 416.828125 259.4375 C 418.550781 258.980469 421.15625 258.539063 424.640625 258.117188 C 431.734375 257.273438 436.957031 256.265625 440.3125 255.089844 C 440.34375 253.886719 440.359375 253.121094 440.363281 252.796875 C 440.359375 249.214844 439.53125 246.691406 437.875 245.226563 C 435.625 243.242188 432.289063 242.25 427.863281 242.25 C 423.730469 242.25 420.675781 242.976563 418.707031 244.421875 C 416.734375 245.875 415.277344 248.4375 414.335938 252.109375 L 405.742188 250.9375 C 406.519531 247.265625 407.804688 244.292969 409.601563 242.027344 C 411.390625 239.765625 413.980469 238.027344 417.367188 236.804688 C 420.75 235.585938 424.671875 234.972656 429.132813 234.972656 C 433.558594 234.972656 437.15625 235.496094 439.921875 236.535156 C 442.6875 237.582031 444.722656 238.890625 446.027344 240.46875 C 447.328125 242.046875 448.238281 244.039063 448.761719 246.445313 C 449.054688 247.945313 449.203125 250.648438 449.203125 254.554688 L 449.203125 266.273438 C 449.203125 274.445313 449.386719 279.613281 449.761719 281.777344 C 450.132813 283.941406 450.875 286.015625 451.984375 288 L 442.804688 288 C 441.890625 286.179688 441.304688 284.046875 441.046875 281.601563 Z M 440.3125 261.976563 C 437.121094 263.28125 432.335938 264.386719 425.960938 265.296875 C 422.34375 265.820313 419.789063 266.40625 418.292969 267.054688 C 416.792969 267.707031 415.636719 268.660156 414.824219 269.910156 C 414.007813 271.167969 413.601563 272.558594 413.605469 274.085938 C 413.601563 276.433594 414.488281 278.386719 416.265625 279.945313 C 418.039063 281.511719 420.636719 282.292969 424.054688 282.289063 C 427.4375 282.292969 430.445313 281.550781 433.085938 280.066406 C 435.71875 278.585938 437.65625 276.558594 438.898438 273.984375 C 439.835938 272 440.308594 269.070313 440.3125 265.195313 Z M 498.320313 271.300781 L 507.402344 272.421875 C 505.964844 277.730469 503.3125 281.847656 499.441406 284.777344 C 495.566406 287.707031 490.617188 289.171875 484.597656 289.171875 C 477.011719 289.171875 471 286.835938 466.558594 282.164063 C 462.113281 277.492188 459.890625 270.941406 459.894531 262.511719 C 459.890625 253.789063 462.136719 247.019531 466.632813 242.199219 C 471.121094 237.382813 476.949219 234.972656 484.113281 234.972656 C 491.042969 234.972656 496.707031 237.335938 501.101563 242.054688 C 505.496094 246.777344 507.691406 253.417969 507.695313 261.976563 C 507.691406 262.5 507.675781 263.28125 507.644531 264.320313 L 468.972656 264.320313 C 469.296875 270.019531 470.910156 274.378906 473.808594 277.40625 C 476.703125 280.433594 480.316406 281.949219 484.648438 281.945313 C 487.867188 281.949219 490.617188 281.101563 492.898438 279.40625 C 495.175781 277.714844 496.980469 275.011719 498.320313 271.300781 Z M 469.464844 257.09375 L 498.417969 257.09375 C 498.027344 252.730469 496.917969 249.457031 495.097656 247.277344 C 492.292969 243.894531 488.664063 242.203125 484.207031 242.199219 C 480.167969 242.203125 476.773438 243.554688 474.027344 246.253906 C 471.273438 248.957031 469.753906 252.570313 469.464844 257.09375 Z M 518.4375 288 L 518.4375 236.144531 L 526.296875 236.144531 L 526.296875 243.421875 C 527.921875 240.882813 530.085938 238.839844 532.789063 237.292969 C 535.488281 235.746094 538.566406 234.972656 542.019531 234.972656 C 545.859375 234.972656 549.007813 235.773438 551.46875 237.367188 C 553.925781 238.964844 555.660156 241.191406 556.667969 244.054688 C 560.769531 238 566.105469 234.972656 572.683594 234.972656 C 577.824219 234.972656 581.78125 236.398438 584.546875 239.246094 C 587.3125 242.09375 588.695313 246.480469 588.699219 252.40625 L 588.699219 288 L 579.960938 288 L 579.960938 255.335938 C 579.957031 251.824219 579.671875 249.292969 579.105469 247.742188 C 578.53125 246.199219 577.5 244.953125 576.003906 244.007813 C 574.503906 243.0625 572.746094 242.589844 570.730469 242.589844 C 567.082031 242.589844 564.054688 243.804688 561.648438 246.230469 C 559.238281 248.65625 558.03125 252.539063 558.035156 257.875 L 558.035156 288 L 549.246094 288 L 549.246094 254.308594 C 549.242188 250.402344 548.527344 247.472656 547.097656 245.519531 C 545.664063 243.566406 543.320313 242.589844 540.066406 242.589844 C 537.589844 242.589844 535.300781 243.242188 533.203125 244.542969 C 531.101563 245.847656 529.582031 247.753906 528.640625 250.257813 C 527.695313 252.765625 527.222656 256.375 527.226563 261.09375 L 527.226563 288 Z M 595.148438 288 "/>
</g>
</svg>
