<?xml version="1.0" encoding="UTF-8"?>
<svg xmlns="http://www.w3.org/2000/svg" xmlns:xlink="http://www.w3.org/1999/xlink" width="512pt" height="512pt" viewBox="0 0 512 512" version="1.1">
<defs>
<linearGradient id="linear0" gradientUnits="userSpaceOnUse" x1="272" y1="213" x2="500" y2="500" >
<stop offset="0" style="stop-color:rgb(92.54902%,6.666667%,100%);stop-opacity:1;"/>
<stop offset="0.5" style="stop-color:rgb(1.960784%,0%,100%);stop-opacity:1;"/>
</linearGradient>
</defs>
<g id="surface16">
<path style=" stroke:none;fill-rule:nonzero;fill:rgb(7.843137%,67.45098%,97.254902%);fill-opacity:1;" d="M 266.675781 296.246094 L 746.300781 296.246094 L 746.300781 997.820313 L 266.675781 997.820313 Z M 266.675781 296.246094 "/>
<path style=" stroke:none;fill-rule:nonzero;fill:rgb(89.019608%,1.960784%,8.235294%);fill-opacity:1;" d="M 450.96875 109.703125 L 1043.757813 109.703125 L 1043.757813 738.503906 L 450.96875 738.503906 Z M 450.96875 109.703125 "/>
<path style=" stroke:none;fill-rule:nonzero;fill:url(#linear0);" d="M 276.5 141.5 L 288.699219 141.5 L 288.699219 156.300781 L 288.5 163.199219 L 288.5 169.800781 L 288.398438 176.5 L 288.398438 204.800781 L 288.199219 211.898438 L 276 211.5 L 276.199219 204.601563 L 276.199219 176.5 L 276.300781 169.800781 L 276.300781 163 L 276.5 156.101563 Z M 302.699219 179.101563 L 308.800781 179.601563 L 315.800781 179.398438 L 321.597656 178.800781 L 325 178.300781 L 325.398438 175.5 L 324 171.398438 L 321.097656 167.398438 L 317.300781 165.800781 L 312.398438 165.199219 L 308.199219 166.699219 L 305.5 169.601563 L 303.199219 174.101563 Z M 302.699219 191.398438 L 302.898438 193.699219 L 304.300781 197.898438 L 306.800781 200.898438 L 312 202.300781 L 316.699219 202.699219 L 321.597656 201.199219 L 325.097656 198.601563 L 328.097656 193.601563 L 338.5 200 L 334.097656 206.800781 L 327.199219 212 L 318.097656 214.898438 L 309.597656 214.300781 L 300.199219 211.101563 L 293.699219 204.101563 L 290.898438 196.101563 L 290.199219 187.300781 L 290.398438 179.199219 L 291.597656 170.699219 L 295.5 162.601563 L 301.597656 156.5 L 310.800781 153 L 320.699219 154 L 328.699219 158 L 334.800781 165.800781 L 337.597656 175.5 L 333.800781 186.699219 L 324.199219 190.601563 L 316.597656 191.601563 L 308.597656 191.800781 Z M 338.5 180.800781 L 338.699219 168.601563 L 345.796875 168.699219 L 346.097656 168.699219 L 346.097656 162.101563 L 346.296875 155.5 L 346.097656 148.898438 L 358.296875 148.5 L 358.5 155.5 L 358.296875 162.300781 L 358.296875 168.898438 L 359.796875 169 L 366.398438 169 L 366.398438 181.199219 L 359.597656 181.199219 L 358 181.101563 L 358 196.898438 L 358.097656 203.199219 L 358.296875 209.300781 L 346.097656 209.699219 L 345.898438 203.398438 L 345.796875 196.898438 L 345.796875 180.898438 Z M 405 178 L 404.898438 178.101563 L 401.796875 173.898438 L 397.898438 171.601563 L 393 170.398438 L 388 170.5 L 384.296875 172.699219 L 380.597656 176.601563 L 378.398438 180.800781 L 378.296875 185 L 379.097656 189.398438 L 381.296875 193.101563 L 384.097656 196 L 387.597656 197.699219 L 392.597656 198.699219 L 396.898438 198.398438 L 401 196.699219 L 404.398438 194.398438 L 404.5 190.5 L 405 183.101563 Z M 405.097656 154.5 L 417.296875 154.699219 L 417.199219 161.601563 L 417.199219 183.5 L 416.699219 191.101563 L 416.398438 199.601563 L 416.296875 207.601563 L 416.296875 215.300781 L 404.097656 215.300781 L 404.097656 208.5 L 399.699219 210.199219 L 392 210.898438 L 383.796875 209.300781 L 376.898438 206 L 371.5 200.5 L 367.699219 193.601563 L 366.097656 185.800781 L 366.597656 177.601563 L 370.597656 169.601563 L 376.699219 163.101563 L 384.597656 158.699219 L 394.398438 158.199219 L 402.5 160.398438 L 405 161.800781 L 405 161.601563 Z M 431.199219 179.101563 L 437.300781 179.601563 L 444.300781 179.398438 L 450.097656 178.800781 L 453.5 178.300781 L 453.898438 175.5 L 452.5 171.398438 L 449.597656 167.398438 L 445.800781 165.800781 L 440.898438 165.199219 L 436.699219 166.699219 L 434 169.601563 L 431.699219 174.101563 Z M 431.199219 191.398438 L 431.398438 193.699219 L 432.800781 197.898438 L 435.300781 200.898438 L 440.5 202.300781 L 445.199219 202.699219 L 450.097656 201.199219 L 453.597656 198.601563 L 456.597656 193.601563 L 467 200 L 462.597656 206.800781 L 455.699219 212 L 446.597656 214.898438 L 438.097656 214.300781 L 428.699219 211.101563 L 422.199219 204.101563 L 419.398438 196.101563 L 418.699219 187.300781 L 418.898438 179.199219 L 420.097656 170.699219 L 424 162.601563 L 430.097656 156.5 L 439.300781 153 L 449.199219 154 L 457.199219 158 L 463.300781 165.800781 L 466.097656 175.5 L 462.300781 186.699219 L 452.699219 190.601563 L 445.097656 191.601563 L 437.097656 191.800781 Z M 467.5 161.398438 L 479.699219 162.398438 L 479.398438 166.398438 L 480.199219 165.601563 L 487.796875 161.101563 L 498.796875 161 L 505.296875 167.898438 L 511.199219 163.300781 L 520.097656 160.199219 L 530.796875 163.5 L 536.398438 173.398438 L 537.699219 181.800781 L 538.296875 190 L 538.296875 197.898438 L 537.5 205.800781 L 536.898438 213.199219 L 524.699219 212.199219 L 525.296875 204.601563 L 526.097656 197.300781 L 526.097656 190.398438 L 525.5 183.199219 L 524.796875 177.199219 L 523 172.898438 L 520.5 172.398438 L 517.199219 173.898438 L 512.898438 177.398438 L 508.796875 182.398438 L 508.699219 182.199219 L 508.796875 186.601563 L 508.597656 193.101563 L 508.296875 199.800781 L 507.796875 206.300781 L 495.597656 205.300781 L 496.097656 199 L 496.398438 192.699219 L 496.597656 186.601563 L 496.398438 179.398438 L 495.796875 174.800781 L 494 172.199219 L 491.398438 172.699219 L 487.597656 175.199219 L 483.296875 179.398438 L 479.199219 185.398438 L 478.898438 185.101563 L 478.898438 199 L 479.097656 205.300781 L 479.097656 211.601563 L 466.898438 211.601563 L 466.898438 205.5 L 466.699219 199.199219 L 466.699219 184.300781 L 466.898438 176.800781 L 466.898438 169.101563 Z M 537.199219 213 "/>
</g>
</svg>
