<?xml version="1.0" standalone="no"?>
<!DOCTYPE svg PUBLIC "-//W3C//DTD SVG 1.1//EN"
 "http://www.w3.org/Graphics/SVG/1.1/DTD/svg11.dtd">
<!-- Created with svg_stack (http://github.com/astraw/svg_stack) -->
<svg xmlns="http://www.w3.org/2000/svg" xmlns:sodipodi="http://sodipodi.sourceforge.net/DTD/sodipodi-0.dtd" xmlns:xlink="http://www.w3.org/1999/xlink" version="1.1" width="640.0" height="640.0">
  <defs/>
  <g id="id0:id0" transform="matrix(1.25,0,0,1.25,0.0,0.0)"><g id="id0:surface16">
<path style=" stroke:none;fill-rule:nonzero;fill:rgb(93.72549%,62.352941%,6.666667%);fill-opacity:1;" d="M 294.542969 236.96875 L 564.9375 236.96875 L 564.9375 681.664063 L 294.542969 681.664063 Z M 294.542969 236.96875 "/>
<path style=" stroke:none;fill-rule:nonzero;fill:rgb(36.470588%,25.882353%,23.529412%);fill-opacity:1;" d="M 353.980469 121.898438 L 783.355469 121.898438 L 783.355469 616.136719 L 353.980469 616.136719 Z M 353.980469 121.898438 "/>
<path style="fill:none;stroke-width:0.01;stroke-linecap:butt;stroke-linejoin:miter;stroke:rgb(88.627451%,17.647059%,10.196078%);stroke-opacity:1;stroke-miterlimit:10;" d="M 0.993073 0.411835 L 0.591377 0.521622 L 0.749786 0.648979 L 0.375839 0.72049 Z M 0.993073 0.411835 " transform="matrix(512,0,0,512,0,0)"/>
<path style="fill:none;stroke-width:0.03;stroke-linecap:butt;stroke-linejoin:miter;stroke:rgb(46.666667%,50.196078%,25.098039%);stroke-opacity:1;stroke-miterlimit:10;" d="M 0.813393 0.764626 L 0.735779 0.434601 L 0.283424 0.424873 L 0.441727 0.483093 Z M 0.813393 0.764626 " transform="matrix(512,0,0,512,0,0)"/>
<path style=" stroke:none;fill-rule:nonzero;fill:rgb(0%,0%,0%);fill-opacity:1;" d="M 164.101563 213.601563 C 164.085938 212.890625 163.859375 212.3125 163.425781 211.863281 C 162.984375 211.417969 162.410156 211.164063 161.699219 211.101563 C 160.976563 211.113281 160.363281 211.335938 159.859375 211.773438 C 159.351563 212.210938 159.066406 212.789063 159 213.5 L 158.601563 228.300781 L 158.398438 238.199219 L 158.199219 252.699219 C 158.183594 258.058594 158.429688 262.421875 158.9375 265.789063 C 159.4375 269.160156 160.257813 271.796875 161.398438 273.699219 C 162.664063 276.042969 164.480469 277.917969 166.847656 279.328125 C 169.210938 280.738281 171.730469 281.460938 174.398438 281.5 C 177.6875 281.46875 180.527344 280.53125 182.921875 278.6875 C 185.3125 276.84375 187.003906 274.28125 188 271 L 188.101563 271 C 188.097656 270.960938 188.097656 270.894531 188.101563 270.800781 C 188.097656 270.710938 188.097656 270.546875 188.101563 270.300781 C 188.089844 269.742188 187.929688 269.242188 187.625 268.800781 C 187.3125 268.367188 186.90625 268.066406 186.398438 267.898438 C 185.6875 267.757813 185.058594 267.847656 184.511719 268.175781 C 183.964844 268.503906 183.558594 269.046875 183.300781 269.800781 C 182.65625 271.878906 181.535156 273.523438 179.9375 274.738281 C 178.332031 275.953125 176.488281 276.574219 174.398438 276.601563 C 172.695313 276.570313 171.027344 276.054688 169.398438 275.050781 C 167.769531 274.046875 166.503906 272.730469 165.601563 271.101563 C 164.714844 269.585938 164.082031 267.320313 163.699219 264.300781 C 163.546875 262.152344 163.425781 259.933594 163.335938 257.652344 C 163.246094 255.371094 163.199219 253.054688 163.199219 250.699219 C 163.496094 232.785156 163.796875 220.417969 164.101563 213.601563 Z M 204.800781 269 C 202.894531 266.820313 201.796875 264.085938 201.5 260.800781 L 201.300781 257.5 C 201.359375 252.480469 202.761719 248.222656 205.511719 244.726563 C 208.257813 241.230469 211.988281 238.921875 216.699219 237.800781 C 218.316406 237.316406 220.183594 237.085938 222.300781 237.101563 C 225.894531 237.132813 229.027344 237.953125 231.699219 239.5625 C 234.371094 241.179688 236.304688 243.425781 237.5 246.300781 L 221.5 257.5 C 221.296875 257.585938 221.097656 257.71875 220.902344 257.898438 C 215.480469 261.800781 210.113281 265.503906 204.800781 269 Z M 236.699219 252.898438 L 241.699219 249.5 C 242.5 248.886719 242.902344 248.117188 242.902344 247.199219 C 242.902344 246.957031 242.894531 246.777344 242.886719 246.652344 C 242.871094 246.535156 242.84375 246.449219 242.800781 246.398438 C 241.378906 241.957031 238.839844 238.472656 235.1875 235.949219 C 231.527344 233.429688 227.167969 232.148438 222.101563 232.101563 C 220.398438 232.121094 218.195313 232.386719 215.5 232.898438 C 209.621094 234.386719 204.972656 237.320313 201.550781 241.699219 C 198.125 246.085938 196.375 251.417969 196.300781 257.699219 L 196.5 261.398438 C 197.074219 265.410156 198.449219 268.839844 200.625 271.6875 C 202.796875 274.539063 205.621094 276.742188 209.101563 278.300781 C 212.578125 279.898438 216.3125 280.695313 220.300781 280.699219 C 224.542969 280.675781 228.425781 279.867188 231.949219 278.261719 C 235.46875 276.65625 238.351563 274.367188 240.601563 271.398438 C 241.695313 269.945313 242.570313 268.332031 243.222656 266.550781 C 243.871094 264.777344 244.296875 262.859375 244.5 260.800781 C 244.535156 260.125 244.335938 259.53125 243.902344 259.015625 C 243.460938 258.503906 242.859375 258.230469 242.101563 258.199219 C 241.425781 258.21875 240.84375 258.4375 240.347656 258.851563 C 239.851563 259.273438 239.566406 259.789063 239.5 260.398438 C 238.953125 265.113281 236.945313 268.84375 233.476563 271.589844 C 230 274.339844 225.644531 275.742188 220.402344 275.800781 C 218.246094 275.804688 216.175781 275.53125 214.199219 274.976563 C 212.214844 274.429688 210.351563 273.601563 208.601563 272.5 L 223.800781 261.898438 L 224.402344 261.398438 C 226.546875 259.847656 228.644531 258.355469 230.699219 256.925781 C 232.746094 255.496094 234.746094 254.15625 236.699219 252.898438 Z M 261.601563 231.5 L 254 231.5 C 253.238281 231.519531 252.632813 231.765625 252.1875 232.238281 C 251.734375 232.71875 251.507813 233.339844 251.5 234.101563 C 251.523438 234.78125 251.777344 235.375 252.261719 235.890625 C 252.746094 236.40625 253.324219 236.675781 254 236.699219 L 263.101563 236.699219 L 263 246.601563 C 262.980469 255.320313 263.3125 261.488281 264 265.101563 C 264.585938 268.851563 265.609375 271.832031 267.0625 274.039063 C 268.515625 276.25 270.460938 278.003906 272.898438 279.300781 C 274.144531 279.953125 275.402344 280.445313 276.675781 280.785156 C 277.945313 281.125 279.253906 281.296875 280.601563 281.300781 C 284.046875 281.273438 287.046875 280.375 289.597656 278.601563 C 292.148438 276.828125 293.949219 274.328125 295 271.101563 L 295.199219 270.199219 C 295.191406 269.640625 295.027344 269.140625 294.710938 268.699219 C 294.390625 268.265625 293.953125 267.964844 293.398438 267.800781 L 292.601563 267.601563 C 292.128906 267.609375 291.667969 267.773438 291.222656 268.089844 C 290.773438 268.410156 290.46875 268.847656 290.300781 269.398438 C 289.511719 271.570313 288.253906 273.242188 286.535156 274.414063 C 284.808594 275.59375 282.832031 276.1875 280.601563 276.199219 C 278.746094 276.167969 276.949219 275.660156 275.210938 274.675781 C 273.46875 273.695313 272.097656 272.4375 271.101563 270.898438 C 270.640625 270.15625 270.222656 269.226563 269.847656 268.113281 C 269.464844 267.003906 269.148438 265.699219 268.898438 264.199219 C 268.378906 260.304688 268.113281 254.003906 268.101563 245.300781 L 268.101563 236.800781 C 269.515625 236.886719 272.984375 236.917969 278.5 236.898438 C 279.265625 236.886719 279.886719 236.644531 280.363281 236.164063 C 280.839844 235.6875 281.085938 235.066406 281.101563 234.300781 C 281.078125 233.628906 280.820313 233.03125 280.335938 232.515625 C 279.847656 232 279.269531 231.730469 278.601563 231.699219 C 272.996094 231.722656 269.496094 231.6875 268.101563 231.601563 L 268.101563 228 C 268.179688 226.503906 268.214844 222.402344 268.199219 215.699219 C 268.179688 214.9375 267.941406 214.320313 267.488281 213.839844 C 267.03125 213.363281 266.46875 213.117188 265.800781 213.101563 C 265.03125 213.113281 264.410156 213.34375 263.9375 213.800781 C 263.457031 214.261719 263.210938 214.894531 263.199219 215.699219 C 263.214844 222.402344 263.183594 226.503906 263.101563 228 L 263.101563 231.5 Z M 312 233.898438 C 311.976563 233.222656 311.742188 232.628906 311.296875 232.113281 C 310.847656 231.601563 310.316406 231.332031 309.699219 231.300781 C 308.9375 231.332031 308.332031 231.601563 307.886719 232.113281 C 307.433594 232.628906 307.207031 233.222656 307.199219 233.898438 C 307.195313 234.554688 307.199219 235.097656 307.210938 235.527344 C 307.21875 235.957031 307.246094 236.25 307.300781 236.398438 L 307.300781 238.800781 L 307.097656 242.898438 L 307.097656 243.398438 C 307.097656 243.65625 307.144531 243.898438 307.234375 244.125 C 307.324219 244.355469 307.445313 244.546875 307.597656 244.699219 C 307.996094 245.386719 308.59375 245.71875 309.398438 245.699219 C 309.957031 245.691406 310.457031 245.515625 310.898438 245.164063 C 311.332031 244.820313 311.632813 244.363281 311.800781 243.800781 C 311.910156 243.300781 311.976563 242.5 312 241.398438 L 312.300781 241.398438 C 315.796875 240.054688 318.925781 239.046875 321.6875 238.375 C 324.445313 237.703125 326.847656 237.347656 328.898438 237.300781 C 332.820313 237.277344 335.777344 238.28125 337.761719 240.3125 C 339.746094 242.351563 340.925781 245.578125 341.300781 250 C 339.800781 248.800781 338.597656 248.003906 337.699219 247.601563 C 336.25 246.90625 334.691406 246.378906 333.023438 246.027344 C 331.351563 245.675781 329.542969 245.5 327.597656 245.5 C 322.800781 245.53125 318.566406 246.394531 314.886719 248.089844 C 311.203125 249.785156 308.339844 252.125 306.300781 255.101563 C 305.25 256.558594 304.46875 258.097656 303.960938 259.726563 C 303.445313 261.355469 303.191406 263.046875 303.199219 264.800781 C 303.210938 267.785156 304.007813 270.519531 305.585938 273 C 307.160156 275.488281 309.429688 277.523438 312.398438 279.101563 C 315.296875 280.703125 318.597656 281.5 322.300781 281.5 C 325.214844 281.503906 328.007813 281.113281 330.675781 280.335938 C 333.339844 279.554688 336.082031 278.347656 338.898438 276.699219 C 338.953125 276.660156 339.292969 276.476563 339.921875 276.152344 C 340.550781 275.832031 341.441406 275.347656 342.597656 274.699219 C 343.550781 275.964844 345.058594 277.117188 347.121094 278.152344 C 349.175781 279.191406 351.136719 279.738281 353 279.800781 C 353.660156 279.785156 354.207031 279.539063 354.636719 279.0625 C 355.0625 278.585938 355.28125 277.964844 355.300781 277.199219 C 355.28125 276.632813 355.0625 276.148438 354.636719 275.738281 C 354.207031 275.335938 353.660156 275.121094 353 275.101563 C 351.71875 275.023438 350.300781 274.554688 348.75 273.6875 C 347.191406 272.828125 346.277344 272.03125 346 271.300781 C 345.996094 271.054688 345.972656 270.796875 345.9375 270.523438 C 345.894531 270.257813 345.851563 269.949219 345.800781 269.601563 C 345.714844 269.488281 345.679688 268.722656 345.699219 267.300781 C 345.710938 265.105469 345.878906 260.902344 346.199219 254.699219 C 346.242188 249.945313 345.777344 246.035156 344.8125 242.964844 C 343.839844 239.898438 342.101563 237.410156 339.597656 235.5 C 337.078125 233.585938 333.714844 232.621094 329.5 232.601563 C 325 232.621094 319.199219 233.886719 312.097656 236.398438 L 312.097656 236.300781 C 312.011719 236.003906 311.976563 235.203125 312 233.898438 Z M 341.199219 260.800781 C 340.996094 264.019531 340.894531 266.1875 340.898438 267.300781 C 340.878906 268.703125 340.914063 269.5 341 269.699219 L 339.898438 270.601563 C 339.148438 271.054688 338.496094 271.449219 337.9375 271.777344 C 337.375 272.109375 336.894531 272.347656 336.5 272.5 C 331.980469 275.21875 327.214844 276.585938 322.199219 276.601563 C 317.933594 276.546875 314.53125 275.460938 311.996094 273.339844 C 309.457031 271.222656 308.15625 268.410156 308.097656 264.898438 C 308.105469 262.226563 308.910156 259.800781 310.511719 257.625 C 312.105469 255.453125 314.4375 253.679688 317.5 252.300781 C 320.5 250.988281 324 250.320313 328 250.300781 C 336.296875 250.304688 340.695313 253.804688 341.199219 260.800781 Z M 370.800781 269 C 368.894531 266.820313 367.796875 264.085938 367.5 260.800781 L 367.300781 257.5 C 367.359375 252.480469 368.761719 248.222656 371.511719 244.726563 C 374.257813 241.230469 377.988281 238.921875 382.699219 237.800781 C 384.316406 237.316406 386.183594 237.085938 388.300781 237.101563 C 391.894531 237.132813 395.027344 237.953125 397.699219 239.5625 C 400.371094 241.179688 402.304688 243.425781 403.5 246.300781 L 387.5 257.5 C 387.296875 257.585938 387.097656 257.71875 386.902344 257.898438 C 381.480469 261.800781 376.113281 265.503906 370.800781 269 Z M 402.699219 252.898438 L 407.699219 249.5 C 408.5 248.886719 408.902344 248.117188 408.902344 247.199219 C 408.902344 246.957031 408.894531 246.777344 408.886719 246.652344 C 408.871094 246.535156 408.84375 246.449219 408.800781 246.398438 C 407.378906 241.957031 404.839844 238.472656 401.1875 235.949219 C 397.527344 233.429688 393.167969 232.148438 388.101563 232.101563 C 386.398438 232.121094 384.195313 232.386719 381.5 232.898438 C 375.621094 234.386719 370.972656 237.320313 367.550781 241.699219 C 364.125 246.085938 362.375 251.417969 362.300781 257.699219 L 362.5 261.398438 C 363.074219 265.410156 364.449219 268.839844 366.625 271.6875 C 368.796875 274.539063 371.621094 276.742188 375.101563 278.300781 C 378.578125 279.898438 382.3125 280.695313 386.300781 280.699219 C 390.542969 280.675781 394.425781 279.867188 397.949219 278.261719 C 401.46875 276.65625 404.351563 274.367188 406.601563 271.398438 C 407.695313 269.945313 408.570313 268.332031 409.222656 266.550781 C 409.871094 264.777344 410.296875 262.859375 410.5 260.800781 C 410.535156 260.125 410.335938 259.53125 409.902344 259.015625 C 409.460938 258.503906 408.859375 258.230469 408.101563 258.199219 C 407.425781 258.21875 406.84375 258.4375 406.347656 258.851563 C 405.851563 259.273438 405.566406 259.789063 405.5 260.398438 C 404.953125 265.113281 402.945313 268.84375 399.476563 271.589844 C 396 274.339844 391.644531 275.742188 386.402344 275.800781 C 384.246094 275.804688 382.175781 275.53125 380.199219 274.976563 C 378.214844 274.429688 376.351563 273.601563 374.601563 272.5 L 389.800781 261.898438 L 390.402344 261.398438 C 392.546875 259.847656 394.644531 258.355469 396.699219 256.925781 C 398.746094 255.496094 400.746094 254.15625 402.699219 252.898438 Z M 420.898438 231 C 420.226563 231.027344 419.644531 231.28125 419.160156 231.765625 C 418.671875 232.25 418.417969 232.828125 418.398438 233.5 C 418.417969 234.171875 418.671875 234.753906 419.160156 235.238281 C 419.644531 235.726563 420.226563 235.980469 420.898438 236 L 424.101563 236 C 424.097656 240.804688 423.996094 247.304688 423.800781 255.5 L 423.601563 274.800781 L 420.5 274.800781 C 419.738281 274.828125 419.132813 275.082031 418.6875 275.5625 C 418.238281 276.050781 418.007813 276.628906 418 277.300781 C 418.007813 277.976563 418.238281 278.554688 418.6875 279.039063 C 419.132813 279.523438 419.738281 279.777344 420.5 279.800781 C 423.617188 279.785156 425.582031 279.820313 426.398438 279.898438 L 432.398438 279.898438 C 433.070313 279.882813 433.648438 279.628906 434.136719 279.140625 C 434.621094 278.65625 434.875 278.074219 434.898438 277.398438 C 434.875 276.726563 434.621094 276.148438 434.136719 275.664063 C 433.648438 275.179688 433.070313 274.925781 432.398438 274.898438 L 428.601563 274.898438 L 428.699219 261.601563 C 428.746094 261.445313 428.777344 261.054688 428.789063 260.425781 C 428.796875 259.796875 428.800781 258.953125 428.800781 257.898438 C 430.1875 255.097656 432.207031 252.128906 434.859375 248.984375 C 437.511719 245.847656 440.460938 243.15625 443.703125 240.914063 C 446.945313 238.675781 450.144531 237.503906 453.300781 237.398438 C 456.214844 237.386719 458.480469 238.71875 460.101563 241.398438 C 462.613281 245.917969 463.878906 253.1875 463.898438 263.199219 L 463.699219 271 L 463.601563 275.300781 L 459.199219 275.300781 C 458.523438 275.324219 457.945313 275.578125 457.460938 276.0625 C 456.976563 276.546875 456.722656 277.128906 456.699219 277.800781 C 456.722656 278.476563 456.976563 279.054688 457.460938 279.539063 C 457.945313 280.023438 458.523438 280.273438 459.199219 280.300781 L 471.601563 280.300781 C 472.359375 280.273438 472.964844 280.023438 473.414063 279.539063 C 473.859375 279.054688 474.089844 278.476563 474.101563 277.800781 C 474.089844 277.128906 473.859375 276.546875 473.414063 276.0625 C 472.964844 275.578125 472.359375 275.324219 471.601563 275.300781 L 468.601563 275.300781 L 468.699219 271.101563 L 468.898438 263.398438 L 468.699219 257.300781 C 470.984375 253.257813 473.6875 249.695313 476.8125 246.613281 C 479.933594 243.535156 482.960938 241.199219 485.898438 239.601563 C 488.679688 238.085938 491.214844 237.320313 493.5 237.300781 C 498.714844 237.320313 502.082031 241.683594 503.601563 250.398438 C 503.847656 252.453125 504.042969 254.546875 504.1875 256.675781 C 504.324219 258.804688 504.394531 260.945313 504.398438 263.101563 L 504.199219 270.800781 L 504.101563 274.898438 C 503.617188 274.816406 502.183594 274.785156 499.800781 274.800781 C 499.039063 274.816406 498.433594 275.042969 497.988281 275.488281 C 497.539063 275.9375 497.308594 276.542969 497.300781 277.300781 C 497.308594 278.066406 497.539063 278.6875 497.988281 279.164063 C 498.433594 279.644531 499.039063 279.890625 499.800781 279.898438 L 511.699219 280 C 512.371094 279.976563 512.949219 279.707031 513.4375 279.1875 C 513.917969 278.675781 514.171875 278.078125 514.199219 277.398438 C 514.171875 276.734375 513.917969 276.175781 513.4375 275.714844 C 512.949219 275.261719 512.371094 275.023438 511.699219 275 C 510.953125 275.007813 510.371094 275.003906 509.949219 274.988281 C 509.527344 274.980469 509.242188 274.949219 509.101563 274.898438 L 509.199219 271 L 509.398438 262.898438 L 509.199219 256.5 C 507.980469 240.300781 502.914063 232.199219 494 232.199219 C 492.214844 232.183594 490.582031 232.417969 489.101563 232.898438 C 485.351563 233.957031 481.699219 235.875 478.148438 238.652344 C 474.597656 241.433594 471.148438 245.050781 467.800781 249.5 C 465.914063 238.019531 461.179688 232.285156 453.601563 232.300781 C 450.578125 232.375 447.496094 233.203125 444.351563 234.789063 C 441.203125 236.375 438.417969 238.28125 436 240.5 C 433.613281 242.703125 431.28125 245.300781 429 248.300781 C 429.042969 247.65625 429.070313 246.324219 429.085938 244.300781 C 429.09375 242.28125 429.101563 239.546875 429.101563 236.101563 L 432.101563 236.101563 C 432.859375 236.078125 433.460938 235.824219 433.914063 235.339844 C 434.359375 234.855469 434.589844 234.277344 434.601563 233.601563 C 434.589844 232.929688 434.359375 232.351563 433.914063 231.863281 C 433.460938 231.378906 432.859375 231.125 432.101563 231.101563 L 426.5 231.101563 C 425.78125 231.023438 423.914063 230.988281 420.898438 231 Z M 517.699219 280 "/>
</g>
</g>
  <g id="id1:id1" transform="matrix(1.0,0,0,1.0,128.0,64.0)"><path d="M468.752 199.264C458.231 206.706 441.992 204.943 423.67 194.862C405.481 184.854 385.876 166.95 369.268 143.47C352.66 119.991 342.307 95.5424 338.928 75.0588C335.525 54.4252 339.271 38.5262 349.792 31.0842C360.313 23.6423 376.552 25.4049 394.874 35.486C413.063 45.4937 432.668 63.398 449.276 86.8775C465.884 110.357 476.237 134.806 479.616 155.289C483.02 175.923 479.273 191.822 468.752 199.264Z" fill="white" fill-opacity="0.01" stroke="black" stroke-width="4"/>
</g>
</svg>
