<?xml version="1.0" encoding="UTF-8"?>
<svg xmlns="http://www.w3.org/2000/svg" xmlns:xlink="http://www.w3.org/1999/xlink" width="512pt" height="512pt" viewBox="0 0 512 512" version="1.1">
<defs>
<linearGradient id="linear0" gradientUnits="userSpaceOnUse" x1="89" y1="240" x2="500" y2="500" >
<stop offset="0" style="stop-color:rgb(92.54902%,6.666667%,100%);stop-opacity:1;"/>
<stop offset="0.5" style="stop-color:rgb(1.960784%,0%,100%);stop-opacity:1;"/>
</linearGradient>
</defs>
<g id="surface21">
<path style=" stroke:none;fill-rule:nonzero;fill:rgb(100%,33.333333%,0.784314%);fill-opacity:1;" d="M 181.140625 284.578125 L 365.851563 284.578125 L 365.851563 1163.34375 L 181.140625 1163.34375 Z M 181.140625 284.578125 "/>
<path style=" stroke:none;fill-rule:nonzero;fill:rgb(96.078431%,95.686275%,96.470588%);fill-opacity:1;" d="M 119.046875 412.476563 L 5.234375 412.476563 L 5.234375 1040.035156 L 119.046875 1040.035156 Z M 119.046875 412.476563 "/>
<path style=" stroke:none;fill-rule:nonzero;fill:url(#linear0);" d="M 100.101563 173.601563 C 100.085938 172.890625 99.859375 172.3125 99.425781 171.863281 C 98.984375 171.417969 98.410156 171.164063 97.699219 171.101563 C 96.976563 171.113281 96.363281 171.335938 95.859375 171.773438 C 95.351563 172.210938 95.066406 172.789063 95 173.5 L 94.601563 188.300781 L 94.398438 198.199219 L 94.199219 212.699219 C 94.183594 218.058594 94.429688 222.421875 94.9375 225.789063 C 95.4375 229.160156 96.257813 231.796875 97.398438 233.699219 C 98.664063 236.042969 100.480469 237.917969 102.847656 239.328125 C 105.210938 240.738281 107.730469 241.460938 110.398438 241.5 C 113.6875 241.46875 116.527344 240.53125 118.921875 238.6875 C 121.3125 236.84375 123.003906 234.28125 124 231 L 124.101563 231 C 124.097656 230.960938 124.097656 230.894531 124.101563 230.800781 C 124.097656 230.710938 124.097656 230.546875 124.101563 230.300781 C 124.089844 229.742188 123.929688 229.242188 123.625 228.800781 C 123.3125 228.367188 122.90625 228.066406 122.398438 227.898438 C 121.6875 227.757813 121.058594 227.847656 120.511719 228.175781 C 119.964844 228.503906 119.558594 229.046875 119.300781 229.800781 C 118.65625 231.878906 117.535156 233.523438 115.9375 234.738281 C 114.332031 235.953125 112.488281 236.574219 110.398438 236.601563 C 108.695313 236.570313 107.027344 236.054688 105.398438 235.050781 C 103.769531 234.046875 102.503906 232.730469 101.601563 231.101563 C 100.714844 229.585938 100.082031 227.320313 99.699219 224.300781 C 99.546875 222.152344 99.425781 219.933594 99.335938 217.652344 C 99.246094 215.371094 99.199219 213.054688 99.199219 210.699219 C 99.496094 192.785156 99.796875 180.417969 100.101563 173.601563 Z M 140.800781 229 C 138.894531 226.820313 137.796875 224.085938 137.5 220.800781 L 137.300781 217.5 C 137.359375 212.480469 138.761719 208.222656 141.511719 204.726563 C 144.257813 201.230469 147.988281 198.921875 152.699219 197.800781 C 154.316406 197.316406 156.183594 197.085938 158.300781 197.101563 C 161.894531 197.132813 165.027344 197.953125 167.699219 199.5625 C 170.371094 201.179688 172.304688 203.425781 173.5 206.300781 L 157.5 217.5 C 157.296875 217.585938 157.097656 217.71875 156.902344 217.898438 C 151.480469 221.800781 146.113281 225.503906 140.800781 229 Z M 172.699219 212.898438 L 177.699219 209.5 C 178.5 208.886719 178.902344 208.117188 178.902344 207.199219 C 178.902344 206.957031 178.894531 206.777344 178.886719 206.652344 C 178.871094 206.535156 178.84375 206.449219 178.800781 206.398438 C 177.378906 201.957031 174.839844 198.472656 171.1875 195.949219 C 167.527344 193.429688 163.167969 192.148438 158.101563 192.101563 C 156.398438 192.121094 154.195313 192.386719 151.5 192.898438 C 145.621094 194.386719 140.972656 197.320313 137.550781 201.699219 C 134.125 206.085938 132.375 211.417969 132.300781 217.699219 L 132.5 221.398438 C 133.074219 225.410156 134.449219 228.839844 136.625 231.6875 C 138.796875 234.539063 141.621094 236.742188 145.101563 238.300781 C 148.578125 239.898438 152.3125 240.695313 156.300781 240.699219 C 160.542969 240.675781 164.425781 239.867188 167.949219 238.261719 C 171.46875 236.65625 174.351563 234.367188 176.601563 231.398438 C 177.695313 229.945313 178.570313 228.332031 179.222656 226.550781 C 179.871094 224.777344 180.296875 222.859375 180.5 220.800781 C 180.535156 220.125 180.335938 219.53125 179.902344 219.015625 C 179.460938 218.503906 178.859375 218.230469 178.101563 218.199219 C 177.425781 218.21875 176.84375 218.4375 176.347656 218.851563 C 175.851563 219.273438 175.566406 219.789063 175.5 220.398438 C 174.953125 225.113281 172.945313 228.84375 169.476563 231.589844 C 166 234.339844 161.644531 235.742188 156.402344 235.800781 C 154.246094 235.804688 152.175781 235.53125 150.199219 234.976563 C 148.214844 234.429688 146.351563 233.601563 144.601563 232.5 L 159.800781 221.898438 L 160.402344 221.398438 C 162.546875 219.847656 164.644531 218.355469 166.699219 216.925781 C 168.746094 215.496094 170.746094 214.15625 172.699219 212.898438 Z M 197.601563 191.5 L 190 191.5 C 189.238281 191.519531 188.632813 191.765625 188.1875 192.238281 C 187.734375 192.71875 187.507813 193.339844 187.5 194.101563 C 187.523438 194.78125 187.777344 195.375 188.261719 195.890625 C 188.746094 196.40625 189.324219 196.675781 190 196.699219 L 199.101563 196.699219 L 199 206.601563 C 198.980469 215.320313 199.3125 221.488281 200 225.101563 C 200.585938 228.851563 201.609375 231.832031 203.0625 234.039063 C 204.515625 236.25 206.460938 238.003906 208.898438 239.300781 C 210.144531 239.953125 211.402344 240.445313 212.675781 240.785156 C 213.945313 241.125 215.253906 241.296875 216.601563 241.300781 C 220.046875 241.273438 223.046875 240.375 225.597656 238.601563 C 228.148438 236.828125 229.949219 234.328125 231 231.101563 L 231.199219 230.199219 C 231.191406 229.640625 231.027344 229.140625 230.710938 228.699219 C 230.390625 228.265625 229.953125 227.964844 229.398438 227.800781 L 228.601563 227.601563 C 228.128906 227.609375 227.667969 227.773438 227.222656 228.089844 C 226.773438 228.410156 226.46875 228.847656 226.300781 229.398438 C 225.511719 231.570313 224.253906 233.242188 222.535156 234.414063 C 220.808594 235.59375 218.832031 236.1875 216.601563 236.199219 C 214.746094 236.167969 212.949219 235.660156 211.210938 234.675781 C 209.46875 233.695313 208.097656 232.4375 207.101563 230.898438 C 206.640625 230.15625 206.222656 229.226563 205.847656 228.113281 C 205.464844 227.003906 205.148438 225.699219 204.898438 224.199219 C 204.378906 220.304688 204.113281 214.003906 204.101563 205.300781 L 204.101563 196.800781 C 205.515625 196.886719 208.984375 196.917969 214.5 196.898438 C 215.265625 196.886719 215.886719 196.644531 216.363281 196.164063 C 216.839844 195.6875 217.085938 195.066406 217.101563 194.300781 C 217.078125 193.628906 216.820313 193.03125 216.335938 192.515625 C 215.847656 192 215.269531 191.730469 214.601563 191.699219 C 208.996094 191.722656 205.496094 191.6875 204.101563 191.601563 L 204.101563 188 C 204.179688 186.503906 204.214844 182.402344 204.199219 175.699219 C 204.179688 174.9375 203.941406 174.320313 203.488281 173.839844 C 203.03125 173.363281 202.46875 173.117188 201.800781 173.101563 C 201.03125 173.113281 200.410156 173.34375 199.9375 173.800781 C 199.457031 174.261719 199.210938 174.894531 199.199219 175.699219 C 199.214844 182.402344 199.183594 186.503906 199.101563 188 L 199.101563 191.5 Z M 248 193.898438 C 247.976563 193.222656 247.742188 192.628906 247.296875 192.113281 C 246.847656 191.601563 246.316406 191.332031 245.699219 191.300781 C 244.9375 191.332031 244.332031 191.601563 243.886719 192.113281 C 243.433594 192.628906 243.207031 193.222656 243.199219 193.898438 C 243.195313 194.554688 243.199219 195.097656 243.210938 195.527344 C 243.21875 195.957031 243.246094 196.25 243.300781 196.398438 L 243.300781 198.800781 L 243.097656 202.898438 L 243.097656 203.398438 C 243.097656 203.65625 243.144531 203.898438 243.234375 204.125 C 243.324219 204.355469 243.445313 204.546875 243.597656 204.699219 C 243.996094 205.386719 244.59375 205.71875 245.398438 205.699219 C 245.957031 205.691406 246.457031 205.515625 246.898438 205.164063 C 247.332031 204.820313 247.632813 204.363281 247.800781 203.800781 C 247.910156 203.300781 247.976563 202.5 248 201.398438 L 248.300781 201.398438 C 251.796875 200.054688 254.925781 199.046875 257.6875 198.375 C 260.445313 197.703125 262.847656 197.347656 264.898438 197.300781 C 268.820313 197.277344 271.777344 198.28125 273.761719 200.3125 C 275.746094 202.351563 276.925781 205.578125 277.300781 210 C 275.800781 208.800781 274.597656 208.003906 273.699219 207.601563 C 272.25 206.90625 270.691406 206.378906 269.023438 206.027344 C 267.351563 205.675781 265.542969 205.5 263.597656 205.5 C 258.800781 205.53125 254.566406 206.394531 250.886719 208.089844 C 247.203125 209.785156 244.339844 212.125 242.300781 215.101563 C 241.25 216.558594 240.46875 218.097656 239.960938 219.726563 C 239.445313 221.355469 239.191406 223.046875 239.199219 224.800781 C 239.210938 227.785156 240.007813 230.519531 241.585938 233 C 243.160156 235.488281 245.429688 237.523438 248.398438 239.101563 C 251.296875 240.703125 254.597656 241.5 258.300781 241.5 C 261.214844 241.503906 264.007813 241.113281 266.675781 240.335938 C 269.339844 239.554688 272.082031 238.347656 274.898438 236.699219 C 274.953125 236.660156 275.292969 236.476563 275.921875 236.152344 C 276.550781 235.832031 277.441406 235.347656 278.597656 234.699219 C 279.550781 235.964844 281.058594 237.117188 283.121094 238.152344 C 285.175781 239.191406 287.136719 239.738281 289 239.800781 C 289.660156 239.785156 290.207031 239.539063 290.636719 239.0625 C 291.0625 238.585938 291.28125 237.964844 291.300781 237.199219 C 291.28125 236.632813 291.0625 236.148438 290.636719 235.738281 C 290.207031 235.335938 289.660156 235.121094 289 235.101563 C 287.71875 235.023438 286.300781 234.554688 284.75 233.6875 C 283.191406 232.828125 282.277344 232.03125 282 231.300781 C 281.996094 231.054688 281.972656 230.796875 281.9375 230.523438 C 281.894531 230.257813 281.851563 229.949219 281.800781 229.601563 C 281.714844 229.488281 281.679688 228.722656 281.699219 227.300781 C 281.710938 225.105469 281.878906 220.902344 282.199219 214.699219 C 282.242188 209.945313 281.777344 206.035156 280.8125 202.964844 C 279.839844 199.898438 278.101563 197.410156 275.597656 195.5 C 273.078125 193.585938 269.714844 192.621094 265.5 192.601563 C 261 192.621094 255.199219 193.886719 248.097656 196.398438 L 248.097656 196.300781 C 248.011719 196.003906 247.976563 195.203125 248 193.898438 Z M 277.199219 220.800781 C 276.996094 224.019531 276.894531 226.1875 276.898438 227.300781 C 276.878906 228.703125 276.914063 229.5 277 229.699219 L 275.898438 230.601563 C 275.148438 231.054688 274.496094 231.449219 273.9375 231.777344 C 273.375 232.109375 272.894531 232.347656 272.5 232.5 C 267.980469 235.21875 263.214844 236.585938 258.199219 236.601563 C 253.933594 236.546875 250.53125 235.460938 247.996094 233.339844 C 245.457031 231.222656 244.15625 228.410156 244.097656 224.898438 C 244.105469 222.226563 244.910156 219.800781 246.511719 217.625 C 248.105469 215.453125 250.4375 213.679688 253.5 212.300781 C 256.5 210.988281 260 210.320313 264 210.300781 C 272.296875 210.304688 276.695313 213.804688 277.199219 220.800781 Z M 306.800781 229 C 304.894531 226.820313 303.796875 224.085938 303.5 220.800781 L 303.300781 217.5 C 303.359375 212.480469 304.761719 208.222656 307.511719 204.726563 C 310.257813 201.230469 313.988281 198.921875 318.699219 197.800781 C 320.316406 197.316406 322.183594 197.085938 324.300781 197.101563 C 327.894531 197.132813 331.027344 197.953125 333.699219 199.5625 C 336.371094 201.179688 338.304688 203.425781 339.5 206.300781 L 323.5 217.5 C 323.296875 217.585938 323.097656 217.71875 322.902344 217.898438 C 317.480469 221.800781 312.113281 225.503906 306.800781 229 Z M 338.699219 212.898438 L 343.699219 209.5 C 344.5 208.886719 344.902344 208.117188 344.902344 207.199219 C 344.902344 206.957031 344.894531 206.777344 344.886719 206.652344 C 344.871094 206.535156 344.84375 206.449219 344.800781 206.398438 C 343.378906 201.957031 340.839844 198.472656 337.1875 195.949219 C 333.527344 193.429688 329.167969 192.148438 324.101563 192.101563 C 322.398438 192.121094 320.195313 192.386719 317.5 192.898438 C 311.621094 194.386719 306.972656 197.320313 303.550781 201.699219 C 300.125 206.085938 298.375 211.417969 298.300781 217.699219 L 298.5 221.398438 C 299.074219 225.410156 300.449219 228.839844 302.625 231.6875 C 304.796875 234.539063 307.621094 236.742188 311.101563 238.300781 C 314.578125 239.898438 318.3125 240.695313 322.300781 240.699219 C 326.542969 240.675781 330.425781 239.867188 333.949219 238.261719 C 337.46875 236.65625 340.351563 234.367188 342.601563 231.398438 C 343.695313 229.945313 344.570313 228.332031 345.222656 226.550781 C 345.871094 224.777344 346.296875 222.859375 346.5 220.800781 C 346.535156 220.125 346.335938 219.53125 345.902344 219.015625 C 345.460938 218.503906 344.859375 218.230469 344.101563 218.199219 C 343.425781 218.21875 342.84375 218.4375 342.347656 218.851563 C 341.851563 219.273438 341.566406 219.789063 341.5 220.398438 C 340.953125 225.113281 338.945313 228.84375 335.476563 231.589844 C 332 234.339844 327.644531 235.742188 322.402344 235.800781 C 320.246094 235.804688 318.175781 235.53125 316.199219 234.976563 C 314.214844 234.429688 312.351563 233.601563 310.601563 232.5 L 325.800781 221.898438 L 326.402344 221.398438 C 328.546875 219.847656 330.644531 218.355469 332.699219 216.925781 C 334.746094 215.496094 336.746094 214.15625 338.699219 212.898438 Z M 356.898438 191 C 356.226563 191.027344 355.644531 191.28125 355.160156 191.765625 C 354.671875 192.25 354.417969 192.828125 354.398438 193.5 C 354.417969 194.171875 354.671875 194.753906 355.160156 195.238281 C 355.644531 195.726563 356.226563 195.980469 356.898438 196 L 360.101563 196 C 360.097656 200.804688 359.996094 207.304688 359.800781 215.5 L 359.601563 234.800781 L 356.5 234.800781 C 355.738281 234.828125 355.132813 235.082031 354.6875 235.5625 C 354.238281 236.050781 354.007813 236.628906 354 237.300781 C 354.007813 237.976563 354.238281 238.554688 354.6875 239.039063 C 355.132813 239.523438 355.738281 239.777344 356.5 239.800781 C 359.617188 239.785156 361.582031 239.820313 362.398438 239.898438 L 368.398438 239.898438 C 369.070313 239.882813 369.648438 239.628906 370.136719 239.140625 C 370.621094 238.65625 370.875 238.074219 370.898438 237.398438 C 370.875 236.726563 370.621094 236.148438 370.136719 235.664063 C 369.648438 235.179688 369.070313 234.925781 368.398438 234.898438 L 364.601563 234.898438 L 364.699219 221.601563 C 364.746094 221.445313 364.777344 221.054688 364.789063 220.425781 C 364.796875 219.796875 364.800781 218.953125 364.800781 217.898438 C 366.1875 215.097656 368.207031 212.128906 370.859375 208.984375 C 373.511719 205.847656 376.460938 203.15625 379.703125 200.914063 C 382.945313 198.675781 386.144531 197.503906 389.300781 197.398438 C 392.214844 197.386719 394.480469 198.71875 396.101563 201.398438 C 398.613281 205.917969 399.878906 213.1875 399.898438 223.199219 L 399.699219 231 L 399.601563 235.300781 L 395.199219 235.300781 C 394.523438 235.324219 393.945313 235.578125 393.460938 236.0625 C 392.976563 236.546875 392.722656 237.128906 392.699219 237.800781 C 392.722656 238.476563 392.976563 239.054688 393.460938 239.539063 C 393.945313 240.023438 394.523438 240.273438 395.199219 240.300781 L 407.601563 240.300781 C 408.359375 240.273438 408.964844 240.023438 409.414063 239.539063 C 409.859375 239.054688 410.089844 238.476563 410.101563 237.800781 C 410.089844 237.128906 409.859375 236.546875 409.414063 236.0625 C 408.964844 235.578125 408.359375 235.324219 407.601563 235.300781 L 404.601563 235.300781 L 404.699219 231.101563 L 404.898438 223.398438 L 404.699219 217.300781 C 406.984375 213.257813 409.6875 209.695313 412.8125 206.613281 C 415.933594 203.535156 418.960938 201.199219 421.898438 199.601563 C 424.679688 198.085938 427.214844 197.320313 429.5 197.300781 C 434.714844 197.320313 438.082031 201.683594 439.601563 210.398438 C 439.847656 212.453125 440.042969 214.546875 440.1875 216.675781 C 440.324219 218.804688 440.394531 220.945313 440.398438 223.101563 L 440.199219 230.800781 L 440.101563 234.898438 C 439.617188 234.816406 438.183594 234.785156 435.800781 234.800781 C 435.039063 234.816406 434.433594 235.042969 433.988281 235.488281 C 433.539063 235.9375 433.308594 236.542969 433.300781 237.300781 C 433.308594 238.066406 433.539063 238.6875 433.988281 239.164063 C 434.433594 239.644531 435.039063 239.890625 435.800781 239.898438 L 447.699219 240 C 448.371094 239.976563 448.949219 239.707031 449.4375 239.1875 C 449.917969 238.675781 450.171875 238.078125 450.199219 237.398438 C 450.171875 236.734375 449.917969 236.175781 449.4375 235.714844 C 448.949219 235.261719 448.371094 235.023438 447.699219 235 C 446.953125 235.007813 446.371094 235.003906 445.949219 234.988281 C 445.527344 234.980469 445.242188 234.949219 445.101563 234.898438 L 445.199219 231 L 445.398438 222.898438 L 445.199219 216.5 C 443.980469 200.300781 438.914063 192.199219 430 192.199219 C 428.214844 192.183594 426.582031 192.417969 425.101563 192.898438 C 421.351563 193.957031 417.699219 195.875 414.148438 198.652344 C 410.597656 201.433594 407.148438 205.050781 403.800781 209.5 C 401.914063 198.019531 397.179688 192.285156 389.601563 192.300781 C 386.578125 192.375 383.496094 193.203125 380.351563 194.789063 C 377.203125 196.375 374.417969 198.28125 372 200.5 C 369.613281 202.703125 367.28125 205.300781 365 208.300781 C 365.042969 207.65625 365.070313 206.324219 365.085938 204.300781 C 365.09375 202.28125 365.101563 199.546875 365.101563 196.101563 L 368.101563 196.101563 C 368.859375 196.078125 369.460938 195.824219 369.914063 195.339844 C 370.359375 194.855469 370.589844 194.277344 370.601563 193.601563 C 370.589844 192.929688 370.359375 192.351563 369.914063 191.863281 C 369.460938 191.378906 368.859375 191.125 368.101563 191.101563 L 362.5 191.101563 C 361.78125 191.023438 359.914063 190.988281 356.898438 191 Z M 453.699219 240 "/>
</g>
</svg>
