<?xml version="1.0" standalone="no"?>
<!DOCTYPE svg PUBLIC "-//W3C//DTD SVG 1.1//EN"
 "http://www.w3.org/Graphics/SVG/1.1/DTD/svg11.dtd">
<!-- Created with svg_stack (http://github.com/astraw/svg_stack) -->
<svg xmlns="http://www.w3.org/2000/svg" xmlns:sodipodi="http://sodipodi.sourceforge.net/DTD/sodipodi-0.dtd" xmlns:xlink="http://www.w3.org/1999/xlink" version="1.1" width="640.0" height="640.0">
  <defs/>
  <g id="id0:id0" transform="matrix(1.25,0,0,1.25,0.0,0.0)"><g id="id0:surface21">
<path style=" stroke:none;fill-rule:nonzero;fill:rgb(27.058824%,44.313725%,45.098039%);fill-opacity:1;" d="M 350.09375 35.25 L 745.292969 35.25 L 745.292969 533.410156 L 350.09375 533.410156 Z M 350.09375 35.25 "/>
<path style=" stroke:none;fill-rule:nonzero;fill:rgb(66.27451%,87.843137%,76.862745%);fill-opacity:1;" d="M 461.578125 15.90625 L 1145.804688 15.90625 L 1145.804688 579.015625 L 461.578125 579.015625 Z M 461.578125 15.90625 "/>
<path style=" stroke:none;fill-rule:nonzero;fill:rgb(99.607843%,96.470588%,83.529412%);fill-opacity:1;" d="M 164.894531 373.921875 L 237.578125 122.554688 L 505.996094 166.183594 Z M 164.894531 373.921875 "/>
<path style="fill:none;stroke-width:0.09;stroke-linecap:butt;stroke-linejoin:miter;stroke:rgb(18.039216%,31.764706%,47.45098%);stroke-opacity:1;stroke-miterlimit:10;" d="M 0.617477 0.414627 L 0.202965 0.613632 L 0.099823 0.809921 Z M 0.617477 0.414627 " transform="matrix(512,0,0,512,0,0)"/>
<path style="fill:none;stroke-width:2;stroke-linecap:butt;stroke-linejoin:miter;stroke:rgb(0%,0%,0%);stroke-opacity:1;stroke-miterlimit:10;" d="M 52.101563 235.601563 C 52.085938 234.890625 51.859375 234.3125 51.425781 233.863281 C 50.984375 233.417969 50.410156 233.164063 49.699219 233.101563 C 48.976563 233.113281 48.363281 233.335938 47.859375 233.773438 C 47.351563 234.210938 47.066406 234.789063 47 235.5 L 46.601563 250.300781 L 46.398438 260.199219 L 46.199219 274.699219 C 46.183594 280.058594 46.429688 284.421875 46.9375 287.789063 C 47.4375 291.160156 48.257813 293.796875 49.398438 295.699219 C 50.664063 298.042969 52.480469 299.917969 54.847656 301.328125 C 57.210938 302.738281 59.730469 303.460938 62.398438 303.5 C 65.6875 303.46875 68.527344 302.53125 70.921875 300.6875 C 73.3125 298.84375 75.003906 296.28125 76 293 L 76.101563 293 C 76.097656 292.960938 76.097656 292.894531 76.101563 292.800781 C 76.097656 292.710938 76.097656 292.546875 76.101563 292.300781 C 76.089844 291.742188 75.929688 291.242188 75.625 290.800781 C 75.3125 290.367188 74.90625 290.066406 74.398438 289.898438 C 73.6875 289.757813 73.058594 289.847656 72.511719 290.175781 C 71.964844 290.503906 71.558594 291.046875 71.300781 291.800781 C 70.65625 293.878906 69.535156 295.523438 67.9375 296.738281 C 66.332031 297.953125 64.488281 298.574219 62.398438 298.601563 C 60.695313 298.570313 59.027344 298.054688 57.398438 297.050781 C 55.769531 296.046875 54.503906 294.730469 53.601563 293.101563 C 52.714844 291.585938 52.082031 289.320313 51.699219 286.300781 C 51.546875 284.152344 51.425781 281.933594 51.335938 279.652344 C 51.246094 277.371094 51.199219 275.054688 51.199219 272.699219 C 51.496094 254.785156 51.796875 242.417969 52.101563 235.601563 Z M 92.800781 291 C 90.894531 288.820313 89.796875 286.085938 89.5 282.800781 L 89.300781 279.5 C 89.359375 274.480469 90.761719 270.222656 93.511719 266.726563 C 96.257813 263.230469 99.988281 260.921875 104.699219 259.800781 C 106.316406 259.316406 108.183594 259.085938 110.300781 259.101563 C 113.894531 259.132813 117.027344 259.953125 119.699219 261.5625 C 122.371094 263.179688 124.304688 265.425781 125.5 268.300781 L 109.5 279.5 C 109.296875 279.585938 109.097656 279.71875 108.902344 279.898438 C 103.480469 283.800781 98.113281 287.503906 92.800781 291 Z M 124.699219 274.898438 L 129.699219 271.5 C 130.5 270.886719 130.902344 270.117188 130.902344 269.199219 C 130.902344 268.957031 130.894531 268.777344 130.886719 268.652344 C 130.871094 268.535156 130.84375 268.449219 130.800781 268.398438 C 129.378906 263.957031 126.839844 260.472656 123.1875 257.949219 C 119.527344 255.429688 115.167969 254.148438 110.101563 254.101563 C 108.398438 254.121094 106.195313 254.386719 103.5 254.898438 C 97.621094 256.386719 92.972656 259.320313 89.550781 263.699219 C 86.125 268.085938 84.375 273.417969 84.300781 279.699219 L 84.5 283.398438 C 85.074219 287.410156 86.449219 290.839844 88.625 293.6875 C 90.796875 296.539063 93.621094 298.742188 97.101563 300.300781 C 100.578125 301.898438 104.3125 302.695313 108.300781 302.699219 C 112.542969 302.675781 116.425781 301.867188 119.949219 300.261719 C 123.46875 298.65625 126.351563 296.367188 128.601563 293.398438 C 129.695313 291.945313 130.570313 290.332031 131.222656 288.550781 C 131.871094 286.777344 132.296875 284.859375 132.5 282.800781 C 132.535156 282.125 132.335938 281.53125 131.902344 281.015625 C 131.460938 280.503906 130.859375 280.230469 130.101563 280.199219 C 129.425781 280.21875 128.84375 280.4375 128.347656 280.851563 C 127.851563 281.273438 127.566406 281.789063 127.5 282.398438 C 126.953125 287.113281 124.945313 290.84375 121.476563 293.589844 C 118 296.339844 113.644531 297.742188 108.402344 297.800781 C 106.246094 297.804688 104.175781 297.53125 102.199219 296.976563 C 100.214844 296.429688 98.351563 295.601563 96.601563 294.5 L 111.800781 283.898438 L 112.402344 283.398438 C 114.546875 281.847656 116.644531 280.355469 118.699219 278.925781 C 120.746094 277.496094 122.746094 276.15625 124.699219 274.898438 Z M 149.601563 253.5 L 142 253.5 C 141.238281 253.519531 140.632813 253.765625 140.1875 254.238281 C 139.734375 254.71875 139.507813 255.339844 139.5 256.101563 C 139.523438 256.78125 139.777344 257.375 140.261719 257.890625 C 140.746094 258.40625 141.324219 258.675781 142 258.699219 L 151.101563 258.699219 L 151 268.601563 C 150.980469 277.320313 151.3125 283.488281 152 287.101563 C 152.585938 290.851563 153.609375 293.832031 155.0625 296.039063 C 156.515625 298.25 158.460938 300.003906 160.898438 301.300781 C 162.144531 301.953125 163.402344 302.445313 164.675781 302.785156 C 165.945313 303.125 167.253906 303.296875 168.601563 303.300781 C 172.046875 303.273438 175.046875 302.375 177.597656 300.601563 C 180.148438 298.828125 181.949219 296.328125 183 293.101563 L 183.199219 292.199219 C 183.191406 291.640625 183.027344 291.140625 182.710938 290.699219 C 182.390625 290.265625 181.953125 289.964844 181.398438 289.800781 L 180.601563 289.601563 C 180.128906 289.609375 179.667969 289.773438 179.222656 290.089844 C 178.773438 290.410156 178.46875 290.847656 178.300781 291.398438 C 177.511719 293.570313 176.253906 295.242188 174.535156 296.414063 C 172.808594 297.59375 170.832031 298.1875 168.601563 298.199219 C 166.746094 298.167969 164.949219 297.660156 163.210938 296.675781 C 161.46875 295.695313 160.097656 294.4375 159.101563 292.898438 C 158.640625 292.15625 158.222656 291.226563 157.847656 290.113281 C 157.464844 289.003906 157.148438 287.699219 156.898438 286.199219 C 156.378906 282.304688 156.113281 276.003906 156.101563 267.300781 L 156.101563 258.800781 C 157.515625 258.886719 160.984375 258.917969 166.5 258.898438 C 167.265625 258.886719 167.886719 258.644531 168.363281 258.164063 C 168.839844 257.6875 169.085938 257.066406 169.101563 256.300781 C 169.078125 255.628906 168.820313 255.03125 168.335938 254.515625 C 167.847656 254 167.269531 253.730469 166.601563 253.699219 C 160.996094 253.722656 157.496094 253.6875 156.101563 253.601563 L 156.101563 250 C 156.179688 248.503906 156.214844 244.402344 156.199219 237.699219 C 156.179688 236.9375 155.941406 236.320313 155.488281 235.839844 C 155.03125 235.363281 154.46875 235.117188 153.800781 235.101563 C 153.03125 235.113281 152.410156 235.34375 151.9375 235.800781 C 151.457031 236.261719 151.210938 236.894531 151.199219 237.699219 C 151.214844 244.402344 151.183594 248.503906 151.101563 250 L 151.101563 253.5 Z M 200 255.898438 C 199.976563 255.222656 199.742188 254.628906 199.296875 254.113281 C 198.847656 253.601563 198.316406 253.332031 197.699219 253.300781 C 196.9375 253.332031 196.332031 253.601563 195.886719 254.113281 C 195.433594 254.628906 195.207031 255.222656 195.199219 255.898438 C 195.195313 256.554688 195.199219 257.097656 195.210938 257.527344 C 195.21875 257.957031 195.246094 258.25 195.300781 258.398438 L 195.300781 260.800781 L 195.097656 264.898438 L 195.097656 265.398438 C 195.097656 265.65625 195.144531 265.898438 195.234375 266.125 C 195.324219 266.355469 195.445313 266.546875 195.597656 266.699219 C 195.996094 267.386719 196.59375 267.71875 197.398438 267.699219 C 197.957031 267.691406 198.457031 267.515625 198.898438 267.164063 C 199.332031 266.820313 199.632813 266.363281 199.800781 265.800781 C 199.910156 265.300781 199.976563 264.5 200 263.398438 L 200.300781 263.398438 C 203.796875 262.054688 206.925781 261.046875 209.6875 260.375 C 212.445313 259.703125 214.847656 259.347656 216.898438 259.300781 C 220.820313 259.277344 223.777344 260.28125 225.761719 262.3125 C 227.746094 264.351563 228.925781 267.578125 229.300781 272 C 227.800781 270.800781 226.597656 270.003906 225.699219 269.601563 C 224.25 268.90625 222.691406 268.378906 221.023438 268.027344 C 219.351563 267.675781 217.542969 267.5 215.597656 267.5 C 210.800781 267.53125 206.566406 268.394531 202.886719 270.089844 C 199.203125 271.785156 196.339844 274.125 194.300781 277.101563 C 193.25 278.558594 192.46875 280.097656 191.960938 281.726563 C 191.445313 283.355469 191.191406 285.046875 191.199219 286.800781 C 191.210938 289.785156 192.007813 292.519531 193.585938 295 C 195.160156 297.488281 197.429688 299.523438 200.398438 301.101563 C 203.296875 302.703125 206.597656 303.5 210.300781 303.5 C 213.214844 303.503906 216.007813 303.113281 218.675781 302.335938 C 221.339844 301.554688 224.082031 300.347656 226.898438 298.699219 C 226.953125 298.660156 227.292969 298.476563 227.921875 298.152344 C 228.550781 297.832031 229.441406 297.347656 230.597656 296.699219 C 231.550781 297.964844 233.058594 299.117188 235.121094 300.152344 C 237.175781 301.191406 239.136719 301.738281 241 301.800781 C 241.660156 301.785156 242.207031 301.539063 242.636719 301.0625 C 243.0625 300.585938 243.28125 299.964844 243.300781 299.199219 C 243.28125 298.632813 243.0625 298.148438 242.636719 297.738281 C 242.207031 297.335938 241.660156 297.121094 241 297.101563 C 239.71875 297.023438 238.300781 296.554688 236.75 295.6875 C 235.191406 294.828125 234.277344 294.03125 234 293.300781 C 233.996094 293.054688 233.972656 292.796875 233.9375 292.523438 C 233.894531 292.257813 233.851563 291.949219 233.800781 291.601563 C 233.714844 291.488281 233.679688 290.722656 233.699219 289.300781 C 233.710938 287.105469 233.878906 282.902344 234.199219 276.699219 C 234.242188 271.945313 233.777344 268.035156 232.8125 264.964844 C 231.839844 261.898438 230.101563 259.410156 227.597656 257.5 C 225.078125 255.585938 221.714844 254.621094 217.5 254.601563 C 213 254.621094 207.199219 255.886719 200.097656 258.398438 L 200.097656 258.300781 C 200.011719 258.003906 199.976563 257.203125 200 255.898438 Z M 229.199219 282.800781 C 228.996094 286.019531 228.894531 288.1875 228.898438 289.300781 C 228.878906 290.703125 228.914063 291.5 229 291.699219 L 227.898438 292.601563 C 227.148438 293.054688 226.496094 293.449219 225.9375 293.777344 C 225.375 294.109375 224.894531 294.347656 224.5 294.5 C 219.980469 297.21875 215.214844 298.585938 210.199219 298.601563 C 205.933594 298.546875 202.53125 297.460938 199.996094 295.339844 C 197.457031 293.222656 196.15625 290.410156 196.097656 286.898438 C 196.105469 284.226563 196.910156 281.800781 198.511719 279.625 C 200.105469 277.453125 202.4375 275.679688 205.5 274.300781 C 208.5 272.988281 212 272.320313 216 272.300781 C 224.296875 272.304688 228.695313 275.804688 229.199219 282.800781 Z M 258.800781 291 C 256.894531 288.820313 255.796875 286.085938 255.5 282.800781 L 255.300781 279.5 C 255.359375 274.480469 256.761719 270.222656 259.511719 266.726563 C 262.257813 263.230469 265.988281 260.921875 270.699219 259.800781 C 272.316406 259.316406 274.183594 259.085938 276.300781 259.101563 C 279.894531 259.132813 283.027344 259.953125 285.699219 261.5625 C 288.371094 263.179688 290.304688 265.425781 291.5 268.300781 L 275.5 279.5 C 275.296875 279.585938 275.097656 279.71875 274.902344 279.898438 C 269.480469 283.800781 264.113281 287.503906 258.800781 291 Z M 290.699219 274.898438 L 295.699219 271.5 C 296.5 270.886719 296.902344 270.117188 296.902344 269.199219 C 296.902344 268.957031 296.894531 268.777344 296.886719 268.652344 C 296.871094 268.535156 296.84375 268.449219 296.800781 268.398438 C 295.378906 263.957031 292.839844 260.472656 289.1875 257.949219 C 285.527344 255.429688 281.167969 254.148438 276.101563 254.101563 C 274.398438 254.121094 272.195313 254.386719 269.5 254.898438 C 263.621094 256.386719 258.972656 259.320313 255.550781 263.699219 C 252.125 268.085938 250.375 273.417969 250.300781 279.699219 L 250.5 283.398438 C 251.074219 287.410156 252.449219 290.839844 254.625 293.6875 C 256.796875 296.539063 259.621094 298.742188 263.101563 300.300781 C 266.578125 301.898438 270.3125 302.695313 274.300781 302.699219 C 278.542969 302.675781 282.425781 301.867188 285.949219 300.261719 C 289.46875 298.65625 292.351563 296.367188 294.601563 293.398438 C 295.695313 291.945313 296.570313 290.332031 297.222656 288.550781 C 297.871094 286.777344 298.296875 284.859375 298.5 282.800781 C 298.535156 282.125 298.335938 281.53125 297.902344 281.015625 C 297.460938 280.503906 296.859375 280.230469 296.101563 280.199219 C 295.425781 280.21875 294.84375 280.4375 294.347656 280.851563 C 293.851563 281.273438 293.566406 281.789063 293.5 282.398438 C 292.953125 287.113281 290.945313 290.84375 287.476563 293.589844 C 284 296.339844 279.644531 297.742188 274.402344 297.800781 C 272.246094 297.804688 270.175781 297.53125 268.199219 296.976563 C 266.214844 296.429688 264.351563 295.601563 262.601563 294.5 L 277.800781 283.898438 L 278.402344 283.398438 C 280.546875 281.847656 282.644531 280.355469 284.699219 278.925781 C 286.746094 277.496094 288.746094 276.15625 290.699219 274.898438 Z M 308.898438 253 C 308.226563 253.027344 307.644531 253.28125 307.160156 253.765625 C 306.671875 254.25 306.417969 254.828125 306.398438 255.5 C 306.417969 256.171875 306.671875 256.753906 307.160156 257.238281 C 307.644531 257.726563 308.226563 257.980469 308.898438 258 L 312.101563 258 C 312.097656 262.804688 311.996094 269.304688 311.800781 277.5 L 311.601563 296.800781 L 308.5 296.800781 C 307.738281 296.828125 307.132813 297.082031 306.6875 297.5625 C 306.238281 298.050781 306.007813 298.628906 306 299.300781 C 306.007813 299.976563 306.238281 300.554688 306.6875 301.039063 C 307.132813 301.523438 307.738281 301.777344 308.5 301.800781 C 311.617188 301.785156 313.582031 301.820313 314.398438 301.898438 L 320.398438 301.898438 C 321.070313 301.882813 321.648438 301.628906 322.136719 301.140625 C 322.621094 300.65625 322.875 300.074219 322.898438 299.398438 C 322.875 298.726563 322.621094 298.148438 322.136719 297.664063 C 321.648438 297.179688 321.070313 296.925781 320.398438 296.898438 L 316.601563 296.898438 L 316.699219 283.601563 C 316.746094 283.445313 316.777344 283.054688 316.789063 282.425781 C 316.796875 281.796875 316.800781 280.953125 316.800781 279.898438 C 318.1875 277.097656 320.207031 274.128906 322.859375 270.984375 C 325.511719 267.847656 328.460938 265.15625 331.703125 262.914063 C 334.945313 260.675781 338.144531 259.503906 341.300781 259.398438 C 344.214844 259.386719 346.480469 260.71875 348.101563 263.398438 C 350.613281 267.917969 351.878906 275.1875 351.898438 285.199219 L 351.699219 293 L 351.601563 297.300781 L 347.199219 297.300781 C 346.523438 297.324219 345.945313 297.578125 345.460938 298.0625 C 344.976563 298.546875 344.722656 299.128906 344.699219 299.800781 C 344.722656 300.476563 344.976563 301.054688 345.460938 301.539063 C 345.945313 302.023438 346.523438 302.273438 347.199219 302.300781 L 359.601563 302.300781 C 360.359375 302.273438 360.964844 302.023438 361.414063 301.539063 C 361.859375 301.054688 362.089844 300.476563 362.101563 299.800781 C 362.089844 299.128906 361.859375 298.546875 361.414063 298.0625 C 360.964844 297.578125 360.359375 297.324219 359.601563 297.300781 L 356.601563 297.300781 L 356.699219 293.101563 L 356.898438 285.398438 L 356.699219 279.300781 C 358.984375 275.257813 361.6875 271.695313 364.8125 268.613281 C 367.933594 265.535156 370.960938 263.199219 373.898438 261.601563 C 376.679688 260.085938 379.214844 259.320313 381.5 259.300781 C 386.714844 259.320313 390.082031 263.683594 391.601563 272.398438 C 391.847656 274.453125 392.042969 276.546875 392.1875 278.675781 C 392.324219 280.804688 392.394531 282.945313 392.398438 285.101563 L 392.199219 292.800781 L 392.101563 296.898438 C 391.617188 296.816406 390.183594 296.785156 387.800781 296.800781 C 387.039063 296.816406 386.433594 297.042969 385.988281 297.488281 C 385.539063 297.9375 385.308594 298.542969 385.300781 299.300781 C 385.308594 300.066406 385.539063 300.6875 385.988281 301.164063 C 386.433594 301.644531 387.039063 301.890625 387.800781 301.898438 L 399.699219 302 C 400.371094 301.976563 400.949219 301.707031 401.4375 301.1875 C 401.917969 300.675781 402.171875 300.078125 402.199219 299.398438 C 402.171875 298.734375 401.917969 298.175781 401.4375 297.714844 C 400.949219 297.261719 400.371094 297.023438 399.699219 297 C 398.953125 297.007813 398.371094 297.003906 397.949219 296.988281 C 397.527344 296.980469 397.242188 296.949219 397.101563 296.898438 L 397.199219 293 L 397.398438 284.898438 L 397.199219 278.5 C 395.980469 262.300781 390.914063 254.199219 382 254.199219 C 380.214844 254.183594 378.582031 254.417969 377.101563 254.898438 C 373.351563 255.957031 369.699219 257.875 366.148438 260.652344 C 362.597656 263.433594 359.148438 267.050781 355.800781 271.5 C 353.914063 260.019531 349.179688 254.285156 341.601563 254.300781 C 338.578125 254.375 335.496094 255.203125 332.351563 256.789063 C 329.203125 258.375 326.417969 260.28125 324 262.5 C 321.613281 264.703125 319.28125 267.300781 317 270.300781 C 317.042969 269.65625 317.070313 268.324219 317.085938 266.300781 C 317.09375 264.28125 317.101563 261.546875 317.101563 258.101563 L 320.101563 258.101563 C 320.859375 258.078125 321.460938 257.824219 321.914063 257.339844 C 322.359375 256.855469 322.589844 256.277344 322.601563 255.601563 C 322.589844 254.929688 322.359375 254.351563 321.914063 253.863281 C 321.460938 253.378906 320.859375 253.125 320.101563 253.101563 L 314.5 253.101563 C 313.78125 253.023438 311.914063 252.988281 308.898438 253 Z M 405.699219 302 "/>
</g>
</g>
  <g id="id1:id1" transform="matrix(1.0,0,0,1.0,128.0,64.0)"><path d="M247.279 231.557L130.023 16.0754L24.4661 180.966L247.279 231.557Z" fill="white" fill-opacity="0.01" stroke="black" stroke-width="4"/>
</g>
</svg>
