<?xml version="1.0" standalone="no"?>
<!DOCTYPE svg PUBLIC "-//W3C//DTD SVG 1.1//EN"
 "http://www.w3.org/Graphics/SVG/1.1/DTD/svg11.dtd">
<!-- Created with svg_stack (http://github.com/astraw/svg_stack) -->
<svg xmlns="http://www.w3.org/2000/svg" xmlns:sodipodi="http://sodipodi.sourceforge.net/DTD/sodipodi-0.dtd" xmlns:xlink="http://www.w3.org/1999/xlink" version="1.1" width="640.0" height="640.0">
  <defs/>
  <g id="id0:id0" transform="matrix(1.25,0,0,1.25,0.0,0.0)"><g id="id0:surface26">
<path style=" stroke:none;fill-rule:nonzero;fill:rgb(15.294118%,19.607843%,17.647059%);fill-opacity:1;" d="M 500.007813 44.769531 L 1011.15625 44.769531 L 1011.15625 480.425781 L 500.007813 480.425781 Z M 500.007813 44.769531 "/>
<path style=" stroke:none;fill-rule:nonzero;fill:rgb(26.27451%,39.215686%,36.862745%);fill-opacity:1;" d="M 53.300781 202.824219 L 213.628906 202.824219 L 213.628906 569.765625 L 53.300781 569.765625 Z M 53.300781 202.824219 "/>
<path style=" stroke:none;fill-rule:nonzero;fill:rgb(57.647059%,58.039216%,49.411765%);fill-opacity:1;" d="M 112.425781 482.507813 L 297.351563 440.285156 L 353.554688 360.65625 Z M 112.425781 482.507813 "/>
<path style=" stroke:none;fill-rule:nonzero;fill:rgb(79.215686%,83.921569%,84.313725%);fill-opacity:1;" d="M 47.753906 154.058594 L 376.265625 419.152344 L 356.105469 12.007813 Z M 47.753906 154.058594 "/>
<path style="fill:none;stroke-width:2;stroke-linecap:butt;stroke-linejoin:miter;stroke:rgb(0%,0%,0%);stroke-opacity:1;stroke-miterlimit:10;" d="M 36.199219 306.101563 C 35.597656 305.4375 35.296875 304.671875 35.300781 303.800781 C 36.296875 274.003906 37.230469 252.304688 38.101563 238.699219 C 38.164063 237.902344 38.511719 237.21875 39.148438 236.652344 C 39.78125 236.085938 40.5 235.835938 41.300781 235.902344 C 42.097656 235.96875 42.78125 236.316406 43.347656 236.949219 C 43.914063 237.582031 44.164063 238.300781 44.101563 239.101563 C 43.230469 252.703125 42.328125 273.4375 41.398438 301.300781 C 44.261719 301.636719 46.597656 301.800781 48.398438 301.800781 C 49.199219 301.800781 49.898438 302.101563 50.5 302.703125 C 51.097656 303.304688 51.398438 304.003906 51.398438 304.800781 C 51.398438 305.601563 51.097656 306.304688 50.5 306.902344 C 49.898438 307.503906 49.199219 307.800781 48.398438 307.800781 C 46.265625 307.800781 42.832031 307.535156 38.101563 307 C 37.363281 306.933594 36.730469 306.632813 36.199219 306.101563 Z M 60.300781 273.898438 C 62.03125 273.566406 63.597656 273.035156 65 272.300781 C 65.664063 271.902344 66.628906 271.101563 67.898438 269.902344 C 69.164063 268.703125 70.265625 267.402344 71.199219 266 C 72.265625 264.46875 72.898438 263.171875 73.101563 262.101563 C 73.230469 261.4375 73.164063 260.9375 72.898438 260.601563 C 72.097656 259.804688 70.597656 260.136719 68.398438 261.601563 C 67.265625 262.402344 66.214844 263.335938 65.25 264.402344 C 64.28125 265.46875 63.632813 266.335938 63.300781 267 C 62.097656 269.269531 61.097656 271.566406 60.300781 273.898438 Z M 53.800781 274.5 C 54.796875 270.96875 56.164063 267.535156 57.898438 264.199219 C 58.5 263.070313 59.464844 261.785156 60.800781 260.351563 C 62.128906 258.917969 63.5625 257.703125 65.101563 256.699219 C 69.898438 253.371094 73.898438 253.269531 77.101563 256.398438 C 78.960938 258.136719 79.59375 260.4375 79 263.300781 C 78.59375 265.171875 77.660156 267.203125 76.199219 269.398438 C 74.996094 271.132813 73.597656 272.769531 72 274.300781 C 70.398438 275.839844 69 276.90625 67.800781 277.5 C 65.199219 278.96875 62.164063 279.867188 58.699219 280.199219 C 57.363281 287.867188 58.664063 293.933594 62.601563 298.398438 C 64.933594 301.066406 67.5 302.433594 70.300781 302.5 C 72.832031 302.570313 75.433594 301.570313 78.101563 299.5 C 80.765625 297.433594 82.898438 294.75 84.5 291.449219 C 86.097656 288.152344 86.796875 285.003906 86.601563 282 C 86.53125 281.203125 86.78125 280.484375 87.347656 279.851563 C 87.914063 279.21875 88.597656 278.871094 89.398438 278.800781 C 90.199219 278.738281 90.914063 278.988281 91.550781 279.550781 C 92.179688 280.121094 92.53125 280.804688 92.601563 281.601563 C 92.863281 285.738281 91.960938 289.871094 89.898438 294 C 87.828125 298.203125 85.128906 301.601563 81.800781 304.199219 C 78.0625 307.132813 74.195313 308.5625 70.199219 308.5 C 65.597656 308.429688 61.53125 306.398438 58 302.398438 C 52.929688 296.601563 51.164063 289.035156 52.699219 279.699219 C 51.964844 279.101563 51.597656 278.335938 51.601563 277.398438 C 51.597656 276.734375 51.816406 276.136719 52.25 275.601563 C 52.679688 275.070313 53.195313 274.703125 53.800781 274.5 Z M 92.097656 281.699219 C 94.367188 281.769531 96.765625 281.769531 99.300781 281.699219 C 99.363281 275.367188 99.363281 271.132813 99.300781 269 C 99.296875 267 99.097656 263.769531 98.699219 259.300781 C 98.363281 254.972656 98.195313 251.605469 98.199219 249.199219 C 98.195313 248.402344 98.496094 247.703125 99.097656 247.101563 C 99.699219 246.503906 100.398438 246.203125 101.199219 246.199219 C 101.996094 246.203125 102.695313 246.503906 103.296875 247.101563 C 103.894531 247.703125 104.195313 248.402344 104.199219 249.199219 C 104.195313 251.070313 104.363281 254.304688 104.699219 258.902344 C 105.03125 263.503906 105.230469 266.867188 105.300781 269 C 105.363281 271.402344 105.363281 275.570313 105.300781 281.5 C 107.097656 281.433594 109.695313 281.300781 113.097656 281.101563 C 116.496094 280.902344 118.964844 280.769531 120.5 280.699219 C 121.296875 280.636719 121.996094 280.886719 122.597656 281.453125 C 123.195313 282.019531 123.527344 282.71875 123.597656 283.550781 C 123.660156 284.386719 123.410156 285.105469 122.847656 285.703125 C 122.277344 286.304688 121.5625 286.636719 120.699219 286.699219 C 119.296875 286.769531 116.847656 286.902344 113.347656 287.101563 C 109.847656 287.300781 107.164063 287.433594 105.300781 287.5 C 105.296875 295.371094 105.730469 302.136719 106.597656 307.800781 C 106.730469 308.667969 106.546875 309.433594 106.050781 310.101563 C 105.546875 310.765625 104.878906 311.164063 104.050781 311.300781 C 103.214844 311.429688 102.464844 311.246094 101.800781 310.75 C 101.128906 310.246094 100.730469 309.597656 100.597656 308.800781 C 99.730469 303.132813 99.296875 296.101563 99.300781 287.699219 C 96.695313 287.769531 94.230469 287.769531 91.898438 287.699219 C 91.101563 287.703125 90.417969 287.402344 89.851563 286.800781 C 89.285156 286.199219 89.003906 285.484375 89 284.648438 C 89.003906 283.820313 89.304688 283.121094 89.902344 282.550781 C 90.503906 281.988281 91.234375 281.703125 92.097656 281.699219 Z M 151 266.398438 C 141.394531 272 135.996094 281.101563 134.800781 293.699219 C 134.53125 296.4375 134.695313 298.804688 135.296875 300.800781 C 135.894531 302.804688 136.828125 303.835938 138.097656 303.898438 C 138.960938 303.96875 140.03125 303.105469 141.300781 301.300781 C 142.832031 299.238281 144.296875 296.304688 145.699219 292.5 C 146.960938 289.304688 148.027344 285.953125 148.898438 282.449219 C 149.761719 278.953125 150.296875 276.304688 150.5 274.5 C 150.632813 273.4375 150.796875 270.734375 151 266.398438 Z M 153.800781 287.398438 C 153.0625 289.867188 152.230469 292.300781 151.300781 294.699219 C 149.695313 299.035156 147.996094 302.402344 146.199219 304.800781 C 143.597656 308.332031 140.761719 310.03125 137.699219 309.898438 C 133.628906 309.699219 130.898438 307.234375 129.5 302.5 C 128.699219 299.769531 128.464844 296.636719 128.800781 293.101563 C 130.265625 277.371094 137.632813 266.203125 150.898438 259.601563 C 151.695313 259.203125 152.496094 259.171875 153.300781 259.5 C 153.363281 259.503906 153.429688 259.46875 153.5 259.398438 C 154.699219 259.203125 155.699219 259.605469 156.5 260.601563 C 156.699219 260.804688 156.832031 261.070313 156.898438 261.398438 L 157.097656 262.199219 L 157.097656 262.5 C 157.566406 274.90625 159.933594 290.234375 164.199219 308.5 C 164.398438 309.296875 164.28125 310.046875 163.847656 310.75 C 163.414063 311.445313 162.796875 311.894531 162 312.097656 C 161.199219 312.292969 160.449219 312.179688 159.75 311.75 C 159.046875 311.316406 158.597656 310.699219 158.398438 309.898438 C 156.398438 301.433594 154.863281 293.933594 153.800781 287.398438 Z M 173.199219 273.898438 C 174.929688 273.566406 176.496094 273.035156 177.898438 272.300781 C 178.5625 271.902344 179.527344 271.101563 180.796875 269.902344 C 182.0625 268.703125 183.164063 267.402344 184.097656 266 C 185.164063 264.46875 185.796875 263.171875 186 262.101563 C 186.128906 261.4375 186.0625 260.9375 185.796875 260.601563 C 184.996094 259.804688 183.496094 260.136719 181.296875 261.601563 C 180.164063 262.402344 179.113281 263.335938 178.148438 264.402344 C 177.179688 265.46875 176.53125 266.335938 176.199219 267 C 174.996094 269.269531 173.996094 271.566406 173.199219 273.898438 Z M 166.699219 274.5 C 167.695313 270.96875 169.0625 267.535156 170.796875 264.199219 C 171.398438 263.070313 172.363281 261.785156 173.699219 260.351563 C 175.027344 258.917969 176.460938 257.703125 178 256.699219 C 182.796875 253.371094 186.796875 253.269531 190 256.398438 C 191.859375 258.136719 192.492188 260.4375 191.898438 263.300781 C 191.492188 265.171875 190.558594 267.203125 189.097656 269.398438 C 187.894531 271.132813 186.496094 272.769531 184.898438 274.300781 C 183.296875 275.839844 181.898438 276.90625 180.699219 277.5 C 178.097656 278.96875 175.0625 279.867188 171.597656 280.199219 C 170.261719 287.867188 171.5625 293.933594 175.5 298.398438 C 177.832031 301.066406 180.398438 302.433594 183.199219 302.5 C 185.730469 302.570313 188.332031 301.570313 191 299.5 C 193.664063 297.433594 195.796875 294.75 197.398438 291.449219 C 198.996094 288.152344 199.695313 285.003906 199.5 282 C 199.429688 281.203125 199.679688 280.484375 200.246094 279.851563 C 200.8125 279.21875 201.496094 278.871094 202.296875 278.800781 C 203.097656 278.738281 203.8125 278.988281 204.449219 279.550781 C 205.078125 280.121094 205.429688 280.804688 205.5 281.601563 C 205.761719 285.738281 204.859375 289.871094 202.796875 294 C 200.726563 298.203125 198.027344 301.601563 194.699219 304.199219 C 190.960938 307.132813 187.09375 308.5625 183.097656 308.5 C 178.496094 308.429688 174.429688 306.398438 170.898438 302.398438 C 165.828125 296.601563 164.0625 289.035156 165.597656 279.699219 C 164.863281 279.101563 164.496094 278.335938 164.5 277.398438 C 164.496094 276.734375 164.714844 276.136719 165.148438 275.601563 C 165.578125 275.070313 166.09375 274.703125 166.699219 274.5 Z M 242.101563 257.199219 L 240.902344 257.199219 C 239.101563 257.199219 237.703125 257.835938 236.703125 259.101563 C 235.703125 260.371094 234.667969 262.46875 233.601563 265.398438 C 232.667969 268.136719 231.867188 270.96875 231.203125 273.898438 C 231.199219 276.566406 230.898438 281.902344 230.300781 289.898438 C 230.230469 291.171875 230.164063 292.972656 230.101563 295.300781 C 230.097656 297.972656 230.066406 299.90625 230 301.101563 L 230 303.699219 C 230 304.433594 229.964844 305.035156 229.902344 305.5 C 229.832031 305.902344 229.667969 306.234375 229.402344 306.5 C 228.734375 307.566406 227.765625 308.035156 226.5 307.898438 C 225.699219 307.769531 225.03125 307.402344 224.5 306.800781 C 224.296875 306.535156 224.132813 306.269531 224 306 C 223.46875 305.003906 223.234375 303.734375 223.300781 302.199219 C 223.296875 302.136719 223.332031 301.671875 223.402344 300.800781 L 223.402344 299.898438 C 222.867188 290.234375 223.464844 281.335938 225.203125 273.199219 C 225.199219 266.472656 224.464844 261.703125 223 258.898438 C 222.195313 257.5 221.5625 256.769531 221.101563 256.699219 C 220.5 256.769531 219.703125 257.402344 218.703125 258.601563 C 217.632813 259.9375 216.664063 261.554688 215.800781 263.453125 C 214.929688 265.355469 214.328125 267.003906 214 268.398438 C 214.0625 274.203125 214.03125 278.769531 213.902344 282.101563 C 213.832031 283.234375 213.746094 285.167969 213.648438 287.902344 C 213.546875 290.636719 213.480469 292.753906 213.449219 294.25 C 213.414063 295.753906 213.398438 297.621094 213.402344 299.851563 C 213.398438 302.085938 213.464844 304.136719 213.601563 306 C 213.664063 306.804688 213.414063 307.515625 212.851563 308.148438 C 212.28125 308.78125 211.597656 309.132813 210.800781 309.199219 C 209.996094 309.265625 209.28125 309.015625 208.652344 308.449219 C 208.015625 307.882813 207.664063 307.203125 207.601563 306.398438 C 207.464844 304.539063 207.398438 302.4375 207.402344 300.101563 C 207.398438 297.769531 207.414063 295.871094 207.449219 294.402344 C 207.480469 292.9375 207.566406 290.738281 207.699219 287.800781 C 207.832031 284.871094 207.898438 282.902344 207.902344 281.898438 C 208.03125 278.703125 208.0625 274.535156 208 269.398438 C 207.863281 269 207.832031 268.570313 207.902344 268.101563 C 207.964844 268.039063 207.996094 267.9375 208 267.800781 C 207.929688 260.734375 207.929688 255.699219 208 252.699219 C 207.996094 251.902344 208.296875 251.222656 208.898438 250.652344 C 209.496094 250.089844 210.214844 249.804688 211.050781 249.800781 C 211.882813 249.804688 212.582031 250.105469 213.148438 250.703125 C 213.714844 251.304688 213.996094 252.035156 214 252.898438 L 214 254.800781 C 216.195313 252.203125 218.464844 250.867188 220.800781 250.800781 C 223.800781 250.601563 226.265625 252.371094 228.203125 256.101563 C 228.730469 257.039063 229.199219 258.105469 229.601563 259.300781 C 232.132813 253.839844 235.898438 251.136719 240.902344 251.199219 C 243.101563 251.269531 244.734375 251.671875 245.800781 252.398438 C 248.332031 254.402344 250.097656 258.433594 251.101563 264.5 C 251.832031 268.96875 252.199219 274.703125 252.203125 281.699219 C 252.199219 286.5 252 292.632813 251.601563 300.101563 C 251.199219 307.566406 251 311.53125 251 312 C 251 312.796875 250.699219 313.480469 250.101563 314.046875 C 249.5 314.613281 248.785156 314.894531 247.953125 314.898438 C 247.117188 314.894531 246.414063 314.597656 245.851563 314 C 245.28125 313.398438 245 312.664063 245 311.800781 C 245 311.398438 245.199219 307.484375 245.601563 300.050781 C 246 292.617188 246.199219 286.5 246.203125 281.699219 C 246.199219 275.035156 245.832031 269.636719 245.101563 265.5 C 244.429688 261.101563 243.429688 258.332031 242.101563 257.199219 Z M 252.199219 308 "/>
</g>
</g>
  <g id="id1:id1" transform="matrix(1.0,0,0,1.0,128.0,64.0)"><path d="M468.752 199.264C458.231 206.706 441.992 204.943 423.67 194.862C405.481 184.854 385.876 166.95 369.268 143.47C352.66 119.991 342.307 95.5424 338.928 75.0588C335.525 54.4252 339.271 38.5262 349.792 31.0842C360.313 23.6423 376.552 25.4049 394.874 35.486C413.063 45.4937 432.668 63.398 449.276 86.8775C465.884 110.357 476.237 134.806 479.616 155.289C483.02 175.923 479.273 191.822 468.752 199.264Z" fill="white" fill-opacity="0.01" stroke="black" stroke-width="4"/>
</g>
</svg>
