<?xml version="1.0" encoding="UTF-8"?>
<svg xmlns="http://www.w3.org/2000/svg" xmlns:xlink="http://www.w3.org/1999/xlink" width="512pt" height="512pt" viewBox="0 0 512 512" version="1.1">
<defs>
<linearGradient id="linear0" gradientUnits="userSpaceOnUse" x1="301" y1="299" x2="500" y2="500" >
<stop offset="0" style="stop-color:rgb(92.54902%,6.666667%,100%);stop-opacity:1;"/>
<stop offset="0.5" style="stop-color:rgb(1.960784%,0%,100%);stop-opacity:1;"/>
</linearGradient>
</defs>
<g id="surface26">
<path style=" stroke:none;fill-rule:nonzero;fill:rgb(0.392157%,57.647059%,26.27451%);fill-opacity:1;" d="M 62.105469 418.628906 L 30.53125 418.628906 L 30.53125 1171.691406 L 62.105469 1171.691406 Z M 62.105469 418.628906 "/>
<path style=" stroke:none;fill-rule:nonzero;fill:rgb(19.215686%,19.215686%,24.705882%);fill-opacity:1;" d="M 300.65625 263.09375 L 401.320313 263.09375 L 401.320313 756.9375 L 300.65625 756.9375 Z M 300.65625 263.09375 "/>
<path style=" stroke:none;fill-rule:nonzero;fill:url(#linear0);" d="M 305.5 227.5 L 317.699219 227.5 L 317.699219 242.300781 L 317.5 249.199219 L 317.5 255.800781 L 317.398438 262.5 L 317.398438 290.800781 L 317.199219 297.898438 L 305 297.5 L 305.199219 290.601563 L 305.199219 262.5 L 305.300781 255.800781 L 305.300781 249 L 305.5 242.101563 Z M 331.699219 265.101563 L 337.800781 265.601563 L 344.800781 265.398438 L 350.597656 264.800781 L 354 264.300781 L 354.398438 261.5 L 353 257.398438 L 350.097656 253.398438 L 346.300781 251.800781 L 341.398438 251.199219 L 337.199219 252.699219 L 334.5 255.601563 L 332.199219 260.101563 Z M 331.699219 277.398438 L 331.898438 279.699219 L 333.300781 283.898438 L 335.800781 286.898438 L 341 288.300781 L 345.699219 288.699219 L 350.597656 287.199219 L 354.097656 284.601563 L 357.097656 279.601563 L 367.5 286 L 363.097656 292.800781 L 356.199219 298 L 347.097656 300.898438 L 338.597656 300.300781 L 329.199219 297.101563 L 322.699219 290.101563 L 319.898438 282.101563 L 319.199219 273.300781 L 319.398438 265.199219 L 320.597656 256.699219 L 324.5 248.601563 L 330.597656 242.5 L 339.800781 239 L 349.699219 240 L 357.699219 244 L 363.800781 251.800781 L 366.597656 261.5 L 362.800781 272.699219 L 353.199219 276.601563 L 345.597656 277.601563 L 337.597656 277.800781 Z M 367.5 266.800781 L 367.699219 254.601563 L 374.796875 254.699219 L 375.097656 254.699219 L 375.097656 248.101563 L 375.296875 241.5 L 375.097656 234.898438 L 387.296875 234.5 L 387.5 241.5 L 387.296875 248.300781 L 387.296875 254.898438 L 388.796875 255 L 395.398438 255 L 395.398438 267.199219 L 388.597656 267.199219 L 387 267.101563 L 387 282.898438 L 387.097656 289.199219 L 387.296875 295.300781 L 375.097656 295.699219 L 374.898438 289.398438 L 374.796875 282.898438 L 374.796875 266.898438 Z M 434 264 L 433.898438 264.101563 L 430.796875 259.898438 L 426.898438 257.601563 L 422 256.398438 L 417 256.5 L 413.296875 258.699219 L 409.597656 262.601563 L 407.398438 266.800781 L 407.296875 271 L 408.097656 275.398438 L 410.296875 279.101563 L 413.097656 282 L 416.597656 283.699219 L 421.597656 284.699219 L 425.898438 284.398438 L 430 282.699219 L 433.398438 280.398438 L 433.5 276.5 L 434 269.101563 Z M 434.097656 240.5 L 446.296875 240.699219 L 446.199219 247.601563 L 446.199219 269.5 L 445.699219 277.101563 L 445.398438 285.601563 L 445.296875 293.601563 L 445.296875 301.300781 L 433.097656 301.300781 L 433.097656 294.5 L 428.699219 296.199219 L 421 296.898438 L 412.796875 295.300781 L 405.898438 292 L 400.5 286.5 L 396.699219 279.601563 L 395.097656 271.800781 L 395.597656 263.601563 L 399.597656 255.601563 L 405.699219 249.101563 L 413.597656 244.699219 L 423.398438 244.199219 L 431.5 246.398438 L 434 247.800781 L 434 247.601563 Z M 460.199219 265.101563 L 466.300781 265.601563 L 473.300781 265.398438 L 479.097656 264.800781 L 482.5 264.300781 L 482.898438 261.5 L 481.5 257.398438 L 478.597656 253.398438 L 474.800781 251.800781 L 469.898438 251.199219 L 465.699219 252.699219 L 463 255.601563 L 460.699219 260.101563 Z M 460.199219 277.398438 L 460.398438 279.699219 L 461.800781 283.898438 L 464.300781 286.898438 L 469.5 288.300781 L 474.199219 288.699219 L 479.097656 287.199219 L 482.597656 284.601563 L 485.597656 279.601563 L 496 286 L 491.597656 292.800781 L 484.699219 298 L 475.597656 300.898438 L 467.097656 300.300781 L 457.699219 297.101563 L 451.199219 290.101563 L 448.398438 282.101563 L 447.699219 273.300781 L 447.898438 265.199219 L 449.097656 256.699219 L 453 248.601563 L 459.097656 242.5 L 468.300781 239 L 478.199219 240 L 486.199219 244 L 492.300781 251.800781 L 495.097656 261.5 L 491.300781 272.699219 L 481.699219 276.601563 L 474.097656 277.601563 L 466.097656 277.800781 Z M 496.5 247.398438 L 508.699219 248.398438 L 508.398438 252.398438 L 509.199219 251.601563 L 516.796875 247.101563 L 527.796875 247 L 534.296875 253.898438 L 540.199219 249.300781 L 549.097656 246.199219 L 559.796875 249.5 L 565.398438 259.398438 L 566.699219 267.800781 L 567.296875 276 L 567.296875 283.898438 L 566.5 291.800781 L 565.898438 299.199219 L 553.699219 298.199219 L 554.296875 290.601563 L 555.097656 283.300781 L 555.097656 276.398438 L 554.5 269.199219 L 553.796875 263.199219 L 552 258.898438 L 549.5 258.398438 L 546.199219 259.898438 L 541.898438 263.398438 L 537.796875 268.398438 L 537.699219 268.199219 L 537.796875 272.601563 L 537.597656 279.101563 L 537.296875 285.800781 L 536.796875 292.300781 L 524.597656 291.300781 L 525.097656 285 L 525.398438 278.699219 L 525.597656 272.601563 L 525.398438 265.398438 L 524.796875 260.800781 L 523 258.199219 L 520.398438 258.699219 L 516.597656 261.199219 L 512.296875 265.398438 L 508.199219 271.398438 L 507.898438 271.101563 L 507.898438 285 L 508.097656 291.300781 L 508.097656 297.601563 L 495.898438 297.601563 L 495.898438 291.5 L 495.699219 285.199219 L 495.699219 270.300781 L 495.898438 262.800781 L 495.898438 255.101563 Z M 566.199219 299 "/>
</g>
</svg>
