<?xml version="1.0" encoding="UTF-8"?>
<svg xmlns="http://www.w3.org/2000/svg" xmlns:xlink="http://www.w3.org/1999/xlink" width="512pt" height="512pt" viewBox="0 0 512 512" version="1.1">
<g id="surface31">
<path style=" stroke:none;fill-rule:nonzero;fill:rgb(96.078431%,0%,0.392157%);fill-opacity:1;" d="M 176.90625 16.496094 L 161.886719 16.496094 L 161.886719 269.71875 L 176.90625 269.71875 Z M 176.90625 16.496094 "/>
<path style=" stroke:none;fill-rule:nonzero;fill:rgb(96.078431%,96.078431%,96.078431%);fill-opacity:1;" d="M 372.125 343.886719 L 931.308594 343.886719 L 931.308594 1080.058594 L 372.125 1080.058594 Z M 372.125 343.886719 "/>
<path style="fill:none;stroke-width:0.08;stroke-linecap:butt;stroke-linejoin:miter;stroke:rgb(0.784314%,17.647059%,41.960784%);stroke-opacity:1;stroke-miterlimit:10;" d="M 0.466187 0.791412 C 0.466187 0.791412 0.419662 0.70816 0.448517 0.551605 Z M 0.466187 0.791412 " transform="matrix(512,0,0,512,0,0)"/>
<path style=" stroke:none;fill-rule:nonzero;fill:rgb(96.078431%,0%,0.392157%);fill-opacity:1;" d="M 134.90625 69.03125 L 120.503906 249.488281 L 341.128906 81.363281 Z M 134.90625 69.03125 "/>
<path style=" stroke:none;fill-rule:nonzero;fill:rgb(0%,0%,0%);fill-opacity:1;" d="M 101.199219 264.101563 C 100.597656 263.4375 100.296875 262.671875 100.300781 261.800781 C 101.296875 232.003906 102.230469 210.304688 103.101563 196.699219 C 103.164063 195.902344 103.511719 195.21875 104.148438 194.652344 C 104.78125 194.085938 105.5 193.835938 106.300781 193.902344 C 107.097656 193.96875 107.78125 194.316406 108.347656 194.949219 C 108.914063 195.582031 109.164063 196.300781 109.101563 197.101563 C 108.230469 210.703125 107.328125 231.4375 106.398438 259.300781 C 109.261719 259.636719 111.597656 259.800781 113.398438 259.800781 C 114.199219 259.800781 114.898438 260.101563 115.5 260.703125 C 116.097656 261.304688 116.398438 262.003906 116.398438 262.800781 C 116.398438 263.601563 116.097656 264.304688 115.5 264.902344 C 114.898438 265.503906 114.199219 265.800781 113.398438 265.800781 C 111.265625 265.800781 107.832031 265.535156 103.101563 265 C 102.363281 264.933594 101.730469 264.632813 101.199219 264.101563 Z M 125.300781 231.898438 C 127.03125 231.566406 128.597656 231.035156 130 230.300781 C 130.664063 229.902344 131.628906 229.101563 132.898438 227.902344 C 134.164063 226.703125 135.265625 225.402344 136.199219 224 C 137.265625 222.46875 137.898438 221.171875 138.101563 220.101563 C 138.230469 219.4375 138.164063 218.9375 137.898438 218.601563 C 137.097656 217.804688 135.597656 218.136719 133.398438 219.601563 C 132.265625 220.402344 131.214844 221.335938 130.25 222.402344 C 129.28125 223.46875 128.632813 224.335938 128.300781 225 C 127.097656 227.269531 126.097656 229.566406 125.300781 231.898438 Z M 118.800781 232.5 C 119.796875 228.96875 121.164063 225.535156 122.898438 222.199219 C 123.5 221.070313 124.464844 219.785156 125.800781 218.351563 C 127.128906 216.917969 128.5625 215.703125 130.101563 214.699219 C 134.898438 211.371094 138.898438 211.269531 142.101563 214.398438 C 143.960938 216.136719 144.59375 218.4375 144 221.300781 C 143.59375 223.171875 142.660156 225.203125 141.199219 227.398438 C 139.996094 229.132813 138.597656 230.769531 137 232.300781 C 135.398438 233.839844 134 234.90625 132.800781 235.5 C 130.199219 236.96875 127.164063 237.867188 123.699219 238.199219 C 122.363281 245.867188 123.664063 251.933594 127.601563 256.398438 C 129.933594 259.066406 132.5 260.433594 135.300781 260.5 C 137.832031 260.570313 140.433594 259.570313 143.101563 257.5 C 145.765625 255.433594 147.898438 252.75 149.5 249.449219 C 151.097656 246.152344 151.796875 243.003906 151.601563 240 C 151.53125 239.203125 151.78125 238.484375 152.347656 237.851563 C 152.914063 237.21875 153.597656 236.871094 154.398438 236.800781 C 155.199219 236.738281 155.914063 236.988281 156.550781 237.550781 C 157.179688 238.121094 157.53125 238.804688 157.601563 239.601563 C 157.863281 243.738281 156.960938 247.871094 154.898438 252 C 152.828125 256.203125 150.128906 259.601563 146.800781 262.199219 C 143.0625 265.132813 139.195313 266.5625 135.199219 266.5 C 130.597656 266.429688 126.53125 264.398438 123 260.398438 C 117.929688 254.601563 116.164063 247.035156 117.699219 237.699219 C 116.964844 237.101563 116.597656 236.335938 116.601563 235.398438 C 116.597656 234.734375 116.816406 234.136719 117.25 233.601563 C 117.679688 233.070313 118.195313 232.703125 118.800781 232.5 Z M 157.097656 239.699219 C 159.367188 239.769531 161.765625 239.769531 164.300781 239.699219 C 164.363281 233.367188 164.363281 229.132813 164.300781 227 C 164.296875 225 164.097656 221.769531 163.699219 217.300781 C 163.363281 212.972656 163.195313 209.605469 163.199219 207.199219 C 163.195313 206.402344 163.496094 205.703125 164.097656 205.101563 C 164.699219 204.503906 165.398438 204.203125 166.199219 204.199219 C 166.996094 204.203125 167.695313 204.503906 168.296875 205.101563 C 168.894531 205.703125 169.195313 206.402344 169.199219 207.199219 C 169.195313 209.070313 169.363281 212.304688 169.699219 216.902344 C 170.03125 221.503906 170.230469 224.867188 170.300781 227 C 170.363281 229.402344 170.363281 233.570313 170.300781 239.5 C 172.097656 239.433594 174.695313 239.300781 178.097656 239.101563 C 181.496094 238.902344 183.964844 238.769531 185.5 238.699219 C 186.296875 238.636719 186.996094 238.886719 187.597656 239.453125 C 188.195313 240.019531 188.527344 240.71875 188.597656 241.550781 C 188.660156 242.386719 188.410156 243.105469 187.847656 243.703125 C 187.277344 244.304688 186.5625 244.636719 185.699219 244.699219 C 184.296875 244.769531 181.847656 244.902344 178.347656 245.101563 C 174.847656 245.300781 172.164063 245.433594 170.300781 245.5 C 170.296875 253.371094 170.730469 260.136719 171.597656 265.800781 C 171.730469 266.667969 171.546875 267.433594 171.050781 268.101563 C 170.546875 268.765625 169.878906 269.164063 169.050781 269.300781 C 168.214844 269.429688 167.464844 269.246094 166.800781 268.75 C 166.128906 268.246094 165.730469 267.597656 165.597656 266.800781 C 164.730469 261.132813 164.296875 254.101563 164.300781 245.699219 C 161.695313 245.769531 159.230469 245.769531 156.898438 245.699219 C 156.101563 245.703125 155.417969 245.402344 154.851563 244.800781 C 154.285156 244.199219 154.003906 243.484375 154 242.648438 C 154.003906 241.820313 154.304688 241.121094 154.902344 240.550781 C 155.503906 239.988281 156.234375 239.703125 157.097656 239.699219 Z M 216 224.398438 C 206.394531 230 200.996094 239.101563 199.800781 251.699219 C 199.53125 254.4375 199.695313 256.804688 200.296875 258.800781 C 200.894531 260.804688 201.828125 261.835938 203.097656 261.898438 C 203.960938 261.96875 205.03125 261.105469 206.300781 259.300781 C 207.832031 257.238281 209.296875 254.304688 210.699219 250.5 C 211.960938 247.304688 213.027344 243.953125 213.898438 240.449219 C 214.761719 236.953125 215.296875 234.304688 215.5 232.5 C 215.632813 231.4375 215.796875 228.734375 216 224.398438 Z M 218.800781 245.398438 C 218.0625 247.867188 217.230469 250.300781 216.300781 252.699219 C 214.695313 257.035156 212.996094 260.402344 211.199219 262.800781 C 208.597656 266.332031 205.761719 268.03125 202.699219 267.898438 C 198.628906 267.699219 195.898438 265.234375 194.5 260.5 C 193.699219 257.769531 193.464844 254.636719 193.800781 251.101563 C 195.265625 235.371094 202.632813 224.203125 215.898438 217.601563 C 216.695313 217.203125 217.496094 217.171875 218.300781 217.5 C 218.363281 217.503906 218.429688 217.46875 218.5 217.398438 C 219.699219 217.203125 220.699219 217.605469 221.5 218.601563 C 221.699219 218.804688 221.832031 219.070313 221.898438 219.398438 L 222.097656 220.199219 L 222.097656 220.5 C 222.566406 232.90625 224.933594 248.234375 229.199219 266.5 C 229.398438 267.296875 229.28125 268.046875 228.847656 268.75 C 228.414063 269.445313 227.796875 269.894531 227 270.097656 C 226.199219 270.292969 225.449219 270.179688 224.75 269.75 C 224.046875 269.316406 223.597656 268.699219 223.398438 267.898438 C 221.398438 259.433594 219.863281 251.933594 218.800781 245.398438 Z M 238.199219 231.898438 C 239.929688 231.566406 241.496094 231.035156 242.898438 230.300781 C 243.5625 229.902344 244.527344 229.101563 245.796875 227.902344 C 247.0625 226.703125 248.164063 225.402344 249.097656 224 C 250.164063 222.46875 250.796875 221.171875 251 220.101563 C 251.128906 219.4375 251.0625 218.9375 250.796875 218.601563 C 249.996094 217.804688 248.496094 218.136719 246.296875 219.601563 C 245.164063 220.402344 244.113281 221.335938 243.148438 222.402344 C 242.179688 223.46875 241.53125 224.335938 241.199219 225 C 239.996094 227.269531 238.996094 229.566406 238.199219 231.898438 Z M 231.699219 232.5 C 232.695313 228.96875 234.0625 225.535156 235.796875 222.199219 C 236.398438 221.070313 237.363281 219.785156 238.699219 218.351563 C 240.027344 216.917969 241.460938 215.703125 243 214.699219 C 247.796875 211.371094 251.796875 211.269531 255 214.398438 C 256.859375 216.136719 257.492188 218.4375 256.898438 221.300781 C 256.492188 223.171875 255.558594 225.203125 254.097656 227.398438 C 252.894531 229.132813 251.496094 230.769531 249.898438 232.300781 C 248.296875 233.839844 246.898438 234.90625 245.699219 235.5 C 243.097656 236.96875 240.0625 237.867188 236.597656 238.199219 C 235.261719 245.867188 236.5625 251.933594 240.5 256.398438 C 242.832031 259.066406 245.398438 260.433594 248.199219 260.5 C 250.730469 260.570313 253.332031 259.570313 256 257.5 C 258.664063 255.433594 260.796875 252.75 262.398438 249.449219 C 263.996094 246.152344 264.695313 243.003906 264.5 240 C 264.429688 239.203125 264.679688 238.484375 265.246094 237.851563 C 265.8125 237.21875 266.496094 236.871094 267.296875 236.800781 C 268.097656 236.738281 268.8125 236.988281 269.449219 237.550781 C 270.078125 238.121094 270.429688 238.804688 270.5 239.601563 C 270.761719 243.738281 269.859375 247.871094 267.796875 252 C 265.726563 256.203125 263.027344 259.601563 259.699219 262.199219 C 255.960938 265.132813 252.09375 266.5625 248.097656 266.5 C 243.496094 266.429688 239.429688 264.398438 235.898438 260.398438 C 230.828125 254.601563 229.0625 247.035156 230.597656 237.699219 C 229.863281 237.101563 229.496094 236.335938 229.5 235.398438 C 229.496094 234.734375 229.714844 234.136719 230.148438 233.601563 C 230.578125 233.070313 231.09375 232.703125 231.699219 232.5 Z M 307.101563 215.199219 L 305.902344 215.199219 C 304.101563 215.199219 302.703125 215.835938 301.703125 217.101563 C 300.703125 218.371094 299.667969 220.46875 298.601563 223.398438 C 297.667969 226.136719 296.867188 228.96875 296.203125 231.898438 C 296.199219 234.566406 295.898438 239.902344 295.300781 247.898438 C 295.230469 249.171875 295.164063 250.972656 295.101563 253.300781 C 295.097656 255.972656 295.066406 257.90625 295 259.101563 L 295 261.699219 C 295 262.433594 294.964844 263.035156 294.902344 263.5 C 294.832031 263.902344 294.667969 264.234375 294.402344 264.5 C 293.734375 265.566406 292.765625 266.035156 291.5 265.898438 C 290.699219 265.769531 290.03125 265.402344 289.5 264.800781 C 289.296875 264.535156 289.132813 264.269531 289 264 C 288.46875 263.003906 288.234375 261.734375 288.300781 260.199219 C 288.296875 260.136719 288.332031 259.671875 288.402344 258.800781 L 288.402344 257.898438 C 287.867188 248.234375 288.464844 239.335938 290.203125 231.199219 C 290.199219 224.472656 289.464844 219.703125 288 216.898438 C 287.195313 215.5 286.5625 214.769531 286.101563 214.699219 C 285.5 214.769531 284.703125 215.402344 283.703125 216.601563 C 282.632813 217.9375 281.664063 219.554688 280.800781 221.453125 C 279.929688 223.355469 279.328125 225.003906 279 226.398438 C 279.0625 232.203125 279.03125 236.769531 278.902344 240.101563 C 278.832031 241.234375 278.746094 243.167969 278.648438 245.902344 C 278.546875 248.636719 278.480469 250.753906 278.449219 252.25 C 278.414063 253.753906 278.398438 255.621094 278.402344 257.851563 C 278.398438 260.085938 278.464844 262.136719 278.601563 264 C 278.664063 264.804688 278.414063 265.515625 277.851563 266.148438 C 277.28125 266.78125 276.597656 267.132813 275.800781 267.199219 C 274.996094 267.265625 274.28125 267.015625 273.652344 266.449219 C 273.015625 265.882813 272.664063 265.203125 272.601563 264.398438 C 272.464844 262.539063 272.398438 260.4375 272.402344 258.101563 C 272.398438 255.769531 272.414063 253.871094 272.449219 252.402344 C 272.480469 250.9375 272.566406 248.738281 272.699219 245.800781 C 272.832031 242.871094 272.898438 240.902344 272.902344 239.898438 C 273.03125 236.703125 273.0625 232.535156 273 227.398438 C 272.863281 227 272.832031 226.570313 272.902344 226.101563 C 272.964844 226.039063 272.996094 225.9375 273 225.800781 C 272.929688 218.734375 272.929688 213.699219 273 210.699219 C 272.996094 209.902344 273.296875 209.222656 273.898438 208.652344 C 274.496094 208.089844 275.214844 207.804688 276.050781 207.800781 C 276.882813 207.804688 277.582031 208.105469 278.148438 208.703125 C 278.714844 209.304688 278.996094 210.035156 279 210.898438 L 279 212.800781 C 281.195313 210.203125 283.464844 208.867188 285.800781 208.800781 C 288.800781 208.601563 291.265625 210.371094 293.203125 214.101563 C 293.730469 215.039063 294.199219 216.105469 294.601563 217.300781 C 297.132813 211.839844 300.898438 209.136719 305.902344 209.199219 C 308.101563 209.269531 309.734375 209.671875 310.800781 210.398438 C 313.332031 212.402344 315.097656 216.433594 316.101563 222.5 C 316.832031 226.96875 317.199219 232.703125 317.203125 239.699219 C 317.199219 244.5 317 250.632813 316.601563 258.101563 C 316.199219 265.566406 316 269.53125 316 270 C 316 270.796875 315.699219 271.480469 315.101563 272.046875 C 314.5 272.613281 313.785156 272.894531 312.953125 272.898438 C 312.117188 272.894531 311.414063 272.597656 310.851563 272 C 310.28125 271.398438 310 270.664063 310 269.800781 C 310 269.398438 310.199219 265.484375 310.601563 258.050781 C 311 250.617188 311.199219 244.5 311.203125 239.699219 C 311.199219 233.035156 310.832031 227.636719 310.101563 223.5 C 309.429688 219.101563 308.429688 216.332031 307.101563 215.199219 Z M 317.199219 266 "/>
</g>
</svg>
