<?xml version="1.0" standalone="no"?>
<!DOCTYPE svg PUBLIC "-//W3C//DTD SVG 1.1//EN"
 "http://www.w3.org/Graphics/SVG/1.1/DTD/svg11.dtd">
<!-- Created with svg_stack (http://github.com/astraw/svg_stack) -->
<svg xmlns="http://www.w3.org/2000/svg" xmlns:sodipodi="http://sodipodi.sourceforge.net/DTD/sodipodi-0.dtd" xmlns:xlink="http://www.w3.org/1999/xlink" version="1.1" width="640.0" height="640.0">
  <defs/>
  <g id="id0:id0" transform="matrix(1.25,0,0,1.25,0.0,0.0)"><g id="id0:surface31">
<path style=" stroke:none;fill-rule:nonzero;fill:rgb(97.254902%,98.823529%,98.823529%);fill-opacity:1;" d="M 131.832031 290.261719 L 354.929688 290.261719 L 354.929688 792.019531 L 131.832031 792.019531 Z M 131.832031 290.261719 "/>
<path style=" stroke:none;fill-rule:nonzero;fill:rgb(15.294118%,19.607843%,17.647059%);fill-opacity:1;" d="M 396.230469 77.316406 L 536.882813 77.316406 L 536.882813 523.496094 L 396.230469 523.496094 Z M 396.230469 77.316406 "/>
<path style="fill:none;stroke-width:2;stroke-linecap:butt;stroke-linejoin:miter;stroke:rgb(0%,0%,0%);stroke-opacity:1;stroke-miterlimit:10;" d="M 162.199219 228.101563 C 161.597656 227.4375 161.296875 226.671875 161.300781 225.800781 C 162.296875 196.003906 163.230469 174.304688 164.101563 160.699219 C 164.164063 159.902344 164.511719 159.21875 165.148438 158.652344 C 165.78125 158.085938 166.5 157.835938 167.300781 157.902344 C 168.097656 157.96875 168.78125 158.316406 169.347656 158.949219 C 169.914063 159.582031 170.164063 160.300781 170.101563 161.101563 C 169.230469 174.703125 168.328125 195.4375 167.398438 223.300781 C 170.261719 223.636719 172.597656 223.800781 174.398438 223.800781 C 175.199219 223.800781 175.898438 224.101563 176.5 224.703125 C 177.097656 225.304688 177.398438 226.003906 177.398438 226.800781 C 177.398438 227.601563 177.097656 228.304688 176.5 228.902344 C 175.898438 229.503906 175.199219 229.800781 174.398438 229.800781 C 172.265625 229.800781 168.832031 229.535156 164.101563 229 C 163.363281 228.933594 162.730469 228.632813 162.199219 228.101563 Z M 186.300781 195.898438 C 188.03125 195.566406 189.597656 195.035156 191 194.300781 C 191.664063 193.902344 192.628906 193.101563 193.898438 191.902344 C 195.164063 190.703125 196.265625 189.402344 197.199219 188 C 198.265625 186.46875 198.898438 185.171875 199.101563 184.101563 C 199.230469 183.4375 199.164063 182.9375 198.898438 182.601563 C 198.097656 181.804688 196.597656 182.136719 194.398438 183.601563 C 193.265625 184.402344 192.214844 185.335938 191.25 186.402344 C 190.28125 187.46875 189.632813 188.335938 189.300781 189 C 188.097656 191.269531 187.097656 193.566406 186.300781 195.898438 Z M 179.800781 196.5 C 180.796875 192.96875 182.164063 189.535156 183.898438 186.199219 C 184.5 185.070313 185.464844 183.785156 186.800781 182.351563 C 188.128906 180.917969 189.5625 179.703125 191.101563 178.699219 C 195.898438 175.371094 199.898438 175.269531 203.101563 178.398438 C 204.960938 180.136719 205.59375 182.4375 205 185.300781 C 204.59375 187.171875 203.660156 189.203125 202.199219 191.398438 C 200.996094 193.132813 199.597656 194.769531 198 196.300781 C 196.398438 197.839844 195 198.90625 193.800781 199.5 C 191.199219 200.96875 188.164063 201.867188 184.699219 202.199219 C 183.363281 209.867188 184.664063 215.933594 188.601563 220.398438 C 190.933594 223.066406 193.5 224.433594 196.300781 224.5 C 198.832031 224.570313 201.433594 223.570313 204.101563 221.5 C 206.765625 219.433594 208.898438 216.75 210.5 213.449219 C 212.097656 210.152344 212.796875 207.003906 212.601563 204 C 212.53125 203.203125 212.78125 202.484375 213.347656 201.851563 C 213.914063 201.21875 214.597656 200.871094 215.398438 200.800781 C 216.199219 200.738281 216.914063 200.988281 217.550781 201.550781 C 218.179688 202.121094 218.53125 202.804688 218.601563 203.601563 C 218.863281 207.738281 217.960938 211.871094 215.898438 216 C 213.828125 220.203125 211.128906 223.601563 207.800781 226.199219 C 204.0625 229.132813 200.195313 230.5625 196.199219 230.5 C 191.597656 230.429688 187.53125 228.398438 184 224.398438 C 178.929688 218.601563 177.164063 211.035156 178.699219 201.699219 C 177.964844 201.101563 177.597656 200.335938 177.601563 199.398438 C 177.597656 198.734375 177.816406 198.136719 178.25 197.601563 C 178.679688 197.070313 179.195313 196.703125 179.800781 196.5 Z M 218.097656 203.699219 C 220.367188 203.769531 222.765625 203.769531 225.300781 203.699219 C 225.363281 197.367188 225.363281 193.132813 225.300781 191 C 225.296875 189 225.097656 185.769531 224.699219 181.300781 C 224.363281 176.972656 224.195313 173.605469 224.199219 171.199219 C 224.195313 170.402344 224.496094 169.703125 225.097656 169.101563 C 225.699219 168.503906 226.398438 168.203125 227.199219 168.199219 C 227.996094 168.203125 228.695313 168.503906 229.296875 169.101563 C 229.894531 169.703125 230.195313 170.402344 230.199219 171.199219 C 230.195313 173.070313 230.363281 176.304688 230.699219 180.902344 C 231.03125 185.503906 231.230469 188.867188 231.300781 191 C 231.363281 193.402344 231.363281 197.570313 231.300781 203.5 C 233.097656 203.433594 235.695313 203.300781 239.097656 203.101563 C 242.496094 202.902344 244.964844 202.769531 246.5 202.699219 C 247.296875 202.636719 247.996094 202.886719 248.597656 203.453125 C 249.195313 204.019531 249.527344 204.71875 249.597656 205.550781 C 249.660156 206.386719 249.410156 207.105469 248.847656 207.703125 C 248.277344 208.304688 247.5625 208.636719 246.699219 208.699219 C 245.296875 208.769531 242.847656 208.902344 239.347656 209.101563 C 235.847656 209.300781 233.164063 209.433594 231.300781 209.5 C 231.296875 217.371094 231.730469 224.136719 232.597656 229.800781 C 232.730469 230.667969 232.546875 231.433594 232.050781 232.101563 C 231.546875 232.765625 230.878906 233.164063 230.050781 233.300781 C 229.214844 233.429688 228.464844 233.246094 227.800781 232.75 C 227.128906 232.246094 226.730469 231.597656 226.597656 230.800781 C 225.730469 225.132813 225.296875 218.101563 225.300781 209.699219 C 222.695313 209.769531 220.230469 209.769531 217.898438 209.699219 C 217.101563 209.703125 216.417969 209.402344 215.851563 208.800781 C 215.285156 208.199219 215.003906 207.484375 215 206.648438 C 215.003906 205.820313 215.304688 205.121094 215.902344 204.550781 C 216.503906 203.988281 217.234375 203.703125 218.097656 203.699219 Z M 277 188.398438 C 267.394531 194 261.996094 203.101563 260.800781 215.699219 C 260.53125 218.4375 260.695313 220.804688 261.296875 222.800781 C 261.894531 224.804688 262.828125 225.835938 264.097656 225.898438 C 264.960938 225.96875 266.03125 225.105469 267.300781 223.300781 C 268.832031 221.238281 270.296875 218.304688 271.699219 214.5 C 272.960938 211.304688 274.027344 207.953125 274.898438 204.449219 C 275.761719 200.953125 276.296875 198.304688 276.5 196.5 C 276.632813 195.4375 276.796875 192.734375 277 188.398438 Z M 279.800781 209.398438 C 279.0625 211.867188 278.230469 214.300781 277.300781 216.699219 C 275.695313 221.035156 273.996094 224.402344 272.199219 226.800781 C 269.597656 230.332031 266.761719 232.03125 263.699219 231.898438 C 259.628906 231.699219 256.898438 229.234375 255.5 224.5 C 254.699219 221.769531 254.464844 218.636719 254.800781 215.101563 C 256.265625 199.371094 263.632813 188.203125 276.898438 181.601563 C 277.695313 181.203125 278.496094 181.171875 279.300781 181.5 C 279.363281 181.503906 279.429688 181.46875 279.5 181.398438 C 280.699219 181.203125 281.699219 181.605469 282.5 182.601563 C 282.699219 182.804688 282.832031 183.070313 282.898438 183.398438 L 283.097656 184.199219 L 283.097656 184.5 C 283.566406 196.90625 285.933594 212.234375 290.199219 230.5 C 290.398438 231.296875 290.28125 232.046875 289.847656 232.75 C 289.414063 233.445313 288.796875 233.894531 288 234.097656 C 287.199219 234.292969 286.449219 234.179688 285.75 233.75 C 285.046875 233.316406 284.597656 232.699219 284.398438 231.898438 C 282.398438 223.433594 280.863281 215.933594 279.800781 209.398438 Z M 299.199219 195.898438 C 300.929688 195.566406 302.496094 195.035156 303.898438 194.300781 C 304.5625 193.902344 305.527344 193.101563 306.796875 191.902344 C 308.0625 190.703125 309.164063 189.402344 310.097656 188 C 311.164063 186.46875 311.796875 185.171875 312 184.101563 C 312.128906 183.4375 312.0625 182.9375 311.796875 182.601563 C 310.996094 181.804688 309.496094 182.136719 307.296875 183.601563 C 306.164063 184.402344 305.113281 185.335938 304.148438 186.402344 C 303.179688 187.46875 302.53125 188.335938 302.199219 189 C 300.996094 191.269531 299.996094 193.566406 299.199219 195.898438 Z M 292.699219 196.5 C 293.695313 192.96875 295.0625 189.535156 296.796875 186.199219 C 297.398438 185.070313 298.363281 183.785156 299.699219 182.351563 C 301.027344 180.917969 302.460938 179.703125 304 178.699219 C 308.796875 175.371094 312.796875 175.269531 316 178.398438 C 317.859375 180.136719 318.492188 182.4375 317.898438 185.300781 C 317.492188 187.171875 316.558594 189.203125 315.097656 191.398438 C 313.894531 193.132813 312.496094 194.769531 310.898438 196.300781 C 309.296875 197.839844 307.898438 198.90625 306.699219 199.5 C 304.097656 200.96875 301.0625 201.867188 297.597656 202.199219 C 296.261719 209.867188 297.5625 215.933594 301.5 220.398438 C 303.832031 223.066406 306.398438 224.433594 309.199219 224.5 C 311.730469 224.570313 314.332031 223.570313 317 221.5 C 319.664063 219.433594 321.796875 216.75 323.398438 213.449219 C 324.996094 210.152344 325.695313 207.003906 325.5 204 C 325.429688 203.203125 325.679688 202.484375 326.246094 201.851563 C 326.8125 201.21875 327.496094 200.871094 328.296875 200.800781 C 329.097656 200.738281 329.8125 200.988281 330.449219 201.550781 C 331.078125 202.121094 331.429688 202.804688 331.5 203.601563 C 331.761719 207.738281 330.859375 211.871094 328.796875 216 C 326.726563 220.203125 324.027344 223.601563 320.699219 226.199219 C 316.960938 229.132813 313.09375 230.5625 309.097656 230.5 C 304.496094 230.429688 300.429688 228.398438 296.898438 224.398438 C 291.828125 218.601563 290.0625 211.035156 291.597656 201.699219 C 290.863281 201.101563 290.496094 200.335938 290.5 199.398438 C 290.496094 198.734375 290.714844 198.136719 291.148438 197.601563 C 291.578125 197.070313 292.09375 196.703125 292.699219 196.5 Z M 368.101563 179.199219 L 366.902344 179.199219 C 365.101563 179.199219 363.703125 179.835938 362.703125 181.101563 C 361.703125 182.371094 360.667969 184.46875 359.601563 187.398438 C 358.667969 190.136719 357.867188 192.96875 357.203125 195.898438 C 357.199219 198.566406 356.898438 203.902344 356.300781 211.898438 C 356.230469 213.171875 356.164063 214.972656 356.101563 217.300781 C 356.097656 219.972656 356.066406 221.90625 356 223.101563 L 356 225.699219 C 356 226.433594 355.964844 227.035156 355.902344 227.5 C 355.832031 227.902344 355.667969 228.234375 355.402344 228.5 C 354.734375 229.566406 353.765625 230.035156 352.5 229.898438 C 351.699219 229.769531 351.03125 229.402344 350.5 228.800781 C 350.296875 228.535156 350.132813 228.269531 350 228 C 349.46875 227.003906 349.234375 225.734375 349.300781 224.199219 C 349.296875 224.136719 349.332031 223.671875 349.402344 222.800781 L 349.402344 221.898438 C 348.867188 212.234375 349.464844 203.335938 351.203125 195.199219 C 351.199219 188.472656 350.464844 183.703125 349 180.898438 C 348.195313 179.5 347.5625 178.769531 347.101563 178.699219 C 346.5 178.769531 345.703125 179.402344 344.703125 180.601563 C 343.632813 181.9375 342.664063 183.554688 341.800781 185.453125 C 340.929688 187.355469 340.328125 189.003906 340 190.398438 C 340.0625 196.203125 340.03125 200.769531 339.902344 204.101563 C 339.832031 205.234375 339.746094 207.167969 339.648438 209.902344 C 339.546875 212.636719 339.480469 214.753906 339.449219 216.25 C 339.414063 217.753906 339.398438 219.621094 339.402344 221.851563 C 339.398438 224.085938 339.464844 226.136719 339.601563 228 C 339.664063 228.804688 339.414063 229.515625 338.851563 230.148438 C 338.28125 230.78125 337.597656 231.132813 336.800781 231.199219 C 335.996094 231.265625 335.28125 231.015625 334.652344 230.449219 C 334.015625 229.882813 333.664063 229.203125 333.601563 228.398438 C 333.464844 226.539063 333.398438 224.4375 333.402344 222.101563 C 333.398438 219.769531 333.414063 217.871094 333.449219 216.402344 C 333.480469 214.9375 333.566406 212.738281 333.699219 209.800781 C 333.832031 206.871094 333.898438 204.902344 333.902344 203.898438 C 334.03125 200.703125 334.0625 196.535156 334 191.398438 C 333.863281 191 333.832031 190.570313 333.902344 190.101563 C 333.964844 190.039063 333.996094 189.9375 334 189.800781 C 333.929688 182.734375 333.929688 177.699219 334 174.699219 C 333.996094 173.902344 334.296875 173.222656 334.898438 172.652344 C 335.496094 172.089844 336.214844 171.804688 337.050781 171.800781 C 337.882813 171.804688 338.582031 172.105469 339.148438 172.703125 C 339.714844 173.304688 339.996094 174.035156 340 174.898438 L 340 176.800781 C 342.195313 174.203125 344.464844 172.867188 346.800781 172.800781 C 349.800781 172.601563 352.265625 174.371094 354.203125 178.101563 C 354.730469 179.039063 355.199219 180.105469 355.601563 181.300781 C 358.132813 175.839844 361.898438 173.136719 366.902344 173.199219 C 369.101563 173.269531 370.734375 173.671875 371.800781 174.398438 C 374.332031 176.402344 376.097656 180.433594 377.101563 186.5 C 377.832031 190.96875 378.199219 196.703125 378.203125 203.699219 C 378.199219 208.5 378 214.632813 377.601563 222.101563 C 377.199219 229.566406 377 233.53125 377 234 C 377 234.796875 376.699219 235.480469 376.101563 236.046875 C 375.5 236.613281 374.785156 236.894531 373.953125 236.898438 C 373.117188 236.894531 372.414063 236.597656 371.851563 236 C 371.28125 235.398438 371 234.664063 371 233.800781 C 371 233.398438 371.199219 229.484375 371.601563 222.050781 C 372 214.617188 372.199219 208.5 372.203125 203.699219 C 372.199219 197.035156 371.832031 191.636719 371.101563 187.5 C 370.429688 183.101563 369.429688 180.332031 368.101563 179.199219 Z M 378.199219 230 "/>
</g>
</g>
  <g id="id1:id1" transform="matrix(1.0,0,0,1.0,128.0,64.0)"><path d="M464 342C464 354.887 453.183 367.127 434.372 376.263C415.698 385.334 389.76 391 361 391C332.24 391 306.302 385.334 287.628 376.263C268.817 367.127 258 354.887 258 342C258 329.113 268.817 316.873 287.628 307.737C306.302 298.666 332.24 293 361 293C389.76 293 415.698 298.666 434.372 307.737C453.183 316.873 464 329.113 464 342Z" fill="white" fill-opacity="0.01" stroke="black" stroke-width="4"/>
</g>
</svg>
