<?xml version="1.0" standalone="no"?>
<!DOCTYPE svg PUBLIC "-//W3C//DTD SVG 1.1//EN"
 "http://www.w3.org/Graphics/SVG/1.1/DTD/svg11.dtd">
<!-- Created with svg_stack (http://github.com/astraw/svg_stack) -->
<svg xmlns="http://www.w3.org/2000/svg" xmlns:sodipodi="http://sodipodi.sourceforge.net/DTD/sodipodi-0.dtd" xmlns:xlink="http://www.w3.org/1999/xlink" version="1.1" width="640.0" height="640.0">
  <defs><clipPath id="id1:clip0">
<rect width="512" height="512" fill="white"/>
</clipPath>
</defs>
  <g id="id0:id0" transform="matrix(1.25,0,0,1.25,0.0,0.0)"><g id="id0:surface36">
<path style=" stroke:none;fill-rule:nonzero;fill:rgb(26.27451%,39.215686%,36.862745%);fill-opacity:1;" d="M 332.855469 19.375 L 888.898438 19.375 L 888.898438 404.757813 L 332.855469 404.757813 Z M 332.855469 19.375 "/>
<path style=" stroke:none;fill-rule:nonzero;fill:rgb(57.647059%,58.039216%,49.411765%);fill-opacity:1;" d="M 122.933594 396.699219 L 334.425781 396.699219 L 334.425781 1282.09375 L 122.933594 1282.09375 Z M 122.933594 396.699219 "/>
<path style=" stroke:none;fill-rule:nonzero;fill:rgb(79.215686%,83.921569%,84.313725%);fill-opacity:1;" d="M 239.792969 312.5 C 239.792969 312.5 510.640625 438.039063 361.441406 104.394531 Z M 239.792969 312.5 "/>
<path style=" stroke:none;fill-rule:nonzero;fill:rgb(0%,0%,0%);fill-opacity:1;" d="M 136.101563 137.601563 C 136.085938 136.890625 135.859375 136.3125 135.425781 135.863281 C 134.984375 135.417969 134.410156 135.164063 133.699219 135.101563 C 132.976563 135.113281 132.363281 135.335938 131.859375 135.773438 C 131.351563 136.210938 131.066406 136.789063 131 137.5 L 130.601563 152.300781 L 130.398438 162.199219 L 130.199219 176.699219 C 130.183594 182.058594 130.429688 186.421875 130.9375 189.789063 C 131.4375 193.160156 132.257813 195.796875 133.398438 197.699219 C 134.664063 200.042969 136.480469 201.917969 138.847656 203.328125 C 141.210938 204.738281 143.730469 205.460938 146.398438 205.5 C 149.6875 205.46875 152.527344 204.53125 154.921875 202.6875 C 157.3125 200.84375 159.003906 198.28125 160 195 L 160.101563 195 C 160.097656 194.960938 160.097656 194.894531 160.101563 194.800781 C 160.097656 194.710938 160.097656 194.546875 160.101563 194.300781 C 160.089844 193.742188 159.929688 193.242188 159.625 192.800781 C 159.3125 192.367188 158.90625 192.066406 158.398438 191.898438 C 157.6875 191.757813 157.058594 191.847656 156.511719 192.175781 C 155.964844 192.503906 155.558594 193.046875 155.300781 193.800781 C 154.65625 195.878906 153.535156 197.523438 151.9375 198.738281 C 150.332031 199.953125 148.488281 200.574219 146.398438 200.601563 C 144.695313 200.570313 143.027344 200.054688 141.398438 199.050781 C 139.769531 198.046875 138.503906 196.730469 137.601563 195.101563 C 136.714844 193.585938 136.082031 191.320313 135.699219 188.300781 C 135.546875 186.152344 135.425781 183.933594 135.335938 181.652344 C 135.246094 179.371094 135.199219 177.054688 135.199219 174.699219 C 135.496094 156.785156 135.796875 144.417969 136.101563 137.601563 Z M 176.800781 193 C 174.894531 190.820313 173.796875 188.085938 173.5 184.800781 L 173.300781 181.5 C 173.359375 176.480469 174.761719 172.222656 177.511719 168.726563 C 180.257813 165.230469 183.988281 162.921875 188.699219 161.800781 C 190.316406 161.316406 192.183594 161.085938 194.300781 161.101563 C 197.894531 161.132813 201.027344 161.953125 203.699219 163.5625 C 206.371094 165.179688 208.304688 167.425781 209.5 170.300781 L 193.5 181.5 C 193.296875 181.585938 193.097656 181.71875 192.902344 181.898438 C 187.480469 185.800781 182.113281 189.503906 176.800781 193 Z M 208.699219 176.898438 L 213.699219 173.5 C 214.5 172.886719 214.902344 172.117188 214.902344 171.199219 C 214.902344 170.957031 214.894531 170.777344 214.886719 170.652344 C 214.871094 170.535156 214.84375 170.449219 214.800781 170.398438 C 213.378906 165.957031 210.839844 162.472656 207.1875 159.949219 C 203.527344 157.429688 199.167969 156.148438 194.101563 156.101563 C 192.398438 156.121094 190.195313 156.386719 187.5 156.898438 C 181.621094 158.386719 176.972656 161.320313 173.550781 165.699219 C 170.125 170.085938 168.375 175.417969 168.300781 181.699219 L 168.5 185.398438 C 169.074219 189.410156 170.449219 192.839844 172.625 195.6875 C 174.796875 198.539063 177.621094 200.742188 181.101563 202.300781 C 184.578125 203.898438 188.3125 204.695313 192.300781 204.699219 C 196.542969 204.675781 200.425781 203.867188 203.949219 202.261719 C 207.46875 200.65625 210.351563 198.367188 212.601563 195.398438 C 213.695313 193.945313 214.570313 192.332031 215.222656 190.550781 C 215.871094 188.777344 216.296875 186.859375 216.5 184.800781 C 216.535156 184.125 216.335938 183.53125 215.902344 183.015625 C 215.460938 182.503906 214.859375 182.230469 214.101563 182.199219 C 213.425781 182.21875 212.84375 182.4375 212.347656 182.851563 C 211.851563 183.273438 211.566406 183.789063 211.5 184.398438 C 210.953125 189.113281 208.945313 192.84375 205.476563 195.589844 C 202 198.339844 197.644531 199.742188 192.402344 199.800781 C 190.246094 199.804688 188.175781 199.53125 186.199219 198.976563 C 184.214844 198.429688 182.351563 197.601563 180.601563 196.5 L 195.800781 185.898438 L 196.402344 185.398438 C 198.546875 183.847656 200.644531 182.355469 202.699219 180.925781 C 204.746094 179.496094 206.746094 178.15625 208.699219 176.898438 Z M 233.601563 155.5 L 226 155.5 C 225.238281 155.519531 224.632813 155.765625 224.1875 156.238281 C 223.734375 156.71875 223.507813 157.339844 223.5 158.101563 C 223.523438 158.78125 223.777344 159.375 224.261719 159.890625 C 224.746094 160.40625 225.324219 160.675781 226 160.699219 L 235.101563 160.699219 L 235 170.601563 C 234.980469 179.320313 235.3125 185.488281 236 189.101563 C 236.585938 192.851563 237.609375 195.832031 239.0625 198.039063 C 240.515625 200.25 242.460938 202.003906 244.898438 203.300781 C 246.144531 203.953125 247.402344 204.445313 248.675781 204.785156 C 249.945313 205.125 251.253906 205.296875 252.601563 205.300781 C 256.046875 205.273438 259.046875 204.375 261.597656 202.601563 C 264.148438 200.828125 265.949219 198.328125 267 195.101563 L 267.199219 194.199219 C 267.191406 193.640625 267.027344 193.140625 266.710938 192.699219 C 266.390625 192.265625 265.953125 191.964844 265.398438 191.800781 L 264.601563 191.601563 C 264.128906 191.609375 263.667969 191.773438 263.222656 192.089844 C 262.773438 192.410156 262.46875 192.847656 262.300781 193.398438 C 261.511719 195.570313 260.253906 197.242188 258.535156 198.414063 C 256.808594 199.59375 254.832031 200.1875 252.601563 200.199219 C 250.746094 200.167969 248.949219 199.660156 247.210938 198.675781 C 245.46875 197.695313 244.097656 196.4375 243.101563 194.898438 C 242.640625 194.15625 242.222656 193.226563 241.847656 192.113281 C 241.464844 191.003906 241.148438 189.699219 240.898438 188.199219 C 240.378906 184.304688 240.113281 178.003906 240.101563 169.300781 L 240.101563 160.800781 C 241.515625 160.886719 244.984375 160.917969 250.5 160.898438 C 251.265625 160.886719 251.886719 160.644531 252.363281 160.164063 C 252.839844 159.6875 253.085938 159.066406 253.101563 158.300781 C 253.078125 157.628906 252.820313 157.03125 252.335938 156.515625 C 251.847656 156 251.269531 155.730469 250.601563 155.699219 C 244.996094 155.722656 241.496094 155.6875 240.101563 155.601563 L 240.101563 152 C 240.179688 150.503906 240.214844 146.402344 240.199219 139.699219 C 240.179688 138.9375 239.941406 138.320313 239.488281 137.839844 C 239.03125 137.363281 238.46875 137.117188 237.800781 137.101563 C 237.03125 137.113281 236.410156 137.34375 235.9375 137.800781 C 235.457031 138.261719 235.210938 138.894531 235.199219 139.699219 C 235.214844 146.402344 235.183594 150.503906 235.101563 152 L 235.101563 155.5 Z M 284 157.898438 C 283.976563 157.222656 283.742188 156.628906 283.296875 156.113281 C 282.847656 155.601563 282.316406 155.332031 281.699219 155.300781 C 280.9375 155.332031 280.332031 155.601563 279.886719 156.113281 C 279.433594 156.628906 279.207031 157.222656 279.199219 157.898438 C 279.195313 158.554688 279.199219 159.097656 279.210938 159.527344 C 279.21875 159.957031 279.246094 160.25 279.300781 160.398438 L 279.300781 162.800781 L 279.097656 166.898438 L 279.097656 167.398438 C 279.097656 167.65625 279.144531 167.898438 279.234375 168.125 C 279.324219 168.355469 279.445313 168.546875 279.597656 168.699219 C 279.996094 169.386719 280.59375 169.71875 281.398438 169.699219 C 281.957031 169.691406 282.457031 169.515625 282.898438 169.164063 C 283.332031 168.820313 283.632813 168.363281 283.800781 167.800781 C 283.910156 167.300781 283.976563 166.5 284 165.398438 L 284.300781 165.398438 C 287.796875 164.054688 290.925781 163.046875 293.6875 162.375 C 296.445313 161.703125 298.847656 161.347656 300.898438 161.300781 C 304.820313 161.277344 307.777344 162.28125 309.761719 164.3125 C 311.746094 166.351563 312.925781 169.578125 313.300781 174 C 311.800781 172.800781 310.597656 172.003906 309.699219 171.601563 C 308.25 170.90625 306.691406 170.378906 305.023438 170.027344 C 303.351563 169.675781 301.542969 169.5 299.597656 169.5 C 294.800781 169.53125 290.566406 170.394531 286.886719 172.089844 C 283.203125 173.785156 280.339844 176.125 278.300781 179.101563 C 277.25 180.558594 276.46875 182.097656 275.960938 183.726563 C 275.445313 185.355469 275.191406 187.046875 275.199219 188.800781 C 275.210938 191.785156 276.007813 194.519531 277.585938 197 C 279.160156 199.488281 281.429688 201.523438 284.398438 203.101563 C 287.296875 204.703125 290.597656 205.5 294.300781 205.5 C 297.214844 205.503906 300.007813 205.113281 302.675781 204.335938 C 305.339844 203.554688 308.082031 202.347656 310.898438 200.699219 C 310.953125 200.660156 311.292969 200.476563 311.921875 200.152344 C 312.550781 199.832031 313.441406 199.347656 314.597656 198.699219 C 315.550781 199.964844 317.058594 201.117188 319.121094 202.152344 C 321.175781 203.191406 323.136719 203.738281 325 203.800781 C 325.660156 203.785156 326.207031 203.539063 326.636719 203.0625 C 327.0625 202.585938 327.28125 201.964844 327.300781 201.199219 C 327.28125 200.632813 327.0625 200.148438 326.636719 199.738281 C 326.207031 199.335938 325.660156 199.121094 325 199.101563 C 323.71875 199.023438 322.300781 198.554688 320.75 197.6875 C 319.191406 196.828125 318.277344 196.03125 318 195.300781 C 317.996094 195.054688 317.972656 194.796875 317.9375 194.523438 C 317.894531 194.257813 317.851563 193.949219 317.800781 193.601563 C 317.714844 193.488281 317.679688 192.722656 317.699219 191.300781 C 317.710938 189.105469 317.878906 184.902344 318.199219 178.699219 C 318.242188 173.945313 317.777344 170.035156 316.8125 166.964844 C 315.839844 163.898438 314.101563 161.410156 311.597656 159.5 C 309.078125 157.585938 305.714844 156.621094 301.5 156.601563 C 297 156.621094 291.199219 157.886719 284.097656 160.398438 L 284.097656 160.300781 C 284.011719 160.003906 283.976563 159.203125 284 157.898438 Z M 313.199219 184.800781 C 312.996094 188.019531 312.894531 190.1875 312.898438 191.300781 C 312.878906 192.703125 312.914063 193.5 313 193.699219 L 311.898438 194.601563 C 311.148438 195.054688 310.496094 195.449219 309.9375 195.777344 C 309.375 196.109375 308.894531 196.347656 308.5 196.5 C 303.980469 199.21875 299.214844 200.585938 294.199219 200.601563 C 289.933594 200.546875 286.53125 199.460938 283.996094 197.339844 C 281.457031 195.222656 280.15625 192.410156 280.097656 188.898438 C 280.105469 186.226563 280.910156 183.800781 282.511719 181.625 C 284.105469 179.453125 286.4375 177.679688 289.5 176.300781 C 292.5 174.988281 296 174.320313 300 174.300781 C 308.296875 174.304688 312.695313 177.804688 313.199219 184.800781 Z M 342.800781 193 C 340.894531 190.820313 339.796875 188.085938 339.5 184.800781 L 339.300781 181.5 C 339.359375 176.480469 340.761719 172.222656 343.511719 168.726563 C 346.257813 165.230469 349.988281 162.921875 354.699219 161.800781 C 356.316406 161.316406 358.183594 161.085938 360.300781 161.101563 C 363.894531 161.132813 367.027344 161.953125 369.699219 163.5625 C 372.371094 165.179688 374.304688 167.425781 375.5 170.300781 L 359.5 181.5 C 359.296875 181.585938 359.097656 181.71875 358.902344 181.898438 C 353.480469 185.800781 348.113281 189.503906 342.800781 193 Z M 374.699219 176.898438 L 379.699219 173.5 C 380.5 172.886719 380.902344 172.117188 380.902344 171.199219 C 380.902344 170.957031 380.894531 170.777344 380.886719 170.652344 C 380.871094 170.535156 380.84375 170.449219 380.800781 170.398438 C 379.378906 165.957031 376.839844 162.472656 373.1875 159.949219 C 369.527344 157.429688 365.167969 156.148438 360.101563 156.101563 C 358.398438 156.121094 356.195313 156.386719 353.5 156.898438 C 347.621094 158.386719 342.972656 161.320313 339.550781 165.699219 C 336.125 170.085938 334.375 175.417969 334.300781 181.699219 L 334.5 185.398438 C 335.074219 189.410156 336.449219 192.839844 338.625 195.6875 C 340.796875 198.539063 343.621094 200.742188 347.101563 202.300781 C 350.578125 203.898438 354.3125 204.695313 358.300781 204.699219 C 362.542969 204.675781 366.425781 203.867188 369.949219 202.261719 C 373.46875 200.65625 376.351563 198.367188 378.601563 195.398438 C 379.695313 193.945313 380.570313 192.332031 381.222656 190.550781 C 381.871094 188.777344 382.296875 186.859375 382.5 184.800781 C 382.535156 184.125 382.335938 183.53125 381.902344 183.015625 C 381.460938 182.503906 380.859375 182.230469 380.101563 182.199219 C 379.425781 182.21875 378.84375 182.4375 378.347656 182.851563 C 377.851563 183.273438 377.566406 183.789063 377.5 184.398438 C 376.953125 189.113281 374.945313 192.84375 371.476563 195.589844 C 368 198.339844 363.644531 199.742188 358.402344 199.800781 C 356.246094 199.804688 354.175781 199.53125 352.199219 198.976563 C 350.214844 198.429688 348.351563 197.601563 346.601563 196.5 L 361.800781 185.898438 L 362.402344 185.398438 C 364.546875 183.847656 366.644531 182.355469 368.699219 180.925781 C 370.746094 179.496094 372.746094 178.15625 374.699219 176.898438 Z M 392.898438 155 C 392.226563 155.027344 391.644531 155.28125 391.160156 155.765625 C 390.671875 156.25 390.417969 156.828125 390.398438 157.5 C 390.417969 158.171875 390.671875 158.753906 391.160156 159.238281 C 391.644531 159.726563 392.226563 159.980469 392.898438 160 L 396.101563 160 C 396.097656 164.804688 395.996094 171.304688 395.800781 179.5 L 395.601563 198.800781 L 392.5 198.800781 C 391.738281 198.828125 391.132813 199.082031 390.6875 199.5625 C 390.238281 200.050781 390.007813 200.628906 390 201.300781 C 390.007813 201.976563 390.238281 202.554688 390.6875 203.039063 C 391.132813 203.523438 391.738281 203.777344 392.5 203.800781 C 395.617188 203.785156 397.582031 203.820313 398.398438 203.898438 L 404.398438 203.898438 C 405.070313 203.882813 405.648438 203.628906 406.136719 203.140625 C 406.621094 202.65625 406.875 202.074219 406.898438 201.398438 C 406.875 200.726563 406.621094 200.148438 406.136719 199.664063 C 405.648438 199.179688 405.070313 198.925781 404.398438 198.898438 L 400.601563 198.898438 L 400.699219 185.601563 C 400.746094 185.445313 400.777344 185.054688 400.789063 184.425781 C 400.796875 183.796875 400.800781 182.953125 400.800781 181.898438 C 402.1875 179.097656 404.207031 176.128906 406.859375 172.984375 C 409.511719 169.847656 412.460938 167.15625 415.703125 164.914063 C 418.945313 162.675781 422.144531 161.503906 425.300781 161.398438 C 428.214844 161.386719 430.480469 162.71875 432.101563 165.398438 C 434.613281 169.917969 435.878906 177.1875 435.898438 187.199219 L 435.699219 195 L 435.601563 199.300781 L 431.199219 199.300781 C 430.523438 199.324219 429.945313 199.578125 429.460938 200.0625 C 428.976563 200.546875 428.722656 201.128906 428.699219 201.800781 C 428.722656 202.476563 428.976563 203.054688 429.460938 203.539063 C 429.945313 204.023438 430.523438 204.273438 431.199219 204.300781 L 443.601563 204.300781 C 444.359375 204.273438 444.964844 204.023438 445.414063 203.539063 C 445.859375 203.054688 446.089844 202.476563 446.101563 201.800781 C 446.089844 201.128906 445.859375 200.546875 445.414063 200.0625 C 444.964844 199.578125 444.359375 199.324219 443.601563 199.300781 L 440.601563 199.300781 L 440.699219 195.101563 L 440.898438 187.398438 L 440.699219 181.300781 C 442.984375 177.257813 445.6875 173.695313 448.8125 170.613281 C 451.933594 167.535156 454.960938 165.199219 457.898438 163.601563 C 460.679688 162.085938 463.214844 161.320313 465.5 161.300781 C 470.714844 161.320313 474.082031 165.683594 475.601563 174.398438 C 475.847656 176.453125 476.042969 178.546875 476.1875 180.675781 C 476.324219 182.804688 476.394531 184.945313 476.398438 187.101563 L 476.199219 194.800781 L 476.101563 198.898438 C 475.617188 198.816406 474.183594 198.785156 471.800781 198.800781 C 471.039063 198.816406 470.433594 199.042969 469.988281 199.488281 C 469.539063 199.9375 469.308594 200.542969 469.300781 201.300781 C 469.308594 202.066406 469.539063 202.6875 469.988281 203.164063 C 470.433594 203.644531 471.039063 203.890625 471.800781 203.898438 L 483.699219 204 C 484.371094 203.976563 484.949219 203.707031 485.4375 203.1875 C 485.917969 202.675781 486.171875 202.078125 486.199219 201.398438 C 486.171875 200.734375 485.917969 200.175781 485.4375 199.714844 C 484.949219 199.261719 484.371094 199.023438 483.699219 199 C 482.953125 199.007813 482.371094 199.003906 481.949219 198.988281 C 481.527344 198.980469 481.242188 198.949219 481.101563 198.898438 L 481.199219 195 L 481.398438 186.898438 L 481.199219 180.5 C 479.980469 164.300781 474.914063 156.199219 466 156.199219 C 464.214844 156.183594 462.582031 156.417969 461.101563 156.898438 C 457.351563 157.957031 453.699219 159.875 450.148438 162.652344 C 446.597656 165.433594 443.148438 169.050781 439.800781 173.5 C 437.914063 162.019531 433.179688 156.285156 425.601563 156.300781 C 422.578125 156.375 419.496094 157.203125 416.351563 158.789063 C 413.203125 160.375 410.417969 162.28125 408 164.5 C 405.613281 166.703125 403.28125 169.300781 401 172.300781 C 401.042969 171.65625 401.070313 170.324219 401.085938 168.300781 C 401.09375 166.28125 401.101563 163.546875 401.101563 160.101563 L 404.101563 160.101563 C 404.859375 160.078125 405.460938 159.824219 405.914063 159.339844 C 406.359375 158.855469 406.589844 158.277344 406.601563 157.601563 C 406.589844 156.929688 406.359375 156.351563 405.914063 155.863281 C 405.460938 155.378906 404.859375 155.125 404.101563 155.101563 L 398.5 155.101563 C 397.78125 155.023438 395.914063 154.988281 392.898438 155 Z M 489.699219 204 "/>
</g>
</g>
  <g id="id1:id1" transform="matrix(1.0,0,0,1.0,128.0,64.0)"><g clip-path="url(#id1:clip0)">
<path d="M161.752 481.264C151.231 488.706 134.992 486.943 116.67 476.862C98.4813 466.854 78.8763 448.95 62.2682 425.47C45.6601 401.991 35.3071 377.542 31.9282 357.059C28.5246 336.425 32.2707 320.526 42.7917 313.084C53.3128 305.642 69.5517 307.405 87.8739 317.486C106.063 327.494 125.668 345.398 142.276 368.878C158.884 392.357 169.237 416.806 172.616 437.289C176.02 457.923 172.273 473.822 161.752 481.264Z" fill="white" fill-opacity="0.01" stroke="black" stroke-width="4"/>
</g>
</g>
</svg>
