<?xml version="1.0" encoding="UTF-8"?>
<svg xmlns="http://www.w3.org/2000/svg" xmlns:xlink="http://www.w3.org/1999/xlink" width="512pt" height="512pt" viewBox="0 0 512 512" version="1.1">
<defs>
<linearGradient id="linear0" gradientUnits="userSpaceOnUse" x1="124" y1="305" x2="500" y2="500" >
<stop offset="0" style="stop-color:rgb(92.54902%,6.666667%,100%);stop-opacity:1;"/>
<stop offset="0.5" style="stop-color:rgb(1.960784%,0%,100%);stop-opacity:1;"/>
</linearGradient>
</defs>
<g id="surface36">
<path style=" stroke:none;fill-rule:nonzero;fill:rgb(3.137255%,0.392157%,94.509804%);fill-opacity:1;" d="M 21.429688 183.953125 L 251.964844 183.953125 L 251.964844 579.222656 L 21.429688 579.222656 Z M 21.429688 183.953125 "/>
<path style=" stroke:none;fill-rule:nonzero;fill:rgb(95.294118%,0%,0.392157%);fill-opacity:1;" d="M 295.902344 136.097656 L 524.625 136.097656 L 524.625 488.496094 L 295.902344 488.496094 Z M 295.902344 136.097656 "/>
<path style="fill:none;stroke-width:0.02;stroke-linecap:butt;stroke-linejoin:miter;stroke:rgb(96.078431%,91.372549%,0.392157%);stroke-opacity:1;stroke-miterlimit:10;" d="M 0.0669022 0.442818 L 0.0521164 0.490768 L 0.834839 0.0649185 Z M 0.0669022 0.442818 " transform="matrix(512,0,0,512,0,0)"/>
<path style="fill:none;stroke-width:0.06;stroke-linecap:butt;stroke-linejoin:miter;stroke:rgb(3.137255%,0.392157%,94.509804%);stroke-opacity:1;stroke-miterlimit:10;" d="M 0.453987 0.178825 L 0.794891 0.75164 L 0.790573 0.144081 Z M 0.453987 0.178825 " transform="matrix(512,0,0,512,0,0)"/>
<path style="fill:none;stroke-width:2;stroke-linecap:butt;stroke-linejoin:miter;stroke:url(#linear0);stroke-miterlimit:10;" d="M 135.101563 238.601563 C 135.085938 237.890625 134.859375 237.3125 134.425781 236.863281 C 133.984375 236.417969 133.410156 236.164063 132.699219 236.101563 C 131.976563 236.113281 131.363281 236.335938 130.859375 236.773438 C 130.351563 237.210938 130.066406 237.789063 130 238.5 L 129.601563 253.300781 L 129.398438 263.199219 L 129.199219 277.699219 C 129.183594 283.058594 129.429688 287.421875 129.9375 290.789063 C 130.4375 294.160156 131.257813 296.796875 132.398438 298.699219 C 133.664063 301.042969 135.480469 302.917969 137.847656 304.328125 C 140.210938 305.738281 142.730469 306.460938 145.398438 306.5 C 148.6875 306.46875 151.527344 305.53125 153.921875 303.6875 C 156.3125 301.84375 158.003906 299.28125 159 296 L 159.101563 296 C 159.097656 295.960938 159.097656 295.894531 159.101563 295.800781 C 159.097656 295.710938 159.097656 295.546875 159.101563 295.300781 C 159.089844 294.742188 158.929688 294.242188 158.625 293.800781 C 158.3125 293.367188 157.90625 293.066406 157.398438 292.898438 C 156.6875 292.757813 156.058594 292.847656 155.511719 293.175781 C 154.964844 293.503906 154.558594 294.046875 154.300781 294.800781 C 153.65625 296.878906 152.535156 298.523438 150.9375 299.738281 C 149.332031 300.953125 147.488281 301.574219 145.398438 301.601563 C 143.695313 301.570313 142.027344 301.054688 140.398438 300.050781 C 138.769531 299.046875 137.503906 297.730469 136.601563 296.101563 C 135.714844 294.585938 135.082031 292.320313 134.699219 289.300781 C 134.546875 287.152344 134.425781 284.933594 134.335938 282.652344 C 134.246094 280.371094 134.199219 278.054688 134.199219 275.699219 C 134.496094 257.785156 134.796875 245.417969 135.101563 238.601563 Z M 175.800781 294 C 173.894531 291.820313 172.796875 289.085938 172.5 285.800781 L 172.300781 282.5 C 172.359375 277.480469 173.761719 273.222656 176.511719 269.726563 C 179.257813 266.230469 182.988281 263.921875 187.699219 262.800781 C 189.316406 262.316406 191.183594 262.085938 193.300781 262.101563 C 196.894531 262.132813 200.027344 262.953125 202.699219 264.5625 C 205.371094 266.179688 207.304688 268.425781 208.5 271.300781 L 192.5 282.5 C 192.296875 282.585938 192.097656 282.71875 191.902344 282.898438 C 186.480469 286.800781 181.113281 290.503906 175.800781 294 Z M 207.699219 277.898438 L 212.699219 274.5 C 213.5 273.886719 213.902344 273.117188 213.902344 272.199219 C 213.902344 271.957031 213.894531 271.777344 213.886719 271.652344 C 213.871094 271.535156 213.84375 271.449219 213.800781 271.398438 C 212.378906 266.957031 209.839844 263.472656 206.1875 260.949219 C 202.527344 258.429688 198.167969 257.148438 193.101563 257.101563 C 191.398438 257.121094 189.195313 257.386719 186.5 257.898438 C 180.621094 259.386719 175.972656 262.320313 172.550781 266.699219 C 169.125 271.085938 167.375 276.417969 167.300781 282.699219 L 167.5 286.398438 C 168.074219 290.410156 169.449219 293.839844 171.625 296.6875 C 173.796875 299.539063 176.621094 301.742188 180.101563 303.300781 C 183.578125 304.898438 187.3125 305.695313 191.300781 305.699219 C 195.542969 305.675781 199.425781 304.867188 202.949219 303.261719 C 206.46875 301.65625 209.351563 299.367188 211.601563 296.398438 C 212.695313 294.945313 213.570313 293.332031 214.222656 291.550781 C 214.871094 289.777344 215.296875 287.859375 215.5 285.800781 C 215.535156 285.125 215.335938 284.53125 214.902344 284.015625 C 214.460938 283.503906 213.859375 283.230469 213.101563 283.199219 C 212.425781 283.21875 211.84375 283.4375 211.347656 283.851563 C 210.851563 284.273438 210.566406 284.789063 210.5 285.398438 C 209.953125 290.113281 207.945313 293.84375 204.476563 296.589844 C 201 299.339844 196.644531 300.742188 191.402344 300.800781 C 189.246094 300.804688 187.175781 300.53125 185.199219 299.976563 C 183.214844 299.429688 181.351563 298.601563 179.601563 297.5 L 194.800781 286.898438 L 195.402344 286.398438 C 197.546875 284.847656 199.644531 283.355469 201.699219 281.925781 C 203.746094 280.496094 205.746094 279.15625 207.699219 277.898438 Z M 232.601563 256.5 L 225 256.5 C 224.238281 256.519531 223.632813 256.765625 223.1875 257.238281 C 222.734375 257.71875 222.507813 258.339844 222.5 259.101563 C 222.523438 259.78125 222.777344 260.375 223.261719 260.890625 C 223.746094 261.40625 224.324219 261.675781 225 261.699219 L 234.101563 261.699219 L 234 271.601563 C 233.980469 280.320313 234.3125 286.488281 235 290.101563 C 235.585938 293.851563 236.609375 296.832031 238.0625 299.039063 C 239.515625 301.25 241.460938 303.003906 243.898438 304.300781 C 245.144531 304.953125 246.402344 305.445313 247.675781 305.785156 C 248.945313 306.125 250.253906 306.296875 251.601563 306.300781 C 255.046875 306.273438 258.046875 305.375 260.597656 303.601563 C 263.148438 301.828125 264.949219 299.328125 266 296.101563 L 266.199219 295.199219 C 266.191406 294.640625 266.027344 294.140625 265.710938 293.699219 C 265.390625 293.265625 264.953125 292.964844 264.398438 292.800781 L 263.601563 292.601563 C 263.128906 292.609375 262.667969 292.773438 262.222656 293.089844 C 261.773438 293.410156 261.46875 293.847656 261.300781 294.398438 C 260.511719 296.570313 259.253906 298.242188 257.535156 299.414063 C 255.808594 300.59375 253.832031 301.1875 251.601563 301.199219 C 249.746094 301.167969 247.949219 300.660156 246.210938 299.675781 C 244.46875 298.695313 243.097656 297.4375 242.101563 295.898438 C 241.640625 295.15625 241.222656 294.226563 240.847656 293.113281 C 240.464844 292.003906 240.148438 290.699219 239.898438 289.199219 C 239.378906 285.304688 239.113281 279.003906 239.101563 270.300781 L 239.101563 261.800781 C 240.515625 261.886719 243.984375 261.917969 249.5 261.898438 C 250.265625 261.886719 250.886719 261.644531 251.363281 261.164063 C 251.839844 260.6875 252.085938 260.066406 252.101563 259.300781 C 252.078125 258.628906 251.820313 258.03125 251.335938 257.515625 C 250.847656 257 250.269531 256.730469 249.601563 256.699219 C 243.996094 256.722656 240.496094 256.6875 239.101563 256.601563 L 239.101563 253 C 239.179688 251.503906 239.214844 247.402344 239.199219 240.699219 C 239.179688 239.9375 238.941406 239.320313 238.488281 238.839844 C 238.03125 238.363281 237.46875 238.117188 236.800781 238.101563 C 236.03125 238.113281 235.410156 238.34375 234.9375 238.800781 C 234.457031 239.261719 234.210938 239.894531 234.199219 240.699219 C 234.214844 247.402344 234.183594 251.503906 234.101563 253 L 234.101563 256.5 Z M 283 258.898438 C 282.976563 258.222656 282.742188 257.628906 282.296875 257.113281 C 281.847656 256.601563 281.316406 256.332031 280.699219 256.300781 C 279.9375 256.332031 279.332031 256.601563 278.886719 257.113281 C 278.433594 257.628906 278.207031 258.222656 278.199219 258.898438 C 278.195313 259.554688 278.199219 260.097656 278.210938 260.527344 C 278.21875 260.957031 278.246094 261.25 278.300781 261.398438 L 278.300781 263.800781 L 278.097656 267.898438 L 278.097656 268.398438 C 278.097656 268.65625 278.144531 268.898438 278.234375 269.125 C 278.324219 269.355469 278.445313 269.546875 278.597656 269.699219 C 278.996094 270.386719 279.59375 270.71875 280.398438 270.699219 C 280.957031 270.691406 281.457031 270.515625 281.898438 270.164063 C 282.332031 269.820313 282.632813 269.363281 282.800781 268.800781 C 282.910156 268.300781 282.976563 267.5 283 266.398438 L 283.300781 266.398438 C 286.796875 265.054688 289.925781 264.046875 292.6875 263.375 C 295.445313 262.703125 297.847656 262.347656 299.898438 262.300781 C 303.820313 262.277344 306.777344 263.28125 308.761719 265.3125 C 310.746094 267.351563 311.925781 270.578125 312.300781 275 C 310.800781 273.800781 309.597656 273.003906 308.699219 272.601563 C 307.25 271.90625 305.691406 271.378906 304.023438 271.027344 C 302.351563 270.675781 300.542969 270.5 298.597656 270.5 C 293.800781 270.53125 289.566406 271.394531 285.886719 273.089844 C 282.203125 274.785156 279.339844 277.125 277.300781 280.101563 C 276.25 281.558594 275.46875 283.097656 274.960938 284.726563 C 274.445313 286.355469 274.191406 288.046875 274.199219 289.800781 C 274.210938 292.785156 275.007813 295.519531 276.585938 298 C 278.160156 300.488281 280.429688 302.523438 283.398438 304.101563 C 286.296875 305.703125 289.597656 306.5 293.300781 306.5 C 296.214844 306.503906 299.007813 306.113281 301.675781 305.335938 C 304.339844 304.554688 307.082031 303.347656 309.898438 301.699219 C 309.953125 301.660156 310.292969 301.476563 310.921875 301.152344 C 311.550781 300.832031 312.441406 300.347656 313.597656 299.699219 C 314.550781 300.964844 316.058594 302.117188 318.121094 303.152344 C 320.175781 304.191406 322.136719 304.738281 324 304.800781 C 324.660156 304.785156 325.207031 304.539063 325.636719 304.0625 C 326.0625 303.585938 326.28125 302.964844 326.300781 302.199219 C 326.28125 301.632813 326.0625 301.148438 325.636719 300.738281 C 325.207031 300.335938 324.660156 300.121094 324 300.101563 C 322.71875 300.023438 321.300781 299.554688 319.75 298.6875 C 318.191406 297.828125 317.277344 297.03125 317 296.300781 C 316.996094 296.054688 316.972656 295.796875 316.9375 295.523438 C 316.894531 295.257813 316.851563 294.949219 316.800781 294.601563 C 316.714844 294.488281 316.679688 293.722656 316.699219 292.300781 C 316.710938 290.105469 316.878906 285.902344 317.199219 279.699219 C 317.242188 274.945313 316.777344 271.035156 315.8125 267.964844 C 314.839844 264.898438 313.101563 262.410156 310.597656 260.5 C 308.078125 258.585938 304.714844 257.621094 300.5 257.601563 C 296 257.621094 290.199219 258.886719 283.097656 261.398438 L 283.097656 261.300781 C 283.011719 261.003906 282.976563 260.203125 283 258.898438 Z M 312.199219 285.800781 C 311.996094 289.019531 311.894531 291.1875 311.898438 292.300781 C 311.878906 293.703125 311.914063 294.5 312 294.699219 L 310.898438 295.601563 C 310.148438 296.054688 309.496094 296.449219 308.9375 296.777344 C 308.375 297.109375 307.894531 297.347656 307.5 297.5 C 302.980469 300.21875 298.214844 301.585938 293.199219 301.601563 C 288.933594 301.546875 285.53125 300.460938 282.996094 298.339844 C 280.457031 296.222656 279.15625 293.410156 279.097656 289.898438 C 279.105469 287.226563 279.910156 284.800781 281.511719 282.625 C 283.105469 280.453125 285.4375 278.679688 288.5 277.300781 C 291.5 275.988281 295 275.320313 299 275.300781 C 307.296875 275.304688 311.695313 278.804688 312.199219 285.800781 Z M 341.800781 294 C 339.894531 291.820313 338.796875 289.085938 338.5 285.800781 L 338.300781 282.5 C 338.359375 277.480469 339.761719 273.222656 342.511719 269.726563 C 345.257813 266.230469 348.988281 263.921875 353.699219 262.800781 C 355.316406 262.316406 357.183594 262.085938 359.300781 262.101563 C 362.894531 262.132813 366.027344 262.953125 368.699219 264.5625 C 371.371094 266.179688 373.304688 268.425781 374.5 271.300781 L 358.5 282.5 C 358.296875 282.585938 358.097656 282.71875 357.902344 282.898438 C 352.480469 286.800781 347.113281 290.503906 341.800781 294 Z M 373.699219 277.898438 L 378.699219 274.5 C 379.5 273.886719 379.902344 273.117188 379.902344 272.199219 C 379.902344 271.957031 379.894531 271.777344 379.886719 271.652344 C 379.871094 271.535156 379.84375 271.449219 379.800781 271.398438 C 378.378906 266.957031 375.839844 263.472656 372.1875 260.949219 C 368.527344 258.429688 364.167969 257.148438 359.101563 257.101563 C 357.398438 257.121094 355.195313 257.386719 352.5 257.898438 C 346.621094 259.386719 341.972656 262.320313 338.550781 266.699219 C 335.125 271.085938 333.375 276.417969 333.300781 282.699219 L 333.5 286.398438 C 334.074219 290.410156 335.449219 293.839844 337.625 296.6875 C 339.796875 299.539063 342.621094 301.742188 346.101563 303.300781 C 349.578125 304.898438 353.3125 305.695313 357.300781 305.699219 C 361.542969 305.675781 365.425781 304.867188 368.949219 303.261719 C 372.46875 301.65625 375.351563 299.367188 377.601563 296.398438 C 378.695313 294.945313 379.570313 293.332031 380.222656 291.550781 C 380.871094 289.777344 381.296875 287.859375 381.5 285.800781 C 381.535156 285.125 381.335938 284.53125 380.902344 284.015625 C 380.460938 283.503906 379.859375 283.230469 379.101563 283.199219 C 378.425781 283.21875 377.84375 283.4375 377.347656 283.851563 C 376.851563 284.273438 376.566406 284.789063 376.5 285.398438 C 375.953125 290.113281 373.945313 293.84375 370.476563 296.589844 C 367 299.339844 362.644531 300.742188 357.402344 300.800781 C 355.246094 300.804688 353.175781 300.53125 351.199219 299.976563 C 349.214844 299.429688 347.351563 298.601563 345.601563 297.5 L 360.800781 286.898438 L 361.402344 286.398438 C 363.546875 284.847656 365.644531 283.355469 367.699219 281.925781 C 369.746094 280.496094 371.746094 279.15625 373.699219 277.898438 Z M 391.898438 256 C 391.226563 256.027344 390.644531 256.28125 390.160156 256.765625 C 389.671875 257.25 389.417969 257.828125 389.398438 258.5 C 389.417969 259.171875 389.671875 259.753906 390.160156 260.238281 C 390.644531 260.726563 391.226563 260.980469 391.898438 261 L 395.101563 261 C 395.097656 265.804688 394.996094 272.304688 394.800781 280.5 L 394.601563 299.800781 L 391.5 299.800781 C 390.738281 299.828125 390.132813 300.082031 389.6875 300.5625 C 389.238281 301.050781 389.007813 301.628906 389 302.300781 C 389.007813 302.976563 389.238281 303.554688 389.6875 304.039063 C 390.132813 304.523438 390.738281 304.777344 391.5 304.800781 C 394.617188 304.785156 396.582031 304.820313 397.398438 304.898438 L 403.398438 304.898438 C 404.070313 304.882813 404.648438 304.628906 405.136719 304.140625 C 405.621094 303.65625 405.875 303.074219 405.898438 302.398438 C 405.875 301.726563 405.621094 301.148438 405.136719 300.664063 C 404.648438 300.179688 404.070313 299.925781 403.398438 299.898438 L 399.601563 299.898438 L 399.699219 286.601563 C 399.746094 286.445313 399.777344 286.054688 399.789063 285.425781 C 399.796875 284.796875 399.800781 283.953125 399.800781 282.898438 C 401.1875 280.097656 403.207031 277.128906 405.859375 273.984375 C 408.511719 270.847656 411.460938 268.15625 414.703125 265.914063 C 417.945313 263.675781 421.144531 262.503906 424.300781 262.398438 C 427.214844 262.386719 429.480469 263.71875 431.101563 266.398438 C 433.613281 270.917969 434.878906 278.1875 434.898438 288.199219 L 434.699219 296 L 434.601563 300.300781 L 430.199219 300.300781 C 429.523438 300.324219 428.945313 300.578125 428.460938 301.0625 C 427.976563 301.546875 427.722656 302.128906 427.699219 302.800781 C 427.722656 303.476563 427.976563 304.054688 428.460938 304.539063 C 428.945313 305.023438 429.523438 305.273438 430.199219 305.300781 L 442.601563 305.300781 C 443.359375 305.273438 443.964844 305.023438 444.414063 304.539063 C 444.859375 304.054688 445.089844 303.476563 445.101563 302.800781 C 445.089844 302.128906 444.859375 301.546875 444.414063 301.0625 C 443.964844 300.578125 443.359375 300.324219 442.601563 300.300781 L 439.601563 300.300781 L 439.699219 296.101563 L 439.898438 288.398438 L 439.699219 282.300781 C 441.984375 278.257813 444.6875 274.695313 447.8125 271.613281 C 450.933594 268.535156 453.960938 266.199219 456.898438 264.601563 C 459.679688 263.085938 462.214844 262.320313 464.5 262.300781 C 469.714844 262.320313 473.082031 266.683594 474.601563 275.398438 C 474.847656 277.453125 475.042969 279.546875 475.1875 281.675781 C 475.324219 283.804688 475.394531 285.945313 475.398438 288.101563 L 475.199219 295.800781 L 475.101563 299.898438 C 474.617188 299.816406 473.183594 299.785156 470.800781 299.800781 C 470.039063 299.816406 469.433594 300.042969 468.988281 300.488281 C 468.539063 300.9375 468.308594 301.542969 468.300781 302.300781 C 468.308594 303.066406 468.539063 303.6875 468.988281 304.164063 C 469.433594 304.644531 470.039063 304.890625 470.800781 304.898438 L 482.699219 305 C 483.371094 304.976563 483.949219 304.707031 484.4375 304.1875 C 484.917969 303.675781 485.171875 303.078125 485.199219 302.398438 C 485.171875 301.734375 484.917969 301.175781 484.4375 300.714844 C 483.949219 300.261719 483.371094 300.023438 482.699219 300 C 481.953125 300.007813 481.371094 300.003906 480.949219 299.988281 C 480.527344 299.980469 480.242188 299.949219 480.101563 299.898438 L 480.199219 296 L 480.398438 287.898438 L 480.199219 281.5 C 478.980469 265.300781 473.914063 257.199219 465 257.199219 C 463.214844 257.183594 461.582031 257.417969 460.101563 257.898438 C 456.351563 258.957031 452.699219 260.875 449.148438 263.652344 C 445.597656 266.433594 442.148438 270.050781 438.800781 274.5 C 436.914063 263.019531 432.179688 257.285156 424.601563 257.300781 C 421.578125 257.375 418.496094 258.203125 415.351563 259.789063 C 412.203125 261.375 409.417969 263.28125 407 265.5 C 404.613281 267.703125 402.28125 270.300781 400 273.300781 C 400.042969 272.65625 400.070313 271.324219 400.085938 269.300781 C 400.09375 267.28125 400.101563 264.546875 400.101563 261.101563 L 403.101563 261.101563 C 403.859375 261.078125 404.460938 260.824219 404.914063 260.339844 C 405.359375 259.855469 405.589844 259.277344 405.601563 258.601563 C 405.589844 257.929688 405.359375 257.351563 404.914063 256.863281 C 404.460938 256.378906 403.859375 256.125 403.101563 256.101563 L 397.5 256.101563 C 396.78125 256.023438 394.914063 255.988281 391.898438 256 Z M 488.699219 305 "/>
</g>
</svg>
