<?xml version="1.0" standalone="no"?>
<!DOCTYPE svg PUBLIC "-//W3C//DTD SVG 1.1//EN"
 "http://www.w3.org/Graphics/SVG/1.1/DTD/svg11.dtd">
<!-- Created with svg_stack (http://github.com/astraw/svg_stack) -->
<svg xmlns="http://www.w3.org/2000/svg" xmlns:sodipodi="http://sodipodi.sourceforge.net/DTD/sodipodi-0.dtd" xmlns:xlink="http://www.w3.org/1999/xlink" version="1.1" width="640.0" height="640.0">
  <defs/>
  <g id="id0:id0" transform="matrix(1.25,0,0,1.25,0.0,0.0)"><g id="id0:surface41">
<path style=" stroke:none;fill-rule:nonzero;fill:rgb(97.254902%,98.823529%,98.823529%);fill-opacity:1;" d="M 260.433594 341.664063 L 735.722656 341.664063 L 735.722656 1236.8125 L 260.433594 1236.8125 Z M 260.433594 341.664063 "/>
<path style=" stroke:none;fill-rule:nonzero;fill:rgb(15.294118%,19.607843%,17.647059%);fill-opacity:1;" d="M 252.789063 205.488281 L 535.617188 205.488281 L 535.617188 705.105469 L 252.789063 705.105469 Z M 252.789063 205.488281 "/>
<path style="fill:none;stroke-width:0.03;stroke-linecap:butt;stroke-linejoin:miter;stroke:rgb(26.27451%,39.215686%,36.862745%);stroke-opacity:1;stroke-miterlimit:10;" d="M 0.940498 0.884758 L 0.106674 0.219933 L 0.573494 0.656891 L 0.797928 0.312737 Z M 0.940498 0.884758 " transform="matrix(512,0,0,512,0,0)"/>
<path style=" stroke:none;fill-rule:nonzero;fill:rgb(0%,0%,0%);fill-opacity:1;" d="M 304.101563 220.601563 C 304.085938 219.890625 303.859375 219.3125 303.425781 218.863281 C 302.984375 218.417969 302.410156 218.164063 301.699219 218.101563 C 300.976563 218.113281 300.363281 218.335938 299.859375 218.773438 C 299.351563 219.210938 299.066406 219.789063 299 220.5 L 298.601563 235.300781 L 298.398438 245.199219 L 298.199219 259.699219 C 298.183594 265.058594 298.429688 269.421875 298.9375 272.789063 C 299.4375 276.160156 300.257813 278.796875 301.398438 280.699219 C 302.664063 283.042969 304.480469 284.917969 306.847656 286.328125 C 309.210938 287.738281 311.730469 288.460938 314.398438 288.5 C 317.6875 288.46875 320.527344 287.53125 322.921875 285.6875 C 325.3125 283.84375 327.003906 281.28125 328 278 L 328.101563 278 C 328.097656 277.960938 328.097656 277.894531 328.101563 277.800781 C 328.097656 277.710938 328.097656 277.546875 328.101563 277.300781 C 328.089844 276.742188 327.929688 276.242188 327.625 275.800781 C 327.3125 275.367188 326.90625 275.066406 326.398438 274.898438 C 325.6875 274.757813 325.058594 274.847656 324.511719 275.175781 C 323.964844 275.503906 323.558594 276.046875 323.300781 276.800781 C 322.65625 278.878906 321.535156 280.523438 319.9375 281.738281 C 318.332031 282.953125 316.488281 283.574219 314.398438 283.601563 C 312.695313 283.570313 311.027344 283.054688 309.398438 282.050781 C 307.769531 281.046875 306.503906 279.730469 305.601563 278.101563 C 304.714844 276.585938 304.082031 274.320313 303.699219 271.300781 C 303.546875 269.152344 303.425781 266.933594 303.335938 264.652344 C 303.246094 262.371094 303.199219 260.054688 303.199219 257.699219 C 303.496094 239.785156 303.796875 227.417969 304.101563 220.601563 Z M 344.800781 276 C 342.894531 273.820313 341.796875 271.085938 341.5 267.800781 L 341.300781 264.5 C 341.359375 259.480469 342.761719 255.222656 345.511719 251.726563 C 348.257813 248.230469 351.988281 245.921875 356.699219 244.800781 C 358.316406 244.316406 360.183594 244.085938 362.300781 244.101563 C 365.894531 244.132813 369.027344 244.953125 371.699219 246.5625 C 374.371094 248.179688 376.304688 250.425781 377.5 253.300781 L 361.5 264.5 C 361.296875 264.585938 361.097656 264.71875 360.902344 264.898438 C 355.480469 268.800781 350.113281 272.503906 344.800781 276 Z M 376.699219 259.898438 L 381.699219 256.5 C 382.5 255.886719 382.902344 255.117188 382.902344 254.199219 C 382.902344 253.957031 382.894531 253.777344 382.886719 253.652344 C 382.871094 253.535156 382.84375 253.449219 382.800781 253.398438 C 381.378906 248.957031 378.839844 245.472656 375.1875 242.949219 C 371.527344 240.429688 367.167969 239.148438 362.101563 239.101563 C 360.398438 239.121094 358.195313 239.386719 355.5 239.898438 C 349.621094 241.386719 344.972656 244.320313 341.550781 248.699219 C 338.125 253.085938 336.375 258.417969 336.300781 264.699219 L 336.5 268.398438 C 337.074219 272.410156 338.449219 275.839844 340.625 278.6875 C 342.796875 281.539063 345.621094 283.742188 349.101563 285.300781 C 352.578125 286.898438 356.3125 287.695313 360.300781 287.699219 C 364.542969 287.675781 368.425781 286.867188 371.949219 285.261719 C 375.46875 283.65625 378.351563 281.367188 380.601563 278.398438 C 381.695313 276.945313 382.570313 275.332031 383.222656 273.550781 C 383.871094 271.777344 384.296875 269.859375 384.5 267.800781 C 384.535156 267.125 384.335938 266.53125 383.902344 266.015625 C 383.460938 265.503906 382.859375 265.230469 382.101563 265.199219 C 381.425781 265.21875 380.84375 265.4375 380.347656 265.851563 C 379.851563 266.273438 379.566406 266.789063 379.5 267.398438 C 378.953125 272.113281 376.945313 275.84375 373.476563 278.589844 C 370 281.339844 365.644531 282.742188 360.402344 282.800781 C 358.246094 282.804688 356.175781 282.53125 354.199219 281.976563 C 352.214844 281.429688 350.351563 280.601563 348.601563 279.5 L 363.800781 268.898438 L 364.402344 268.398438 C 366.546875 266.847656 368.644531 265.355469 370.699219 263.925781 C 372.746094 262.496094 374.746094 261.15625 376.699219 259.898438 Z M 401.601563 238.5 L 394 238.5 C 393.238281 238.519531 392.632813 238.765625 392.1875 239.238281 C 391.734375 239.71875 391.507813 240.339844 391.5 241.101563 C 391.523438 241.78125 391.777344 242.375 392.261719 242.890625 C 392.746094 243.40625 393.324219 243.675781 394 243.699219 L 403.101563 243.699219 L 403 253.601563 C 402.980469 262.320313 403.3125 268.488281 404 272.101563 C 404.585938 275.851563 405.609375 278.832031 407.0625 281.039063 C 408.515625 283.25 410.460938 285.003906 412.898438 286.300781 C 414.144531 286.953125 415.402344 287.445313 416.675781 287.785156 C 417.945313 288.125 419.253906 288.296875 420.601563 288.300781 C 424.046875 288.273438 427.046875 287.375 429.597656 285.601563 C 432.148438 283.828125 433.949219 281.328125 435 278.101563 L 435.199219 277.199219 C 435.191406 276.640625 435.027344 276.140625 434.710938 275.699219 C 434.390625 275.265625 433.953125 274.964844 433.398438 274.800781 L 432.601563 274.601563 C 432.128906 274.609375 431.667969 274.773438 431.222656 275.089844 C 430.773438 275.410156 430.46875 275.847656 430.300781 276.398438 C 429.511719 278.570313 428.253906 280.242188 426.535156 281.414063 C 424.808594 282.59375 422.832031 283.1875 420.601563 283.199219 C 418.746094 283.167969 416.949219 282.660156 415.210938 281.675781 C 413.46875 280.695313 412.097656 279.4375 411.101563 277.898438 C 410.640625 277.15625 410.222656 276.226563 409.847656 275.113281 C 409.464844 274.003906 409.148438 272.699219 408.898438 271.199219 C 408.378906 267.304688 408.113281 261.003906 408.101563 252.300781 L 408.101563 243.800781 C 409.515625 243.886719 412.984375 243.917969 418.5 243.898438 C 419.265625 243.886719 419.886719 243.644531 420.363281 243.164063 C 420.839844 242.6875 421.085938 242.066406 421.101563 241.300781 C 421.078125 240.628906 420.820313 240.03125 420.335938 239.515625 C 419.847656 239 419.269531 238.730469 418.601563 238.699219 C 412.996094 238.722656 409.496094 238.6875 408.101563 238.601563 L 408.101563 235 C 408.179688 233.503906 408.214844 229.402344 408.199219 222.699219 C 408.179688 221.9375 407.941406 221.320313 407.488281 220.839844 C 407.03125 220.363281 406.46875 220.117188 405.800781 220.101563 C 405.03125 220.113281 404.410156 220.34375 403.9375 220.800781 C 403.457031 221.261719 403.210938 221.894531 403.199219 222.699219 C 403.214844 229.402344 403.183594 233.503906 403.101563 235 L 403.101563 238.5 Z M 452 240.898438 C 451.976563 240.222656 451.742188 239.628906 451.296875 239.113281 C 450.847656 238.601563 450.316406 238.332031 449.699219 238.300781 C 448.9375 238.332031 448.332031 238.601563 447.886719 239.113281 C 447.433594 239.628906 447.207031 240.222656 447.199219 240.898438 C 447.195313 241.554688 447.199219 242.097656 447.210938 242.527344 C 447.21875 242.957031 447.246094 243.25 447.300781 243.398438 L 447.300781 245.800781 L 447.097656 249.898438 L 447.097656 250.398438 C 447.097656 250.65625 447.144531 250.898438 447.234375 251.125 C 447.324219 251.355469 447.445313 251.546875 447.597656 251.699219 C 447.996094 252.386719 448.59375 252.71875 449.398438 252.699219 C 449.957031 252.691406 450.457031 252.515625 450.898438 252.164063 C 451.332031 251.820313 451.632813 251.363281 451.800781 250.800781 C 451.910156 250.300781 451.976563 249.5 452 248.398438 L 452.300781 248.398438 C 455.796875 247.054688 458.925781 246.046875 461.6875 245.375 C 464.445313 244.703125 466.847656 244.347656 468.898438 244.300781 C 472.820313 244.277344 475.777344 245.28125 477.761719 247.3125 C 479.746094 249.351563 480.925781 252.578125 481.300781 257 C 479.800781 255.800781 478.597656 255.003906 477.699219 254.601563 C 476.25 253.90625 474.691406 253.378906 473.023438 253.027344 C 471.351563 252.675781 469.542969 252.5 467.597656 252.5 C 462.800781 252.53125 458.566406 253.394531 454.886719 255.089844 C 451.203125 256.785156 448.339844 259.125 446.300781 262.101563 C 445.25 263.558594 444.46875 265.097656 443.960938 266.726563 C 443.445313 268.355469 443.191406 270.046875 443.199219 271.800781 C 443.210938 274.785156 444.007813 277.519531 445.585938 280 C 447.160156 282.488281 449.429688 284.523438 452.398438 286.101563 C 455.296875 287.703125 458.597656 288.5 462.300781 288.5 C 465.214844 288.503906 468.007813 288.113281 470.675781 287.335938 C 473.339844 286.554688 476.082031 285.347656 478.898438 283.699219 C 478.953125 283.660156 479.292969 283.476563 479.921875 283.152344 C 480.550781 282.832031 481.441406 282.347656 482.597656 281.699219 C 483.550781 282.964844 485.058594 284.117188 487.121094 285.152344 C 489.175781 286.191406 491.136719 286.738281 493 286.800781 C 493.660156 286.785156 494.207031 286.539063 494.636719 286.0625 C 495.0625 285.585938 495.28125 284.964844 495.300781 284.199219 C 495.28125 283.632813 495.0625 283.148438 494.636719 282.738281 C 494.207031 282.335938 493.660156 282.121094 493 282.101563 C 491.71875 282.023438 490.300781 281.554688 488.75 280.6875 C 487.191406 279.828125 486.277344 279.03125 486 278.300781 C 485.996094 278.054688 485.972656 277.796875 485.9375 277.523438 C 485.894531 277.257813 485.851563 276.949219 485.800781 276.601563 C 485.714844 276.488281 485.679688 275.722656 485.699219 274.300781 C 485.710938 272.105469 485.878906 267.902344 486.199219 261.699219 C 486.242188 256.945313 485.777344 253.035156 484.8125 249.964844 C 483.839844 246.898438 482.101563 244.410156 479.597656 242.5 C 477.078125 240.585938 473.714844 239.621094 469.5 239.601563 C 465 239.621094 459.199219 240.886719 452.097656 243.398438 L 452.097656 243.300781 C 452.011719 243.003906 451.976563 242.203125 452 240.898438 Z M 481.199219 267.800781 C 480.996094 271.019531 480.894531 273.1875 480.898438 274.300781 C 480.878906 275.703125 480.914063 276.5 481 276.699219 L 479.898438 277.601563 C 479.148438 278.054688 478.496094 278.449219 477.9375 278.777344 C 477.375 279.109375 476.894531 279.347656 476.5 279.5 C 471.980469 282.21875 467.214844 283.585938 462.199219 283.601563 C 457.933594 283.546875 454.53125 282.460938 451.996094 280.339844 C 449.457031 278.222656 448.15625 275.410156 448.097656 271.898438 C 448.105469 269.226563 448.910156 266.800781 450.511719 264.625 C 452.105469 262.453125 454.4375 260.679688 457.5 259.300781 C 460.5 257.988281 464 257.320313 468 257.300781 C 476.296875 257.304688 480.695313 260.804688 481.199219 267.800781 Z M 510.800781 276 C 508.894531 273.820313 507.796875 271.085938 507.5 267.800781 L 507.300781 264.5 C 507.359375 259.480469 508.761719 255.222656 511.511719 251.726563 C 514.257813 248.230469 517.988281 245.921875 522.699219 244.800781 C 524.316406 244.316406 526.183594 244.085938 528.300781 244.101563 C 531.894531 244.132813 535.027344 244.953125 537.699219 246.5625 C 540.371094 248.179688 542.304688 250.425781 543.5 253.300781 L 527.5 264.5 C 527.296875 264.585938 527.097656 264.71875 526.902344 264.898438 C 521.480469 268.800781 516.113281 272.503906 510.800781 276 Z M 542.699219 259.898438 L 547.699219 256.5 C 548.5 255.886719 548.902344 255.117188 548.902344 254.199219 C 548.902344 253.957031 548.894531 253.777344 548.886719 253.652344 C 548.871094 253.535156 548.84375 253.449219 548.800781 253.398438 C 547.378906 248.957031 544.839844 245.472656 541.1875 242.949219 C 537.527344 240.429688 533.167969 239.148438 528.101563 239.101563 C 526.398438 239.121094 524.195313 239.386719 521.5 239.898438 C 515.621094 241.386719 510.972656 244.320313 507.550781 248.699219 C 504.125 253.085938 502.375 258.417969 502.300781 264.699219 L 502.5 268.398438 C 503.074219 272.410156 504.449219 275.839844 506.625 278.6875 C 508.796875 281.539063 511.621094 283.742188 515.101563 285.300781 C 518.578125 286.898438 522.3125 287.695313 526.300781 287.699219 C 530.542969 287.675781 534.425781 286.867188 537.949219 285.261719 C 541.46875 283.65625 544.351563 281.367188 546.601563 278.398438 C 547.695313 276.945313 548.570313 275.332031 549.222656 273.550781 C 549.871094 271.777344 550.296875 269.859375 550.5 267.800781 C 550.535156 267.125 550.335938 266.53125 549.902344 266.015625 C 549.460938 265.503906 548.859375 265.230469 548.101563 265.199219 C 547.425781 265.21875 546.84375 265.4375 546.347656 265.851563 C 545.851563 266.273438 545.566406 266.789063 545.5 267.398438 C 544.953125 272.113281 542.945313 275.84375 539.476563 278.589844 C 536 281.339844 531.644531 282.742188 526.402344 282.800781 C 524.246094 282.804688 522.175781 282.53125 520.199219 281.976563 C 518.214844 281.429688 516.351563 280.601563 514.601563 279.5 L 529.800781 268.898438 L 530.402344 268.398438 C 532.546875 266.847656 534.644531 265.355469 536.699219 263.925781 C 538.746094 262.496094 540.746094 261.15625 542.699219 259.898438 Z M 560.898438 238 C 560.226563 238.027344 559.644531 238.28125 559.160156 238.765625 C 558.671875 239.25 558.417969 239.828125 558.398438 240.5 C 558.417969 241.171875 558.671875 241.753906 559.160156 242.238281 C 559.644531 242.726563 560.226563 242.980469 560.898438 243 L 564.101563 243 C 564.097656 247.804688 563.996094 254.304688 563.800781 262.5 L 563.601563 281.800781 L 560.5 281.800781 C 559.738281 281.828125 559.132813 282.082031 558.6875 282.5625 C 558.238281 283.050781 558.007813 283.628906 558 284.300781 C 558.007813 284.976563 558.238281 285.554688 558.6875 286.039063 C 559.132813 286.523438 559.738281 286.777344 560.5 286.800781 C 563.617188 286.785156 565.582031 286.820313 566.398438 286.898438 L 572.398438 286.898438 C 573.070313 286.882813 573.648438 286.628906 574.136719 286.140625 C 574.621094 285.65625 574.875 285.074219 574.898438 284.398438 C 574.875 283.726563 574.621094 283.148438 574.136719 282.664063 C 573.648438 282.179688 573.070313 281.925781 572.398438 281.898438 L 568.601563 281.898438 L 568.699219 268.601563 C 568.746094 268.445313 568.777344 268.054688 568.789063 267.425781 C 568.796875 266.796875 568.800781 265.953125 568.800781 264.898438 C 570.1875 262.097656 572.207031 259.128906 574.859375 255.984375 C 577.511719 252.847656 580.460938 250.15625 583.703125 247.914063 C 586.945313 245.675781 590.144531 244.503906 593.300781 244.398438 C 596.214844 244.386719 598.480469 245.71875 600.101563 248.398438 C 602.613281 252.917969 603.878906 260.1875 603.898438 270.199219 L 603.699219 278 L 603.601563 282.300781 L 599.199219 282.300781 C 598.523438 282.324219 597.945313 282.578125 597.460938 283.0625 C 596.976563 283.546875 596.722656 284.128906 596.699219 284.800781 C 596.722656 285.476563 596.976563 286.054688 597.460938 286.539063 C 597.945313 287.023438 598.523438 287.273438 599.199219 287.300781 L 611.601563 287.300781 C 612.359375 287.273438 612.964844 287.023438 613.414063 286.539063 C 613.859375 286.054688 614.089844 285.476563 614.101563 284.800781 C 614.089844 284.128906 613.859375 283.546875 613.414063 283.0625 C 612.964844 282.578125 612.359375 282.324219 611.601563 282.300781 L 608.601563 282.300781 L 608.699219 278.101563 L 608.898438 270.398438 L 608.699219 264.300781 C 610.984375 260.257813 613.6875 256.695313 616.8125 253.613281 C 619.933594 250.535156 622.960938 248.199219 625.898438 246.601563 C 628.679688 245.085938 631.214844 244.320313 633.5 244.300781 C 638.714844 244.320313 642.082031 248.683594 643.601563 257.398438 C 643.847656 259.453125 644.042969 261.546875 644.1875 263.675781 C 644.324219 265.804688 644.394531 267.945313 644.398438 270.101563 L 644.199219 277.800781 L 644.101563 281.898438 C 643.617188 281.816406 642.183594 281.785156 639.800781 281.800781 C 639.039063 281.816406 638.433594 282.042969 637.988281 282.488281 C 637.539063 282.9375 637.308594 283.542969 637.300781 284.300781 C 637.308594 285.066406 637.539063 285.6875 637.988281 286.164063 C 638.433594 286.644531 639.039063 286.890625 639.800781 286.898438 L 651.699219 287 C 652.371094 286.976563 652.949219 286.707031 653.4375 286.1875 C 653.917969 285.675781 654.171875 285.078125 654.199219 284.398438 C 654.171875 283.734375 653.917969 283.175781 653.4375 282.714844 C 652.949219 282.261719 652.371094 282.023438 651.699219 282 C 650.953125 282.007813 650.371094 282.003906 649.949219 281.988281 C 649.527344 281.980469 649.242188 281.949219 649.101563 281.898438 L 649.199219 278 L 649.398438 269.898438 L 649.199219 263.5 C 647.980469 247.300781 642.914063 239.199219 634 239.199219 C 632.214844 239.183594 630.582031 239.417969 629.101563 239.898438 C 625.351563 240.957031 621.699219 242.875 618.148438 245.652344 C 614.597656 248.433594 611.148438 252.050781 607.800781 256.5 C 605.914063 245.019531 601.179688 239.285156 593.601563 239.300781 C 590.578125 239.375 587.496094 240.203125 584.351563 241.789063 C 581.203125 243.375 578.417969 245.28125 576 247.5 C 573.613281 249.703125 571.28125 252.300781 569 255.300781 C 569.042969 254.65625 569.070313 253.324219 569.085938 251.300781 C 569.09375 249.28125 569.101563 246.546875 569.101563 243.101563 L 572.101563 243.101563 C 572.859375 243.078125 573.460938 242.824219 573.914063 242.339844 C 574.359375 241.855469 574.589844 241.277344 574.601563 240.601563 C 574.589844 239.929688 574.359375 239.351563 573.914063 238.863281 C 573.460938 238.378906 572.859375 238.125 572.101563 238.101563 L 566.5 238.101563 C 565.78125 238.023438 563.914063 237.988281 560.898438 238 Z M 657.699219 287 "/>
</g>
</g>
  <g id="id1:id1" transform="matrix(1.0,0,0,1.0,128.0,64.0)"><path d="M468.752 199.264C458.231 206.706 441.992 204.943 423.67 194.862C405.481 184.854 385.876 166.95 369.268 143.47C352.66 119.991 342.307 95.5424 338.928 75.0588C335.525 54.4252 339.271 38.5262 349.792 31.0842C360.313 23.6423 376.552 25.4049 394.874 35.486C413.063 45.4937 432.668 63.398 449.276 86.8775C465.884 110.357 476.237 134.806 479.616 155.289C483.02 175.923 479.273 191.822 468.752 199.264Z" fill="white" fill-opacity="0.01" stroke="black" stroke-width="4"/>
</g>
</svg>
