<?xml version="1.0" encoding="UTF-8"?>
<svg xmlns="http://www.w3.org/2000/svg" xmlns:xlink="http://www.w3.org/1999/xlink" width="512pt" height="512pt" viewBox="0 0 512 512" version="1.1">
<g id="surface41">
<path style=" stroke:none;fill-rule:nonzero;fill:rgb(0.784314%,17.647059%,41.960784%);fill-opacity:1;" d="M 368.679688 145.640625 L 851.007813 145.640625 L 851.007813 681.984375 L 368.679688 681.984375 Z M 368.679688 145.640625 "/>
<path style=" stroke:none;fill-rule:nonzero;fill:rgb(96.078431%,0%,0.392157%);fill-opacity:1;" d="M 342.632813 197.394531 L 862.070313 197.394531 L 862.070313 980.140625 L 342.632813 980.140625 Z M 342.632813 197.394531 "/>
<path style="fill:none;stroke-width:0.08;stroke-linecap:butt;stroke-linejoin:miter;stroke:rgb(96.078431%,96.078431%,96.078431%);stroke-opacity:1;stroke-miterlimit:10;" d="M 0.791512 0.421265 C 0.791512 0.421265 0.711166 0.943367 0.993034 0.0980453 Z M 0.791512 0.421265 " transform="matrix(512,0,0,512,0,0)"/>
<path style="fill:none;stroke-width:0.07;stroke-linecap:butt;stroke-linejoin:miter;stroke:rgb(0.784314%,17.647059%,41.960784%);stroke-opacity:1;stroke-miterlimit:10;" d="M 0.700119 0.564819 L 0.188362 0.467354 L 0.347389 0.839142 L 0.56546 0.544502 Z M 0.700119 0.564819 " transform="matrix(512,0,0,512,0,0)"/>
<path style=" stroke:none;fill-rule:nonzero;fill:rgb(0%,0%,0%);fill-opacity:1;" d="M 27.101563 148.601563 C 27.085938 147.890625 26.859375 147.3125 26.425781 146.863281 C 25.984375 146.417969 25.410156 146.164063 24.699219 146.101563 C 23.976563 146.113281 23.363281 146.335938 22.859375 146.773438 C 22.351563 147.210938 22.066406 147.789063 22 148.5 L 21.601563 163.300781 L 21.398438 173.199219 L 21.199219 187.699219 C 21.183594 193.058594 21.429688 197.421875 21.9375 200.789063 C 22.4375 204.160156 23.257813 206.796875 24.398438 208.699219 C 25.664063 211.042969 27.480469 212.917969 29.847656 214.328125 C 32.210938 215.738281 34.730469 216.460938 37.398438 216.5 C 40.6875 216.46875 43.527344 215.53125 45.921875 213.6875 C 48.3125 211.84375 50.003906 209.28125 51 206 L 51.101563 206 C 51.097656 205.960938 51.097656 205.894531 51.101563 205.800781 C 51.097656 205.710938 51.097656 205.546875 51.101563 205.300781 C 51.089844 204.742188 50.929688 204.242188 50.625 203.800781 C 50.3125 203.367188 49.90625 203.066406 49.398438 202.898438 C 48.6875 202.757813 48.058594 202.847656 47.511719 203.175781 C 46.964844 203.503906 46.558594 204.046875 46.300781 204.800781 C 45.65625 206.878906 44.535156 208.523438 42.9375 209.738281 C 41.332031 210.953125 39.488281 211.574219 37.398438 211.601563 C 35.695313 211.570313 34.027344 211.054688 32.398438 210.050781 C 30.769531 209.046875 29.503906 207.730469 28.601563 206.101563 C 27.714844 204.585938 27.082031 202.320313 26.699219 199.300781 C 26.546875 197.152344 26.425781 194.933594 26.335938 192.652344 C 26.246094 190.371094 26.199219 188.054688 26.199219 185.699219 C 26.496094 167.785156 26.796875 155.417969 27.101563 148.601563 Z M 67.800781 204 C 65.894531 201.820313 64.796875 199.085938 64.5 195.800781 L 64.300781 192.5 C 64.359375 187.480469 65.761719 183.222656 68.511719 179.726563 C 71.257813 176.230469 74.988281 173.921875 79.699219 172.800781 C 81.316406 172.316406 83.183594 172.085938 85.300781 172.101563 C 88.894531 172.132813 92.027344 172.953125 94.699219 174.5625 C 97.371094 176.179688 99.304688 178.425781 100.5 181.300781 L 84.5 192.5 C 84.296875 192.585938 84.097656 192.71875 83.902344 192.898438 C 78.480469 196.800781 73.113281 200.503906 67.800781 204 Z M 99.699219 187.898438 L 104.699219 184.5 C 105.5 183.886719 105.902344 183.117188 105.902344 182.199219 C 105.902344 181.957031 105.894531 181.777344 105.886719 181.652344 C 105.871094 181.535156 105.84375 181.449219 105.800781 181.398438 C 104.378906 176.957031 101.839844 173.472656 98.1875 170.949219 C 94.527344 168.429688 90.167969 167.148438 85.101563 167.101563 C 83.398438 167.121094 81.195313 167.386719 78.5 167.898438 C 72.621094 169.386719 67.972656 172.320313 64.550781 176.699219 C 61.125 181.085938 59.375 186.417969 59.300781 192.699219 L 59.5 196.398438 C 60.074219 200.410156 61.449219 203.839844 63.625 206.6875 C 65.796875 209.539063 68.621094 211.742188 72.101563 213.300781 C 75.578125 214.898438 79.3125 215.695313 83.300781 215.699219 C 87.542969 215.675781 91.425781 214.867188 94.949219 213.261719 C 98.46875 211.65625 101.351563 209.367188 103.601563 206.398438 C 104.695313 204.945313 105.570313 203.332031 106.222656 201.550781 C 106.871094 199.777344 107.296875 197.859375 107.5 195.800781 C 107.535156 195.125 107.335938 194.53125 106.902344 194.015625 C 106.460938 193.503906 105.859375 193.230469 105.101563 193.199219 C 104.425781 193.21875 103.84375 193.4375 103.347656 193.851563 C 102.851563 194.273438 102.566406 194.789063 102.5 195.398438 C 101.953125 200.113281 99.945313 203.84375 96.476563 206.589844 C 93 209.339844 88.644531 210.742188 83.402344 210.800781 C 81.246094 210.804688 79.175781 210.53125 77.199219 209.976563 C 75.214844 209.429688 73.351563 208.601563 71.601563 207.5 L 86.800781 196.898438 L 87.402344 196.398438 C 89.546875 194.847656 91.644531 193.355469 93.699219 191.925781 C 95.746094 190.496094 97.746094 189.15625 99.699219 187.898438 Z M 124.601563 166.5 L 117 166.5 C 116.238281 166.519531 115.632813 166.765625 115.1875 167.238281 C 114.734375 167.71875 114.507813 168.339844 114.5 169.101563 C 114.523438 169.78125 114.777344 170.375 115.261719 170.890625 C 115.746094 171.40625 116.324219 171.675781 117 171.699219 L 126.101563 171.699219 L 126 181.601563 C 125.980469 190.320313 126.3125 196.488281 127 200.101563 C 127.585938 203.851563 128.609375 206.832031 130.0625 209.039063 C 131.515625 211.25 133.460938 213.003906 135.898438 214.300781 C 137.144531 214.953125 138.402344 215.445313 139.675781 215.785156 C 140.945313 216.125 142.253906 216.296875 143.601563 216.300781 C 147.046875 216.273438 150.046875 215.375 152.597656 213.601563 C 155.148438 211.828125 156.949219 209.328125 158 206.101563 L 158.199219 205.199219 C 158.191406 204.640625 158.027344 204.140625 157.710938 203.699219 C 157.390625 203.265625 156.953125 202.964844 156.398438 202.800781 L 155.601563 202.601563 C 155.128906 202.609375 154.667969 202.773438 154.222656 203.089844 C 153.773438 203.410156 153.46875 203.847656 153.300781 204.398438 C 152.511719 206.570313 151.253906 208.242188 149.535156 209.414063 C 147.808594 210.59375 145.832031 211.1875 143.601563 211.199219 C 141.746094 211.167969 139.949219 210.660156 138.210938 209.675781 C 136.46875 208.695313 135.097656 207.4375 134.101563 205.898438 C 133.640625 205.15625 133.222656 204.226563 132.847656 203.113281 C 132.464844 202.003906 132.148438 200.699219 131.898438 199.199219 C 131.378906 195.304688 131.113281 189.003906 131.101563 180.300781 L 131.101563 171.800781 C 132.515625 171.886719 135.984375 171.917969 141.5 171.898438 C 142.265625 171.886719 142.886719 171.644531 143.363281 171.164063 C 143.839844 170.6875 144.085938 170.066406 144.101563 169.300781 C 144.078125 168.628906 143.820313 168.03125 143.335938 167.515625 C 142.847656 167 142.269531 166.730469 141.601563 166.699219 C 135.996094 166.722656 132.496094 166.6875 131.101563 166.601563 L 131.101563 163 C 131.179688 161.503906 131.214844 157.402344 131.199219 150.699219 C 131.179688 149.9375 130.941406 149.320313 130.488281 148.839844 C 130.03125 148.363281 129.46875 148.117188 128.800781 148.101563 C 128.03125 148.113281 127.410156 148.34375 126.9375 148.800781 C 126.457031 149.261719 126.210938 149.894531 126.199219 150.699219 C 126.214844 157.402344 126.183594 161.503906 126.101563 163 L 126.101563 166.5 Z M 175 168.898438 C 174.976563 168.222656 174.742188 167.628906 174.296875 167.113281 C 173.847656 166.601563 173.316406 166.332031 172.699219 166.300781 C 171.9375 166.332031 171.332031 166.601563 170.886719 167.113281 C 170.433594 167.628906 170.207031 168.222656 170.199219 168.898438 C 170.195313 169.554688 170.199219 170.097656 170.210938 170.527344 C 170.21875 170.957031 170.246094 171.25 170.300781 171.398438 L 170.300781 173.800781 L 170.097656 177.898438 L 170.097656 178.398438 C 170.097656 178.65625 170.144531 178.898438 170.234375 179.125 C 170.324219 179.355469 170.445313 179.546875 170.597656 179.699219 C 170.996094 180.386719 171.59375 180.71875 172.398438 180.699219 C 172.957031 180.691406 173.457031 180.515625 173.898438 180.164063 C 174.332031 179.820313 174.632813 179.363281 174.800781 178.800781 C 174.910156 178.300781 174.976563 177.5 175 176.398438 L 175.300781 176.398438 C 178.796875 175.054688 181.925781 174.046875 184.6875 173.375 C 187.445313 172.703125 189.847656 172.347656 191.898438 172.300781 C 195.820313 172.277344 198.777344 173.28125 200.761719 175.3125 C 202.746094 177.351563 203.925781 180.578125 204.300781 185 C 202.800781 183.800781 201.597656 183.003906 200.699219 182.601563 C 199.25 181.90625 197.691406 181.378906 196.023438 181.027344 C 194.351563 180.675781 192.542969 180.5 190.597656 180.5 C 185.800781 180.53125 181.566406 181.394531 177.886719 183.089844 C 174.203125 184.785156 171.339844 187.125 169.300781 190.101563 C 168.25 191.558594 167.46875 193.097656 166.960938 194.726563 C 166.445313 196.355469 166.191406 198.046875 166.199219 199.800781 C 166.210938 202.785156 167.007813 205.519531 168.585938 208 C 170.160156 210.488281 172.429688 212.523438 175.398438 214.101563 C 178.296875 215.703125 181.597656 216.5 185.300781 216.5 C 188.214844 216.503906 191.007813 216.113281 193.675781 215.335938 C 196.339844 214.554688 199.082031 213.347656 201.898438 211.699219 C 201.953125 211.660156 202.292969 211.476563 202.921875 211.152344 C 203.550781 210.832031 204.441406 210.347656 205.597656 209.699219 C 206.550781 210.964844 208.058594 212.117188 210.121094 213.152344 C 212.175781 214.191406 214.136719 214.738281 216 214.800781 C 216.660156 214.785156 217.207031 214.539063 217.636719 214.0625 C 218.0625 213.585938 218.28125 212.964844 218.300781 212.199219 C 218.28125 211.632813 218.0625 211.148438 217.636719 210.738281 C 217.207031 210.335938 216.660156 210.121094 216 210.101563 C 214.71875 210.023438 213.300781 209.554688 211.75 208.6875 C 210.191406 207.828125 209.277344 207.03125 209 206.300781 C 208.996094 206.054688 208.972656 205.796875 208.9375 205.523438 C 208.894531 205.257813 208.851563 204.949219 208.800781 204.601563 C 208.714844 204.488281 208.679688 203.722656 208.699219 202.300781 C 208.710938 200.105469 208.878906 195.902344 209.199219 189.699219 C 209.242188 184.945313 208.777344 181.035156 207.8125 177.964844 C 206.839844 174.898438 205.101563 172.410156 202.597656 170.5 C 200.078125 168.585938 196.714844 167.621094 192.5 167.601563 C 188 167.621094 182.199219 168.886719 175.097656 171.398438 L 175.097656 171.300781 C 175.011719 171.003906 174.976563 170.203125 175 168.898438 Z M 204.199219 195.800781 C 203.996094 199.019531 203.894531 201.1875 203.898438 202.300781 C 203.878906 203.703125 203.914063 204.5 204 204.699219 L 202.898438 205.601563 C 202.148438 206.054688 201.496094 206.449219 200.9375 206.777344 C 200.375 207.109375 199.894531 207.347656 199.5 207.5 C 194.980469 210.21875 190.214844 211.585938 185.199219 211.601563 C 180.933594 211.546875 177.53125 210.460938 174.996094 208.339844 C 172.457031 206.222656 171.15625 203.410156 171.097656 199.898438 C 171.105469 197.226563 171.910156 194.800781 173.511719 192.625 C 175.105469 190.453125 177.4375 188.679688 180.5 187.300781 C 183.5 185.988281 187 185.320313 191 185.300781 C 199.296875 185.304688 203.695313 188.804688 204.199219 195.800781 Z M 233.800781 204 C 231.894531 201.820313 230.796875 199.085938 230.5 195.800781 L 230.300781 192.5 C 230.359375 187.480469 231.761719 183.222656 234.511719 179.726563 C 237.257813 176.230469 240.988281 173.921875 245.699219 172.800781 C 247.316406 172.316406 249.183594 172.085938 251.300781 172.101563 C 254.894531 172.132813 258.027344 172.953125 260.699219 174.5625 C 263.371094 176.179688 265.304688 178.425781 266.5 181.300781 L 250.5 192.5 C 250.296875 192.585938 250.097656 192.71875 249.902344 192.898438 C 244.480469 196.800781 239.113281 200.503906 233.800781 204 Z M 265.699219 187.898438 L 270.699219 184.5 C 271.5 183.886719 271.902344 183.117188 271.902344 182.199219 C 271.902344 181.957031 271.894531 181.777344 271.886719 181.652344 C 271.871094 181.535156 271.84375 181.449219 271.800781 181.398438 C 270.378906 176.957031 267.839844 173.472656 264.1875 170.949219 C 260.527344 168.429688 256.167969 167.148438 251.101563 167.101563 C 249.398438 167.121094 247.195313 167.386719 244.5 167.898438 C 238.621094 169.386719 233.972656 172.320313 230.550781 176.699219 C 227.125 181.085938 225.375 186.417969 225.300781 192.699219 L 225.5 196.398438 C 226.074219 200.410156 227.449219 203.839844 229.625 206.6875 C 231.796875 209.539063 234.621094 211.742188 238.101563 213.300781 C 241.578125 214.898438 245.3125 215.695313 249.300781 215.699219 C 253.542969 215.675781 257.425781 214.867188 260.949219 213.261719 C 264.46875 211.65625 267.351563 209.367188 269.601563 206.398438 C 270.695313 204.945313 271.570313 203.332031 272.222656 201.550781 C 272.871094 199.777344 273.296875 197.859375 273.5 195.800781 C 273.535156 195.125 273.335938 194.53125 272.902344 194.015625 C 272.460938 193.503906 271.859375 193.230469 271.101563 193.199219 C 270.425781 193.21875 269.84375 193.4375 269.347656 193.851563 C 268.851563 194.273438 268.566406 194.789063 268.5 195.398438 C 267.953125 200.113281 265.945313 203.84375 262.476563 206.589844 C 259 209.339844 254.644531 210.742188 249.402344 210.800781 C 247.246094 210.804688 245.175781 210.53125 243.199219 209.976563 C 241.214844 209.429688 239.351563 208.601563 237.601563 207.5 L 252.800781 196.898438 L 253.402344 196.398438 C 255.546875 194.847656 257.644531 193.355469 259.699219 191.925781 C 261.746094 190.496094 263.746094 189.15625 265.699219 187.898438 Z M 283.898438 166 C 283.226563 166.027344 282.644531 166.28125 282.160156 166.765625 C 281.671875 167.25 281.417969 167.828125 281.398438 168.5 C 281.417969 169.171875 281.671875 169.753906 282.160156 170.238281 C 282.644531 170.726563 283.226563 170.980469 283.898438 171 L 287.101563 171 C 287.097656 175.804688 286.996094 182.304688 286.800781 190.5 L 286.601563 209.800781 L 283.5 209.800781 C 282.738281 209.828125 282.132813 210.082031 281.6875 210.5625 C 281.238281 211.050781 281.007813 211.628906 281 212.300781 C 281.007813 212.976563 281.238281 213.554688 281.6875 214.039063 C 282.132813 214.523438 282.738281 214.777344 283.5 214.800781 C 286.617188 214.785156 288.582031 214.820313 289.398438 214.898438 L 295.398438 214.898438 C 296.070313 214.882813 296.648438 214.628906 297.136719 214.140625 C 297.621094 213.65625 297.875 213.074219 297.898438 212.398438 C 297.875 211.726563 297.621094 211.148438 297.136719 210.664063 C 296.648438 210.179688 296.070313 209.925781 295.398438 209.898438 L 291.601563 209.898438 L 291.699219 196.601563 C 291.746094 196.445313 291.777344 196.054688 291.789063 195.425781 C 291.796875 194.796875 291.800781 193.953125 291.800781 192.898438 C 293.1875 190.097656 295.207031 187.128906 297.859375 183.984375 C 300.511719 180.847656 303.460938 178.15625 306.703125 175.914063 C 309.945313 173.675781 313.144531 172.503906 316.300781 172.398438 C 319.214844 172.386719 321.480469 173.71875 323.101563 176.398438 C 325.613281 180.917969 326.878906 188.1875 326.898438 198.199219 L 326.699219 206 L 326.601563 210.300781 L 322.199219 210.300781 C 321.523438 210.324219 320.945313 210.578125 320.460938 211.0625 C 319.976563 211.546875 319.722656 212.128906 319.699219 212.800781 C 319.722656 213.476563 319.976563 214.054688 320.460938 214.539063 C 320.945313 215.023438 321.523438 215.273438 322.199219 215.300781 L 334.601563 215.300781 C 335.359375 215.273438 335.964844 215.023438 336.414063 214.539063 C 336.859375 214.054688 337.089844 213.476563 337.101563 212.800781 C 337.089844 212.128906 336.859375 211.546875 336.414063 211.0625 C 335.964844 210.578125 335.359375 210.324219 334.601563 210.300781 L 331.601563 210.300781 L 331.699219 206.101563 L 331.898438 198.398438 L 331.699219 192.300781 C 333.984375 188.257813 336.6875 184.695313 339.8125 181.613281 C 342.933594 178.535156 345.960938 176.199219 348.898438 174.601563 C 351.679688 173.085938 354.214844 172.320313 356.5 172.300781 C 361.714844 172.320313 365.082031 176.683594 366.601563 185.398438 C 366.847656 187.453125 367.042969 189.546875 367.1875 191.675781 C 367.324219 193.804688 367.394531 195.945313 367.398438 198.101563 L 367.199219 205.800781 L 367.101563 209.898438 C 366.617188 209.816406 365.183594 209.785156 362.800781 209.800781 C 362.039063 209.816406 361.433594 210.042969 360.988281 210.488281 C 360.539063 210.9375 360.308594 211.542969 360.300781 212.300781 C 360.308594 213.066406 360.539063 213.6875 360.988281 214.164063 C 361.433594 214.644531 362.039063 214.890625 362.800781 214.898438 L 374.699219 215 C 375.371094 214.976563 375.949219 214.707031 376.4375 214.1875 C 376.917969 213.675781 377.171875 213.078125 377.199219 212.398438 C 377.171875 211.734375 376.917969 211.175781 376.4375 210.714844 C 375.949219 210.261719 375.371094 210.023438 374.699219 210 C 373.953125 210.007813 373.371094 210.003906 372.949219 209.988281 C 372.527344 209.980469 372.242188 209.949219 372.101563 209.898438 L 372.199219 206 L 372.398438 197.898438 L 372.199219 191.5 C 370.980469 175.300781 365.914063 167.199219 357 167.199219 C 355.214844 167.183594 353.582031 167.417969 352.101563 167.898438 C 348.351563 168.957031 344.699219 170.875 341.148438 173.652344 C 337.597656 176.433594 334.148438 180.050781 330.800781 184.5 C 328.914063 173.019531 324.179688 167.285156 316.601563 167.300781 C 313.578125 167.375 310.496094 168.203125 307.351563 169.789063 C 304.203125 171.375 301.417969 173.28125 299 175.5 C 296.613281 177.703125 294.28125 180.300781 292 183.300781 C 292.042969 182.65625 292.070313 181.324219 292.085938 179.300781 C 292.09375 177.28125 292.101563 174.546875 292.101563 171.101563 L 295.101563 171.101563 C 295.859375 171.078125 296.460938 170.824219 296.914063 170.339844 C 297.359375 169.855469 297.589844 169.277344 297.601563 168.601563 C 297.589844 167.929688 297.359375 167.351563 296.914063 166.863281 C 296.460938 166.378906 295.859375 166.125 295.101563 166.101563 L 289.5 166.101563 C 288.78125 166.023438 286.914063 165.988281 283.898438 166 Z M 380.699219 215 "/>
</g>
</svg>
