<?xml version="1.0" encoding="UTF-8"?>
<svg xmlns="http://www.w3.org/2000/svg" xmlns:xlink="http://www.w3.org/1999/xlink" width="512pt" height="512pt" viewBox="0 0 512 512" version="1.1">
<defs>
<linearGradient id="linear0" gradientUnits="userSpaceOnUse" x1="120" y1="271" x2="500" y2="500" >
<stop offset="0" style="stop-color:rgb(92.54902%,6.666667%,100%);stop-opacity:1;"/>
<stop offset="0.5" style="stop-color:rgb(1.960784%,0%,100%);stop-opacity:1;"/>
</linearGradient>
</defs>
<g id="surface46">
<path style=" stroke:none;fill-rule:nonzero;fill:rgb(96.078431%,95.686275%,96.470588%);fill-opacity:1;" d="M 118.625 458.65625 L 250.925781 458.65625 L 250.925781 1114.796875 L 118.625 1114.796875 Z M 118.625 458.65625 "/>
<path style=" stroke:none;fill-rule:nonzero;fill:rgb(6.27451%,5.882353%,6.27451%);fill-opacity:1;" d="M 201.121094 129.296875 L 616.558594 129.296875 L 616.558594 506.898438 L 201.121094 506.898438 Z M 201.121094 129.296875 "/>
<path style="fill:none;stroke-width:0.01;stroke-linecap:butt;stroke-linejoin:miter;stroke:rgb(100%,33.333333%,0.784314%);stroke-opacity:1;stroke-miterlimit:10;" d="M 0.215057 0.183014 L 0.715988 0.106285 L 0.160538 0.869095 L 0.881241 0.327095 Z M 0.215057 0.183014 " transform="matrix(512,0,0,512,0,0)"/>
<path style="fill:none;stroke-width:2;stroke-linecap:butt;stroke-linejoin:miter;stroke:url(#linear0);stroke-miterlimit:10;" d="M 124.5 199.5 L 136.699219 199.5 L 136.699219 214.300781 L 136.5 221.199219 L 136.5 227.800781 L 136.398438 234.5 L 136.398438 262.800781 L 136.199219 269.898438 L 124 269.5 L 124.199219 262.601563 L 124.199219 234.5 L 124.300781 227.800781 L 124.300781 221 L 124.5 214.101563 Z M 150.699219 237.101563 L 156.800781 237.601563 L 163.800781 237.398438 L 169.597656 236.800781 L 173 236.300781 L 173.398438 233.5 L 172 229.398438 L 169.097656 225.398438 L 165.300781 223.800781 L 160.398438 223.199219 L 156.199219 224.699219 L 153.5 227.601563 L 151.199219 232.101563 Z M 150.699219 249.398438 L 150.898438 251.699219 L 152.300781 255.898438 L 154.800781 258.898438 L 160 260.300781 L 164.699219 260.699219 L 169.597656 259.199219 L 173.097656 256.601563 L 176.097656 251.601563 L 186.5 258 L 182.097656 264.800781 L 175.199219 270 L 166.097656 272.898438 L 157.597656 272.300781 L 148.199219 269.101563 L 141.699219 262.101563 L 138.898438 254.101563 L 138.199219 245.300781 L 138.398438 237.199219 L 139.597656 228.699219 L 143.5 220.601563 L 149.597656 214.5 L 158.800781 211 L 168.699219 212 L 176.699219 216 L 182.800781 223.800781 L 185.597656 233.5 L 181.800781 244.699219 L 172.199219 248.601563 L 164.597656 249.601563 L 156.597656 249.800781 Z M 186.5 238.800781 L 186.699219 226.601563 L 193.796875 226.699219 L 194.097656 226.699219 L 194.097656 220.101563 L 194.296875 213.5 L 194.097656 206.898438 L 206.296875 206.5 L 206.5 213.5 L 206.296875 220.300781 L 206.296875 226.898438 L 207.796875 227 L 214.398438 227 L 214.398438 239.199219 L 207.597656 239.199219 L 206 239.101563 L 206 254.898438 L 206.097656 261.199219 L 206.296875 267.300781 L 194.097656 267.699219 L 193.898438 261.398438 L 193.796875 254.898438 L 193.796875 238.898438 Z M 253 236 L 252.898438 236.101563 L 249.796875 231.898438 L 245.898438 229.601563 L 241 228.398438 L 236 228.5 L 232.296875 230.699219 L 228.597656 234.601563 L 226.398438 238.800781 L 226.296875 243 L 227.097656 247.398438 L 229.296875 251.101563 L 232.097656 254 L 235.597656 255.699219 L 240.597656 256.699219 L 244.898438 256.398438 L 249 254.699219 L 252.398438 252.398438 L 252.5 248.5 L 253 241.101563 Z M 253.097656 212.5 L 265.296875 212.699219 L 265.199219 219.601563 L 265.199219 241.5 L 264.699219 249.101563 L 264.398438 257.601563 L 264.296875 265.601563 L 264.296875 273.300781 L 252.097656 273.300781 L 252.097656 266.5 L 247.699219 268.199219 L 240 268.898438 L 231.796875 267.300781 L 224.898438 264 L 219.5 258.5 L 215.699219 251.601563 L 214.097656 243.800781 L 214.597656 235.601563 L 218.597656 227.601563 L 224.699219 221.101563 L 232.597656 216.699219 L 242.398438 216.199219 L 250.5 218.398438 L 253 219.800781 L 253 219.601563 Z M 279.199219 237.101563 L 285.300781 237.601563 L 292.300781 237.398438 L 298.097656 236.800781 L 301.5 236.300781 L 301.898438 233.5 L 300.5 229.398438 L 297.597656 225.398438 L 293.800781 223.800781 L 288.898438 223.199219 L 284.699219 224.699219 L 282 227.601563 L 279.699219 232.101563 Z M 279.199219 249.398438 L 279.398438 251.699219 L 280.800781 255.898438 L 283.300781 258.898438 L 288.5 260.300781 L 293.199219 260.699219 L 298.097656 259.199219 L 301.597656 256.601563 L 304.597656 251.601563 L 315 258 L 310.597656 264.800781 L 303.699219 270 L 294.597656 272.898438 L 286.097656 272.300781 L 276.699219 269.101563 L 270.199219 262.101563 L 267.398438 254.101563 L 266.699219 245.300781 L 266.898438 237.199219 L 268.097656 228.699219 L 272 220.601563 L 278.097656 214.5 L 287.300781 211 L 297.199219 212 L 305.199219 216 L 311.300781 223.800781 L 314.097656 233.5 L 310.300781 244.699219 L 300.699219 248.601563 L 293.097656 249.601563 L 285.097656 249.800781 Z M 315.5 219.398438 L 327.699219 220.398438 L 327.398438 224.398438 L 328.199219 223.601563 L 335.796875 219.101563 L 346.796875 219 L 353.296875 225.898438 L 359.199219 221.300781 L 368.097656 218.199219 L 378.796875 221.5 L 384.398438 231.398438 L 385.699219 239.800781 L 386.296875 248 L 386.296875 255.898438 L 385.5 263.800781 L 384.898438 271.199219 L 372.699219 270.199219 L 373.296875 262.601563 L 374.097656 255.300781 L 374.097656 248.398438 L 373.5 241.199219 L 372.796875 235.199219 L 371 230.898438 L 368.5 230.398438 L 365.199219 231.898438 L 360.898438 235.398438 L 356.796875 240.398438 L 356.699219 240.199219 L 356.796875 244.601563 L 356.597656 251.101563 L 356.296875 257.800781 L 355.796875 264.300781 L 343.597656 263.300781 L 344.097656 257 L 344.398438 250.699219 L 344.597656 244.601563 L 344.398438 237.398438 L 343.796875 232.800781 L 342 230.199219 L 339.398438 230.699219 L 335.597656 233.199219 L 331.296875 237.398438 L 327.199219 243.398438 L 326.898438 243.101563 L 326.898438 257 L 327.097656 263.300781 L 327.097656 269.601563 L 314.898438 269.601563 L 314.898438 263.5 L 314.699219 257.199219 L 314.699219 242.300781 L 314.898438 234.800781 L 314.898438 227.101563 Z M 385.199219 271 "/>
</g>
</svg>
