<?xml version="1.0" standalone="no"?>
<!DOCTYPE svg PUBLIC "-//W3C//DTD SVG 1.1//EN"
 "http://www.w3.org/Graphics/SVG/1.1/DTD/svg11.dtd">
<!-- Created with svg_stack (http://github.com/astraw/svg_stack) -->
<svg xmlns="http://www.w3.org/2000/svg" xmlns:sodipodi="http://sodipodi.sourceforge.net/DTD/sodipodi-0.dtd" xmlns:xlink="http://www.w3.org/1999/xlink" version="1.1" width="640.0" height="640.0">
  <defs/>
  <g id="id0:id0" transform="matrix(1.25,0,0,1.25,0.0,0.0)"><g id="id0:surface46">
<path style=" stroke:none;fill-rule:nonzero;fill:rgb(93.72549%,62.352941%,6.666667%);fill-opacity:1;" d="M 60.53125 345.136719 L 132.058594 345.136719 L 132.058594 916.667969 L 60.53125 916.667969 Z M 60.53125 345.136719 "/>
<path style=" stroke:none;fill-rule:nonzero;fill:rgb(36.470588%,25.882353%,23.529412%);fill-opacity:1;" d="M 133.175781 510.421875 L 149.078125 510.421875 L 149.078125 1297.019531 L 133.175781 1297.019531 Z M 133.175781 510.421875 "/>
<path style="fill:none;stroke-width:0.06;stroke-linecap:butt;stroke-linejoin:miter;stroke:rgb(88.627451%,17.647059%,10.196078%);stroke-opacity:1;stroke-miterlimit:10;" d="M 0.773918 0.71933 C 0.773918 0.71933 0.447609 0.818001 0.404457 0.632957 Z M 0.773918 0.71933 " transform="matrix(512,0,0,512,0,0)"/>
<path style=" stroke:none;fill-rule:nonzero;fill:rgb(0%,0%,0%);fill-opacity:1;" d="M 259.101563 240.601563 C 259.085938 239.890625 258.859375 239.3125 258.425781 238.863281 C 257.984375 238.417969 257.410156 238.164063 256.699219 238.101563 C 255.976563 238.113281 255.363281 238.335938 254.859375 238.773438 C 254.351563 239.210938 254.066406 239.789063 254 240.5 L 253.601563 255.300781 L 253.398438 265.199219 L 253.199219 279.699219 C 253.183594 285.058594 253.429688 289.421875 253.9375 292.789063 C 254.4375 296.160156 255.257813 298.796875 256.398438 300.699219 C 257.664063 303.042969 259.480469 304.917969 261.847656 306.328125 C 264.210938 307.738281 266.730469 308.460938 269.398438 308.5 C 272.6875 308.46875 275.527344 307.53125 277.921875 305.6875 C 280.3125 303.84375 282.003906 301.28125 283 298 L 283.101563 298 C 283.097656 297.960938 283.097656 297.894531 283.101563 297.800781 C 283.097656 297.710938 283.097656 297.546875 283.101563 297.300781 C 283.089844 296.742188 282.929688 296.242188 282.625 295.800781 C 282.3125 295.367188 281.90625 295.066406 281.398438 294.898438 C 280.6875 294.757813 280.058594 294.847656 279.511719 295.175781 C 278.964844 295.503906 278.558594 296.046875 278.300781 296.800781 C 277.65625 298.878906 276.535156 300.523438 274.9375 301.738281 C 273.332031 302.953125 271.488281 303.574219 269.398438 303.601563 C 267.695313 303.570313 266.027344 303.054688 264.398438 302.050781 C 262.769531 301.046875 261.503906 299.730469 260.601563 298.101563 C 259.714844 296.585938 259.082031 294.320313 258.699219 291.300781 C 258.546875 289.152344 258.425781 286.933594 258.335938 284.652344 C 258.246094 282.371094 258.199219 280.054688 258.199219 277.699219 C 258.496094 259.785156 258.796875 247.417969 259.101563 240.601563 Z M 299.800781 296 C 297.894531 293.820313 296.796875 291.085938 296.5 287.800781 L 296.300781 284.5 C 296.359375 279.480469 297.761719 275.222656 300.511719 271.726563 C 303.257813 268.230469 306.988281 265.921875 311.699219 264.800781 C 313.316406 264.316406 315.183594 264.085938 317.300781 264.101563 C 320.894531 264.132813 324.027344 264.953125 326.699219 266.5625 C 329.371094 268.179688 331.304688 270.425781 332.5 273.300781 L 316.5 284.5 C 316.296875 284.585938 316.097656 284.71875 315.902344 284.898438 C 310.480469 288.800781 305.113281 292.503906 299.800781 296 Z M 331.699219 279.898438 L 336.699219 276.5 C 337.5 275.886719 337.902344 275.117188 337.902344 274.199219 C 337.902344 273.957031 337.894531 273.777344 337.886719 273.652344 C 337.871094 273.535156 337.84375 273.449219 337.800781 273.398438 C 336.378906 268.957031 333.839844 265.472656 330.1875 262.949219 C 326.527344 260.429688 322.167969 259.148438 317.101563 259.101563 C 315.398438 259.121094 313.195313 259.386719 310.5 259.898438 C 304.621094 261.386719 299.972656 264.320313 296.550781 268.699219 C 293.125 273.085938 291.375 278.417969 291.300781 284.699219 L 291.5 288.398438 C 292.074219 292.410156 293.449219 295.839844 295.625 298.6875 C 297.796875 301.539063 300.621094 303.742188 304.101563 305.300781 C 307.578125 306.898438 311.3125 307.695313 315.300781 307.699219 C 319.542969 307.675781 323.425781 306.867188 326.949219 305.261719 C 330.46875 303.65625 333.351563 301.367188 335.601563 298.398438 C 336.695313 296.945313 337.570313 295.332031 338.222656 293.550781 C 338.871094 291.777344 339.296875 289.859375 339.5 287.800781 C 339.535156 287.125 339.335938 286.53125 338.902344 286.015625 C 338.460938 285.503906 337.859375 285.230469 337.101563 285.199219 C 336.425781 285.21875 335.84375 285.4375 335.347656 285.851563 C 334.851563 286.273438 334.566406 286.789063 334.5 287.398438 C 333.953125 292.113281 331.945313 295.84375 328.476563 298.589844 C 325 301.339844 320.644531 302.742188 315.402344 302.800781 C 313.246094 302.804688 311.175781 302.53125 309.199219 301.976563 C 307.214844 301.429688 305.351563 300.601563 303.601563 299.5 L 318.800781 288.898438 L 319.402344 288.398438 C 321.546875 286.847656 323.644531 285.355469 325.699219 283.925781 C 327.746094 282.496094 329.746094 281.15625 331.699219 279.898438 Z M 356.601563 258.5 L 349 258.5 C 348.238281 258.519531 347.632813 258.765625 347.1875 259.238281 C 346.734375 259.71875 346.507813 260.339844 346.5 261.101563 C 346.523438 261.78125 346.777344 262.375 347.261719 262.890625 C 347.746094 263.40625 348.324219 263.675781 349 263.699219 L 358.101563 263.699219 L 358 273.601563 C 357.980469 282.320313 358.3125 288.488281 359 292.101563 C 359.585938 295.851563 360.609375 298.832031 362.0625 301.039063 C 363.515625 303.25 365.460938 305.003906 367.898438 306.300781 C 369.144531 306.953125 370.402344 307.445313 371.675781 307.785156 C 372.945313 308.125 374.253906 308.296875 375.601563 308.300781 C 379.046875 308.273438 382.046875 307.375 384.597656 305.601563 C 387.148438 303.828125 388.949219 301.328125 390 298.101563 L 390.199219 297.199219 C 390.191406 296.640625 390.027344 296.140625 389.710938 295.699219 C 389.390625 295.265625 388.953125 294.964844 388.398438 294.800781 L 387.601563 294.601563 C 387.128906 294.609375 386.667969 294.773438 386.222656 295.089844 C 385.773438 295.410156 385.46875 295.847656 385.300781 296.398438 C 384.511719 298.570313 383.253906 300.242188 381.535156 301.414063 C 379.808594 302.59375 377.832031 303.1875 375.601563 303.199219 C 373.746094 303.167969 371.949219 302.660156 370.210938 301.675781 C 368.46875 300.695313 367.097656 299.4375 366.101563 297.898438 C 365.640625 297.15625 365.222656 296.226563 364.847656 295.113281 C 364.464844 294.003906 364.148438 292.699219 363.898438 291.199219 C 363.378906 287.304688 363.113281 281.003906 363.101563 272.300781 L 363.101563 263.800781 C 364.515625 263.886719 367.984375 263.917969 373.5 263.898438 C 374.265625 263.886719 374.886719 263.644531 375.363281 263.164063 C 375.839844 262.6875 376.085938 262.066406 376.101563 261.300781 C 376.078125 260.628906 375.820313 260.03125 375.335938 259.515625 C 374.847656 259 374.269531 258.730469 373.601563 258.699219 C 367.996094 258.722656 364.496094 258.6875 363.101563 258.601563 L 363.101563 255 C 363.179688 253.503906 363.214844 249.402344 363.199219 242.699219 C 363.179688 241.9375 362.941406 241.320313 362.488281 240.839844 C 362.03125 240.363281 361.46875 240.117188 360.800781 240.101563 C 360.03125 240.113281 359.410156 240.34375 358.9375 240.800781 C 358.457031 241.261719 358.210938 241.894531 358.199219 242.699219 C 358.214844 249.402344 358.183594 253.503906 358.101563 255 L 358.101563 258.5 Z M 407 260.898438 C 406.976563 260.222656 406.742188 259.628906 406.296875 259.113281 C 405.847656 258.601563 405.316406 258.332031 404.699219 258.300781 C 403.9375 258.332031 403.332031 258.601563 402.886719 259.113281 C 402.433594 259.628906 402.207031 260.222656 402.199219 260.898438 C 402.195313 261.554688 402.199219 262.097656 402.210938 262.527344 C 402.21875 262.957031 402.246094 263.25 402.300781 263.398438 L 402.300781 265.800781 L 402.097656 269.898438 L 402.097656 270.398438 C 402.097656 270.65625 402.144531 270.898438 402.234375 271.125 C 402.324219 271.355469 402.445313 271.546875 402.597656 271.699219 C 402.996094 272.386719 403.59375 272.71875 404.398438 272.699219 C 404.957031 272.691406 405.457031 272.515625 405.898438 272.164063 C 406.332031 271.820313 406.632813 271.363281 406.800781 270.800781 C 406.910156 270.300781 406.976563 269.5 407 268.398438 L 407.300781 268.398438 C 410.796875 267.054688 413.925781 266.046875 416.6875 265.375 C 419.445313 264.703125 421.847656 264.347656 423.898438 264.300781 C 427.820313 264.277344 430.777344 265.28125 432.761719 267.3125 C 434.746094 269.351563 435.925781 272.578125 436.300781 277 C 434.800781 275.800781 433.597656 275.003906 432.699219 274.601563 C 431.25 273.90625 429.691406 273.378906 428.023438 273.027344 C 426.351563 272.675781 424.542969 272.5 422.597656 272.5 C 417.800781 272.53125 413.566406 273.394531 409.886719 275.089844 C 406.203125 276.785156 403.339844 279.125 401.300781 282.101563 C 400.25 283.558594 399.46875 285.097656 398.960938 286.726563 C 398.445313 288.355469 398.191406 290.046875 398.199219 291.800781 C 398.210938 294.785156 399.007813 297.519531 400.585938 300 C 402.160156 302.488281 404.429688 304.523438 407.398438 306.101563 C 410.296875 307.703125 413.597656 308.5 417.300781 308.5 C 420.214844 308.503906 423.007813 308.113281 425.675781 307.335938 C 428.339844 306.554688 431.082031 305.347656 433.898438 303.699219 C 433.953125 303.660156 434.292969 303.476563 434.921875 303.152344 C 435.550781 302.832031 436.441406 302.347656 437.597656 301.699219 C 438.550781 302.964844 440.058594 304.117188 442.121094 305.152344 C 444.175781 306.191406 446.136719 306.738281 448 306.800781 C 448.660156 306.785156 449.207031 306.539063 449.636719 306.0625 C 450.0625 305.585938 450.28125 304.964844 450.300781 304.199219 C 450.28125 303.632813 450.0625 303.148438 449.636719 302.738281 C 449.207031 302.335938 448.660156 302.121094 448 302.101563 C 446.71875 302.023438 445.300781 301.554688 443.75 300.6875 C 442.191406 299.828125 441.277344 299.03125 441 298.300781 C 440.996094 298.054688 440.972656 297.796875 440.9375 297.523438 C 440.894531 297.257813 440.851563 296.949219 440.800781 296.601563 C 440.714844 296.488281 440.679688 295.722656 440.699219 294.300781 C 440.710938 292.105469 440.878906 287.902344 441.199219 281.699219 C 441.242188 276.945313 440.777344 273.035156 439.8125 269.964844 C 438.839844 266.898438 437.101563 264.410156 434.597656 262.5 C 432.078125 260.585938 428.714844 259.621094 424.5 259.601563 C 420 259.621094 414.199219 260.886719 407.097656 263.398438 L 407.097656 263.300781 C 407.011719 263.003906 406.976563 262.203125 407 260.898438 Z M 436.199219 287.800781 C 435.996094 291.019531 435.894531 293.1875 435.898438 294.300781 C 435.878906 295.703125 435.914063 296.5 436 296.699219 L 434.898438 297.601563 C 434.148438 298.054688 433.496094 298.449219 432.9375 298.777344 C 432.375 299.109375 431.894531 299.347656 431.5 299.5 C 426.980469 302.21875 422.214844 303.585938 417.199219 303.601563 C 412.933594 303.546875 409.53125 302.460938 406.996094 300.339844 C 404.457031 298.222656 403.15625 295.410156 403.097656 291.898438 C 403.105469 289.226563 403.910156 286.800781 405.511719 284.625 C 407.105469 282.453125 409.4375 280.679688 412.5 279.300781 C 415.5 277.988281 419 277.320313 423 277.300781 C 431.296875 277.304688 435.695313 280.804688 436.199219 287.800781 Z M 465.800781 296 C 463.894531 293.820313 462.796875 291.085938 462.5 287.800781 L 462.300781 284.5 C 462.359375 279.480469 463.761719 275.222656 466.511719 271.726563 C 469.257813 268.230469 472.988281 265.921875 477.699219 264.800781 C 479.316406 264.316406 481.183594 264.085938 483.300781 264.101563 C 486.894531 264.132813 490.027344 264.953125 492.699219 266.5625 C 495.371094 268.179688 497.304688 270.425781 498.5 273.300781 L 482.5 284.5 C 482.296875 284.585938 482.097656 284.71875 481.902344 284.898438 C 476.480469 288.800781 471.113281 292.503906 465.800781 296 Z M 497.699219 279.898438 L 502.699219 276.5 C 503.5 275.886719 503.902344 275.117188 503.902344 274.199219 C 503.902344 273.957031 503.894531 273.777344 503.886719 273.652344 C 503.871094 273.535156 503.84375 273.449219 503.800781 273.398438 C 502.378906 268.957031 499.839844 265.472656 496.1875 262.949219 C 492.527344 260.429688 488.167969 259.148438 483.101563 259.101563 C 481.398438 259.121094 479.195313 259.386719 476.5 259.898438 C 470.621094 261.386719 465.972656 264.320313 462.550781 268.699219 C 459.125 273.085938 457.375 278.417969 457.300781 284.699219 L 457.5 288.398438 C 458.074219 292.410156 459.449219 295.839844 461.625 298.6875 C 463.796875 301.539063 466.621094 303.742188 470.101563 305.300781 C 473.578125 306.898438 477.3125 307.695313 481.300781 307.699219 C 485.542969 307.675781 489.425781 306.867188 492.949219 305.261719 C 496.46875 303.65625 499.351563 301.367188 501.601563 298.398438 C 502.695313 296.945313 503.570313 295.332031 504.222656 293.550781 C 504.871094 291.777344 505.296875 289.859375 505.5 287.800781 C 505.535156 287.125 505.335938 286.53125 504.902344 286.015625 C 504.460938 285.503906 503.859375 285.230469 503.101563 285.199219 C 502.425781 285.21875 501.84375 285.4375 501.347656 285.851563 C 500.851563 286.273438 500.566406 286.789063 500.5 287.398438 C 499.953125 292.113281 497.945313 295.84375 494.476563 298.589844 C 491 301.339844 486.644531 302.742188 481.402344 302.800781 C 479.246094 302.804688 477.175781 302.53125 475.199219 301.976563 C 473.214844 301.429688 471.351563 300.601563 469.601563 299.5 L 484.800781 288.898438 L 485.402344 288.398438 C 487.546875 286.847656 489.644531 285.355469 491.699219 283.925781 C 493.746094 282.496094 495.746094 281.15625 497.699219 279.898438 Z M 515.898438 258 C 515.226563 258.027344 514.644531 258.28125 514.160156 258.765625 C 513.671875 259.25 513.417969 259.828125 513.398438 260.5 C 513.417969 261.171875 513.671875 261.753906 514.160156 262.238281 C 514.644531 262.726563 515.226563 262.980469 515.898438 263 L 519.101563 263 C 519.097656 267.804688 518.996094 274.304688 518.800781 282.5 L 518.601563 301.800781 L 515.5 301.800781 C 514.738281 301.828125 514.132813 302.082031 513.6875 302.5625 C 513.238281 303.050781 513.007813 303.628906 513 304.300781 C 513.007813 304.976563 513.238281 305.554688 513.6875 306.039063 C 514.132813 306.523438 514.738281 306.777344 515.5 306.800781 C 518.617188 306.785156 520.582031 306.820313 521.398438 306.898438 L 527.398438 306.898438 C 528.070313 306.882813 528.648438 306.628906 529.136719 306.140625 C 529.621094 305.65625 529.875 305.074219 529.898438 304.398438 C 529.875 303.726563 529.621094 303.148438 529.136719 302.664063 C 528.648438 302.179688 528.070313 301.925781 527.398438 301.898438 L 523.601563 301.898438 L 523.699219 288.601563 C 523.746094 288.445313 523.777344 288.054688 523.789063 287.425781 C 523.796875 286.796875 523.800781 285.953125 523.800781 284.898438 C 525.1875 282.097656 527.207031 279.128906 529.859375 275.984375 C 532.511719 272.847656 535.460938 270.15625 538.703125 267.914063 C 541.945313 265.675781 545.144531 264.503906 548.300781 264.398438 C 551.214844 264.386719 553.480469 265.71875 555.101563 268.398438 C 557.613281 272.917969 558.878906 280.1875 558.898438 290.199219 L 558.699219 298 L 558.601563 302.300781 L 554.199219 302.300781 C 553.523438 302.324219 552.945313 302.578125 552.460938 303.0625 C 551.976563 303.546875 551.722656 304.128906 551.699219 304.800781 C 551.722656 305.476563 551.976563 306.054688 552.460938 306.539063 C 552.945313 307.023438 553.523438 307.273438 554.199219 307.300781 L 566.601563 307.300781 C 567.359375 307.273438 567.964844 307.023438 568.414063 306.539063 C 568.859375 306.054688 569.089844 305.476563 569.101563 304.800781 C 569.089844 304.128906 568.859375 303.546875 568.414063 303.0625 C 567.964844 302.578125 567.359375 302.324219 566.601563 302.300781 L 563.601563 302.300781 L 563.699219 298.101563 L 563.898438 290.398438 L 563.699219 284.300781 C 565.984375 280.257813 568.6875 276.695313 571.8125 273.613281 C 574.933594 270.535156 577.960938 268.199219 580.898438 266.601563 C 583.679688 265.085938 586.214844 264.320313 588.5 264.300781 C 593.714844 264.320313 597.082031 268.683594 598.601563 277.398438 C 598.847656 279.453125 599.042969 281.546875 599.1875 283.675781 C 599.324219 285.804688 599.394531 287.945313 599.398438 290.101563 L 599.199219 297.800781 L 599.101563 301.898438 C 598.617188 301.816406 597.183594 301.785156 594.800781 301.800781 C 594.039063 301.816406 593.433594 302.042969 592.988281 302.488281 C 592.539063 302.9375 592.308594 303.542969 592.300781 304.300781 C 592.308594 305.066406 592.539063 305.6875 592.988281 306.164063 C 593.433594 306.644531 594.039063 306.890625 594.800781 306.898438 L 606.699219 307 C 607.371094 306.976563 607.949219 306.707031 608.4375 306.1875 C 608.917969 305.675781 609.171875 305.078125 609.199219 304.398438 C 609.171875 303.734375 608.917969 303.175781 608.4375 302.714844 C 607.949219 302.261719 607.371094 302.023438 606.699219 302 C 605.953125 302.007813 605.371094 302.003906 604.949219 301.988281 C 604.527344 301.980469 604.242188 301.949219 604.101563 301.898438 L 604.199219 298 L 604.398438 289.898438 L 604.199219 283.5 C 602.980469 267.300781 597.914063 259.199219 589 259.199219 C 587.214844 259.183594 585.582031 259.417969 584.101563 259.898438 C 580.351563 260.957031 576.699219 262.875 573.148438 265.652344 C 569.597656 268.433594 566.148438 272.050781 562.800781 276.5 C 560.914063 265.019531 556.179688 259.285156 548.601563 259.300781 C 545.578125 259.375 542.496094 260.203125 539.351563 261.789063 C 536.203125 263.375 533.417969 265.28125 531 267.5 C 528.613281 269.703125 526.28125 272.300781 524 275.300781 C 524.042969 274.65625 524.070313 273.324219 524.085938 271.300781 C 524.09375 269.28125 524.101563 266.546875 524.101563 263.101563 L 527.101563 263.101563 C 527.859375 263.078125 528.460938 262.824219 528.914063 262.339844 C 529.359375 261.855469 529.589844 261.277344 529.601563 260.601563 C 529.589844 259.929688 529.359375 259.351563 528.914063 258.863281 C 528.460938 258.378906 527.859375 258.125 527.101563 258.101563 L 521.5 258.101563 C 520.78125 258.023438 518.914063 257.988281 515.898438 258 Z M 612.699219 307 "/>
</g>
</g>
  <g id="id1:id1" transform="matrix(1.0,0,0,1.0,128.0,64.0)"><path d="M464 342C464 354.887 453.183 367.127 434.372 376.263C415.698 385.334 389.76 391 361 391C332.24 391 306.302 385.334 287.628 376.263C268.817 367.127 258 354.887 258 342C258 329.113 268.817 316.873 287.628 307.737C306.302 298.666 332.24 293 361 293C389.76 293 415.698 298.666 434.372 307.737C453.183 316.873 464 329.113 464 342Z" fill="white" fill-opacity="0.01" stroke="black" stroke-width="4"/>
</g>
</svg>
